<?xml version="1.0" encoding="UTF-8"?>
<svg width="31px" height="30px" viewBox="0 0 31 30" version="1.1" xmlns="http://www.w3.org/2000/svg" xmlns:xlink="http://www.w3.org/1999/xlink">
    <!-- Generator: Sketch 52.3 (67297) - http://www.bohemiancoding.com/sketch -->
    <title>file-pdf</title>
    <desc>Created with Sketch.</desc>
    <g id="Page-1" stroke="none" stroke-width="1" fill="none" fill-rule="evenodd">
        <g id="file-pdf">
            <polygon id="Path" fill="#C74D3F" points="29.0850029 2.5103025 28.1655235 0.5 0.5 0.5 0.5 29.5 30.5 29.5 30.5 4.8168278"></polygon>
            <g id="Group" transform="translate(4.000000, 12.000000)" fill="#F5F5F5">
                <polygon id="Path" points="2.0615234 7.5126801 0.3193359 7.5126801 0.3193359 5.6816254 2.0615234 5.6816254"></polygon>
                <path d="M9.5244141,2.7656097 C9.5244141,3.0761566 9.4697266,3.3798675 9.3613282,3.6767425 C9.2524415,3.9736175 9.097168,4.2226409 8.8955079,4.4238128 C8.6186524,4.6972503 8.310547,4.9042816 7.9707032,5.04393 C7.6303712,5.1835784 7.2075196,5.2538909 6.7011719,5.2538909 L5.5878906,5.2538909 L5.5878906,7.51268 L3.7993164,7.51268 L3.7993164,0.5761566 L6.7431641,0.5761566 C7.1840821,0.5761566 7.5561524,0.6142425 7.8588868,0.6904144 C8.1616212,0.7665863 8.4296876,0.8808441 8.6625977,1.0331878 C8.9418946,1.215805 9.1552735,1.4511566 9.3027344,1.7363128 C9.4501953,2.0224457 9.5244141,2.3652191 9.5244141,2.7656097 Z M7.6748047,2.8056488 C7.6748047,2.6103363 7.6220703,2.4423675 7.5166016,2.3017425 C7.4106446,2.1601409 7.288086,2.0624847 7.1484375,2.0058441 C6.9619141,1.9316253 6.7802734,1.8906097 6.6035156,1.8827972 C6.4262695,1.8749847 6.1904297,1.8710784 5.8955078,1.8710784 L5.5878906,1.8710784 L5.5878906,3.9443206 L6.1000976,3.9443206 C6.4047851,3.9443206 6.6552734,3.9257659 6.852539,3.8886565 C7.0498046,3.8515471 7.215332,3.7773284 7.3486328,3.6660002 C7.4633789,3.5663908 7.546875,3.4482268 7.5981445,3.3095549 C7.6494141,3.1718597 7.6748047,3.003891 7.6748047,2.8056488 Z" id="Shape" fill-rule="nonzero"></path>
                <path d="M17.3457031,4.0517426 C17.3457031,4.6972504 17.1982422,5.276352 16.902832,5.7870942 C16.6079101,6.2978364 16.2353515,6.689438 15.7851562,6.9628755 C15.446289,7.1679536 15.0751953,7.3105318 14.6718749,7.3915864 C14.2680663,7.4726411 13.7895507,7.5126802 13.2368163,7.5126802 L10.7915038,7.5126802 L10.7915038,0.5761568 L13.3066405,0.5761568 C13.8720702,0.5761568 14.3593749,0.6240084 14.7695311,0.7187349 C15.1791991,0.8134615 15.5239256,0.9472505 15.8037108,1.1210787 C16.2817381,1.4130709 16.6586913,1.8066256 16.9331053,2.3027193 C17.2080078,2.7978363 17.3457031,3.3808441 17.3457031,4.0517426 Z M15.4960938,4.0380707 C15.4960938,3.5810394 15.413086,3.1904144 15.2470704,2.8661957 C15.0810548,2.541977 14.8173829,2.2880707 14.4575196,2.1044769 C14.2739258,2.0146331 14.0869141,1.9531097 13.8959962,1.9199066 C13.7050782,1.88768 13.4169923,1.8710785 13.0317384,1.8710785 L12.5800782,1.8710785 L12.5800782,6.2128754 L13.0317384,6.2128754 C13.4575197,6.2128754 13.7695314,6.1933441 13.9682618,6.1552582 C14.1669923,6.1161957 14.3613282,6.0449066 14.5507813,5.9423676 C14.8764649,5.7568207 15.1157227,5.5068207 15.2680665,5.1952973 C15.4199219,4.8827972 15.4960938,4.4970551 15.4960938,4.0380707 Z" id="Shape" fill-rule="nonzero"></path>
                <polygon id="Path" points="23.6806641 1.9179535 20.4897461 1.9179535 20.4897461 3.2079926 23.4477539 3.2079926 23.4477539 4.5497895 20.4897461 4.5497895 20.4897461 7.5126801 18.7104492 7.5126801 18.7104492 0.5761567 23.680664 0.5761567 23.680664 1.9179535"></polygon>
            </g>
        </g>
    </g>
</svg>