<!-- Generator: Adobe Illustrator 20.1.0, SVG Export Plug-In  -->
<svg version="1.1"
	 xmlns="http://www.w3.org/2000/svg" xmlns:xlink="http://www.w3.org/1999/xlink" xmlns:a="http://ns.adobe.com/AdobeSVGViewerExtensions/3.0/"
	 x="0px" y="0px" width="20.3px" height="20.3px" viewBox="0 0 20.3 20.3" style="enable-background:new 0 0 20.3 20.3;"
	 xml:space="preserve">
<style type="text/css">
	.st0{fill:#D5584D;}
	.st1{fill:#EFEFEF;}
</style>

<circle class="st0" cx="10.2" cy="10.2" r="10.2"/>
<g>
	<path class="st1" d="M10.2,17.2c-0.8,0-1.4-0.6-1.4-1.4c0-0.8,0.6-1.4,1.4-1.4s1.4,0.6,1.4,1.4C11.6,16.5,10.9,17.2,10.2,17.2z
		 M9.8,11.6c-0.2,0-0.2-0.1-0.2-0.3L9.1,3.4c0-0.2,0.2-0.2,0.3-0.2h1.5c0.1,0,0.3,0,0.3,0.2l-0.4,7.9c0,0.1,0,0.3-0.2,0.3H9.8z"/>
</g>
</svg>
