<?xml version="1.0" encoding="UTF-8"?>
<svg width="64px" height="62px" viewBox="0 0 64 62" version="1.1" xmlns="http://www.w3.org/2000/svg" xmlns:xlink="http://www.w3.org/1999/xlink">
    <!-- Generator: Sketch 52.4 (67378) - http://www.bohemiancoding.com/sketch -->
    <title>arch</title>
    <desc>Created with Sketch.</desc>
    <g id="Page-1" stroke="none" stroke-width="1" fill="none" fill-rule="evenodd">
        <g id="Arch_off" fill="#222222">
            <g id="arch">
                <path d="M62.3767395,52.225544 C61.8427391,52.225544 61.3017387,52.225544 60.7677383,52.225544 C59.8537387,52.225544 58.9417381,52.225544 58.0297393,52.225544 L57.6307391,27.388546 L51.1497401,27.388546 L50.74374,52.225544 C50.4677409,52.225544 50.1907405,52.225544 49.9147395,52.225544 C47.68474,52.225544 45.4547385,52.225544 43.224739,52.225544 L42.8257369,27.4555454 L36.3447379,27.4555454 L35.9397391,52.225544 C35.0917395,52.225544 34.2427405,52.225544 33.3947409,52.225544 C31.73674,52.225544 30.078739,52.225544 28.4207419,52.225544 L28.0217436,27.388546 L21.5337446,27.388546 L21.1347463,52.225544 C19.6077459,52.225544 18.0807454,52.225544 16.5547445,52.225544 C15.574745,52.225544 14.5957487,52.225544 13.6167448,52.225544 L13.2177504,27.388546 L6.7297514,27.388546 L6.3307493,52.225544 C5.7967527,52.225544 5.2617491,52.225544 4.7277525,52.225544 C3.9467543,52.225544 3.165756,52.2125435 2.3847502,52.225544 C2.3517531,52.225544 2.3177489,52.225544 2.2847517,52.225544 C1.563751,52.225544 0.9497526,52.8395424 0.9497526,53.5605431 C0.9497526,55.3495446 0.9497526,57.1445427 0.9497526,58.9335442 C0.9497526,59.1875458 0.9497526,59.4475441 0.9497526,59.7015458 C0.9497526,60.4225465 1.563751,61.0365449 2.2847517,61.0365449 C2.8187483,61.0365449 3.3597486,61.0365449 3.8937529,61.0365449 C5.3557509,61.0365449 6.8107527,61.0365449 8.2727507,61.0365449 C10.4287489,61.0365449 12.5917509,61.0365449 14.7477492,61.0365449 C17.3707465,61.0365449 19.9937438,61.0365449 22.6177443,61.0365449 C25.5017432,61.0365449 28.3847464,61.0365449 31.2687453,61.0365449 C34.1787451,61.0365449 37.088745,61.0365449 39.9997443,61.0365449 C42.7027434,61.0365449 45.4067458,61.0365449 48.1097468,61.0365449 C50.4057463,61.0365449 52.6957472,61.0365449 54.9917468,61.0365449 C56.640747,61.0365449 58.2887458,61.0365449 59.9377459,61.0365449 C60.718746,61.0365449 61.4997462,61.0495454 62.2807463,61.0365449 C62.3137453,61.0365449 62.3477457,61.0365449 62.3807467,61.0365449 C63.081746,61.0365449 63.7487458,60.4225465 63.7157458,59.7015458 C63.7157458,57.9125443 63.7157458,56.1175462 63.7157458,54.3285447 C63.7157458,54.0745431 63.7157458,53.8145448 63.7157458,53.5605431 C63.7117386,52.8395424 63.0977392,52.225544 62.3767395,52.225544 Z" id="Path"></path>
                <path d="M3.6117401,24.1315441 C4.12574,24.1315441 4.6327438,24.1315441 5.1467438,24.1315441 C6.5417404,24.1315441 7.9297409,24.1315441 9.3247452,24.1315441 C11.380745,24.1315441 13.4427414,24.1315441 15.4987412,24.1315441 C18.0087395,24.1315441 20.5247422,24.1315441 23.0347405,24.1315441 C25.7847405,24.1315441 28.5417405,24.1315441 31.2917405,24.1315441 C34.0687409,24.1315441 36.8447419,24.1315441 39.6287423,24.1315441 C42.2187425,24.1315441 44.8087426,24.1315441 47.4047452,24.1315441 C49.5937444,24.1315441 51.7837449,24.1315441 53.972746,24.1315441 C55.5477468,24.1315441 57.1237451,24.1315441 58.6987458,24.1315441 C59.446745,24.1315441 60.1937447,24.1445446 60.9417458,24.1315441 C60.9747448,24.1315441 61.0087452,24.1315441 61.0417462,24.1315441 C61.762745,24.1315441 62.3767453,23.5175438 62.3767453,22.796545 C62.3767453,22.1625442 62.3767453,21.5285454 62.3767453,20.8945446 C62.3767453,20.5205441 62.3767453,20.1405449 62.3767453,19.7665443 C62.3767453,19.1855449 62.262745,18.6655445 61.715746,18.3045444 C61.4017449,18.0975437 61.0687447,17.9175453 60.7407456,17.723545 C58.6777459,16.4885444 56.6157456,15.2475452 54.5537453,14.0125446 C51.576746,12.223545 48.5997448,10.4345445 45.6227455,8.652544 C42.8657455,6.9975443 40.1157417,5.3415441 37.359745,3.6935434 C35.9717445,2.8595433 34.5967445,1.9915433 33.1877441,1.1905436 C33.1677436,1.1775436 33.1477432,1.1635436 33.1277427,1.1575436 C33.1187438,1.1525435 33.1077422,1.1525435 33.0997428,1.1475434 C32.7067412,0.9135432 32.2137412,0.8795433 31.7867431,1.1375432 C30.6387443,1.8255434 29.4837417,2.5055432 28.3357429,3.193543 C25.6587409,4.7885437 22.9827423,6.3845435 20.2997436,7.9725438 C17.2627449,9.7815438 14.2257461,11.5835439 11.1887435,13.3925439 C8.9397506,14.7345449 6.6897506,16.0695439 4.4337462,17.4105435 C3.9597472,17.6905442 3.4857482,17.9645444 3.0117491,18.2585431 C2.9847487,18.2715436 2.964752,18.2855435 2.9387511,18.298544 C2.391754,18.6525441 2.277748,19.1725445 2.277748,19.7605439 C2.277748,20.5745431 2.277748,21.3895436 2.277748,22.2105447 C2.277748,22.4045449 2.277748,22.5975438 2.277748,22.7975446 C2.276741,23.5175438 2.8917389,24.1315441 3.6117401,24.1315441 Z M28.4487381,13.3215446 C28.4547386,13.282545 28.4607391,13.2445449 28.4687386,13.211544 C28.495739,13.0645446 28.52874,12.9175434 28.575737,12.777544 C28.6087379,12.6645431 28.6427383,12.5505447 28.6827354,12.4375438 C28.6827354,12.442543 28.7077369,12.3665447 28.7257347,12.3155441 C28.8347359,12.0915432 28.9497337,11.8675441 29.0897331,11.6565437 C29.1167335,11.6165437 29.2437324,11.376544 29.2897339,11.369544 C29.2897339,11.369544 29.0757332,11.6235437 29.242733,11.4365444 C29.2827339,11.3965444 29.3157349,11.3495445 29.3567314,11.303544 C29.5307312,11.1095438 29.723732,10.9365444 29.9177322,10.7625436 C29.9297332,10.7515439 29.9277305,10.7515439 29.9347305,10.744544 C29.9627304,10.7265444 29.9907303,10.7095442 29.9907303,10.7095442 C30.0837288,10.6425438 30.1847305,10.5755444 30.284729,10.515544 C30.3847275,10.4555436 30.4847298,10.3955441 30.5917282,10.3415442 C30.6447296,10.3145438 30.6987266,10.2885437 30.751728,10.2615443 C30.7917289,10.2415438 30.8317298,10.2215443 30.8717269,10.2085438 C30.9647254,10.1685438 30.9247283,10.1815434 30.7587279,10.2555437 C30.7787284,10.1685438 31.3457297,10.0615435 31.4327277,10.0355434 C31.5457267,10.008543 31.6667289,9.9885435 31.7867278,9.9625434 C31.7967261,9.9605435 31.7947272,9.9605435 31.8027266,9.9595431 C31.8607253,9.9535435 31.9197272,9.9465436 31.973728,9.9425429 C32.2207296,9.9225424 32.4677275,9.9225424 32.7147291,9.9425429 C32.7747305,9.9495429 32.834728,9.9555424 32.8947294,9.9555424 C33.1087301,9.9755429 32.8147276,9.9355419 32.8147276,9.9425429 C32.8347281,9.9095429 33.2017286,10.0155429 33.2557295,10.0295428 C33.3357313,10.0495433 33.9167288,10.1695431 33.9297293,10.2495431 C33.9297293,10.2495431 33.6227301,10.1025428 33.8567274,10.2165431 C33.9097288,10.2435435 33.9637258,10.263543 34.0167272,10.2895431 C34.1497266,10.3565435 34.2767255,10.4225435 34.3967283,10.5035428 C34.4967268,10.5635432 34.5907285,10.6305427 34.690727,10.697543 C34.697727,10.7015427 34.7217252,10.7175435 34.7427251,10.730543 C34.7527234,10.7395428 34.7497251,10.737543 34.7647245,10.7505435 C34.9517248,10.9175433 35.1317251,11.0775432 35.2987249,11.2645434 C35.3457258,11.3175439 35.3917234,11.3715438 35.4387243,11.4315432 C35.4747236,11.4705428 35.4867246,11.480543 35.4887235,11.4775427 C35.5317228,11.5455425 35.5737226,11.6225432 35.5917241,11.6515425 C35.7247235,11.8585423 35.8457257,12.0785425 35.9517247,12.2985419 C35.9787251,12.3515414 36.0117261,12.5255412 35.9717252,12.3385428 C35.9247243,12.1245421 35.9917257,12.3915423 35.9987256,12.4255427 C36.0387265,12.5385436 36.0717275,12.652542 36.105724,12.7655429 C36.1387249,12.8795432 36.1657254,12.9995422 36.1927258,13.112543 C36.2057263,13.1725425 36.2127263,13.2325438 36.2257267,13.2925433 C36.2267262,13.2975425 36.2267262,13.2985438 36.2277256,13.303543 C36.2467266,13.5475425 36.2647243,13.7905425 36.2587238,14.0405425 C36.2517238,14.1605433 36.2457233,14.2875422 36.2317234,14.4075431 C36.228725,14.4345435 36.2297245,14.4335422 36.228725,14.4465427 C36.2187267,14.4925422 36.2077251,14.5355434 36.2047267,14.541542 C36.1517253,14.8215427 36.0647273,15.0885429 35.9707255,15.3555412 C35.9597239,15.3865413 35.9597239,15.3875408 35.9547267,15.4025421 C35.9267268,15.4575424 35.896728,15.5125427 35.8907275,15.5225429 C35.8307261,15.6425437 35.7707286,15.7565422 35.7037272,15.869543 C35.6367258,15.9825438 35.5637278,16.0895423 35.4897265,16.1965427 C35.4897265,16.1965427 35.4747271,16.2195434 35.4657282,16.2335434 C35.4627298,16.2365437 35.4657282,16.2325439 35.4627298,16.2365437 C35.4357294,16.2695446 35.4097284,16.3035431 35.375728,16.3365441 C35.1957277,16.5435448 34.9957269,16.7375432 34.7887262,16.9175435 C34.7777246,16.9265443 34.7647279,16.9415437 34.750728,16.9565431 C34.7527269,16.9535428 34.7527269,16.9545423 34.7547296,16.9515439 C34.8747285,16.8045445 34.7277292,16.9645444 34.6817277,17.0045434 C34.5617288,17.0915433 34.441726,17.1645432 34.3147271,17.2385427 C34.1877282,17.3125422 34.0607255,17.3785421 33.9277261,17.4455434 C33.9157251,17.4515439 33.8847268,17.4685441 33.8547242,17.4835435 C33.8377259,17.4885427 33.8327248,17.4875432 33.8017228,17.4985429 C33.5347245,17.5915433 33.2607224,17.6725427 32.9877236,17.7255422 C32.9927247,17.7255422 32.9647248,17.7325422 32.9307244,17.7395421 C32.884723,17.7455426 32.8397248,17.7525426 32.7937234,17.7525426 C32.6397241,17.779543 32.4867242,17.779543 32.3327249,17.7855435 C32.205726,17.7855435 32.0857233,17.7785435 31.9587244,17.772543 C31.898723,17.765543 31.8387255,17.7595425 31.7787241,17.7595425 C31.5117258,17.739542 31.8657259,17.7665425 31.8657259,17.772543 C31.832725,17.8325425 31.1577257,17.6125432 31.0777277,17.5855427 C31.0527262,17.5785427 30.9647287,17.5565434 30.8847269,17.5315418 C30.8817285,17.529541 30.863727,17.5205421 30.8177256,17.4985409 C30.7647242,17.4715405 30.7107272,17.45154 30.6577258,17.4255409 C30.4237246,17.3055401 30.1967273,17.1715412 29.983726,17.0245418 C29.983726,17.0245418 29.9537272,17.0055427 29.9257273,16.9875411 C29.9187273,16.9805411 29.9207262,16.9815406 29.9097285,16.9715404 C29.8227267,16.8915405 29.7357287,16.8175411 29.6497302,16.7375411 C29.5627284,16.6575412 29.4827304,16.5775413 29.4097285,16.4905414 C29.3627276,16.4375419 29.3157267,16.383541 29.2627291,16.3305416 C29.151729,16.2065411 29.1717295,16.2535419 29.2127299,16.3045425 C29.0987315,16.180542 28.9457316,15.8605423 28.9017291,15.7835426 C28.8417277,15.6835422 28.7887301,15.5765419 28.7417293,15.4695434 C28.7417293,15.4695434 28.731731,15.4505443 28.7277294,15.4435443 C28.724731,15.4355449 28.7297283,15.4455451 28.7217289,15.4235438 C28.7087284,15.3835429 28.688728,15.3435439 28.674728,15.296543 C28.5947262,15.0695437 28.5277286,14.8425425 28.4807278,14.6085433 C28.4677273,14.5495433 28.4607273,14.4905433 28.4477269,14.4315433 C28.4397275,14.3055438 28.4207265,14.1805438 28.4207265,14.0545425 C28.4157372,13.8085442 28.4287376,13.5655441 28.4487381,13.3215446 Z M30.8827362,17.5285454 C30.8117371,17.506546 30.7477379,17.4825459 30.7447357,17.4635449 C30.7497368,17.4725456 30.8787384,17.5285454 30.8827362,17.5285454 Z M28.7147369,15.4135456 C28.6917381,15.369545 28.6657371,15.3165455 28.6697387,15.3075447 C28.693737,15.3655453 28.7027397,15.3855438 28.7147369,15.4135456 Z" id="Shape" fill-rule="nonzero"></path>
            </g>
        </g>
    </g>
</svg>