<?xml version="1.0" encoding="UTF-8"?>
<svg width="128px" height="68px" viewBox="0 0 128 68" version="1.1" xmlns="http://www.w3.org/2000/svg" xmlns:xlink="http://www.w3.org/1999/xlink">
    <!-- Generator: Sketch 52.3 (67297) - http://www.bohemiancoding.com/sketch -->
    <title>benefits-city-7</title>
    <desc>Created with Sketch.</desc>
    <g id="Page-1" stroke="none" stroke-width="1" fill="none" fill-rule="evenodd">
        <g id="benefits-city-7" fill="#222222">
            <path d="M65.7332153,28.6054096 L60.7341919,28.6054096 C60.0313721,25.090395 58.6253052,21.6537494 56.6726074,18.7636738 L60.265625,15.1707163 C61.1248169,14.3117075 61.1248169,12.9055796 60.265625,12.0465098 L55.9696655,7.7503677 C55.1104736,6.8912979 53.7045288,6.8912979 52.8453369,7.7503677 L49.2523193,11.3432627 C46.3623657,9.3905649 43.081665,7.9849258 39.4106445,7.2816787 L39.4106445,2.2826551 C39.4106445,1.0332044 38.3951416,0.0175184 37.1455078,0.0175184 L31.0529785,0.0175184 C29.8032837,0.0175184 28.7878418,1.0332044 28.7878418,2.2826551 L28.7878418,7.2816785 C25.2729492,7.9849256 21.8363037,9.3905647 18.946167,11.3432625 L15.3531494,7.7503675 C14.4940185,6.8912977 13.0880127,6.8912977 12.2288208,7.7503675 L7.9329224,12.0465096 C7.1517334,12.9834603 7.1517334,14.3895882 8.0109864,15.248658 L11.6039429,18.8419817 C9.6512451,21.7320574 8.2453614,25.0125139 7.5422974,28.6837786 L2.543335,28.6837786 C1.2155762,28.6054095 0.2000122,29.6207293 0.2000122,30.8705462 L0.2000122,36.9631957 C0.2000122,38.2126464 1.2155762,39.2283324 2.46521,39.2283324 L7.4641724,39.2283324 C8.1672364,42.7429198 9.5731202,46.1800536 11.5258179,49.0701293 L7.9329224,52.6630248 C7.0736084,53.5220946 7.0736084,54.9281615 7.9329224,55.7872313 L12.2288208,60.0834349 C13.0880127,60.9425047 14.4940186,60.9425047 15.3531494,60.0834349 L18.946167,56.4900511 C21.8361816,58.4427489 25.1166992,59.8488768 28.7878418,60.5516966 L28.7878418,65.550659 C28.7878418,66.8005369 29.8032837,67.8157957 31.0529785,67.8157957 L37.1455078,67.8157957 C38.3951416,67.8157957 39.4106445,66.8005369 39.4106445,65.550659 L39.4106445,60.5516966 C42.925476,59.8488768 46.3623657,58.4427488 49.2523193,56.4900511 L52.8453369,60.0834349 C53.7045288,60.9425047 55.1104736,60.9425047 55.9696655,60.0834349 L60.265625,55.7872313 C61.1248169,54.9281615 61.1248169,53.5220946 60.265625,52.6630248 L56.6726074,49.0701293 C58.6253052,46.1800536 60.031372,42.8991698 60.7341919,39.2283324 L65.7332153,39.2283324 C66.9829712,39.2283324 67.998352,38.2126464 67.998352,36.9631957 L67.998352,30.8705462 C67.9983521,29.6207294 66.9829712,28.6054096 65.7332153,28.6054096 Z M49.1741943,34.3855591 L37.9265747,43.602417 C37.5360718,43.9927979 36.9111938,43.6802979 36.9892578,43.133728 L36.9892578,38.2909546 L19.8053589,38.2909546 C19.336792,38.2909546 18.868103,37.8222656 18.789978,37.2756958 L18.789978,30.2456684 C18.711853,29.8552875 19.180542,29.3865986 19.8053589,29.3865986 L36.9892578,29.3865986 L36.9892578,24.5438252 C36.9892578,24.0751362 37.6140747,23.7626362 37.9265747,24.0751362 L49.1741943,33.2919312 C49.4865723,33.6044312 49.5646973,34.151001 49.1741943,34.3855591 Z" id="Shape" fill-rule="nonzero"></path>
            <path d="M126.736099,40.3998795 L122.752609,38.7596589 C123.377426,35.7916795 123.377426,32.6670285 122.752609,29.6990491 L126.736099,28.0588285 C127.751495,27.6680261 128.142075,26.4965021 127.82962,25.5591051 L125.798813,20.7163355 C125.408234,19.7010443 124.236595,19.3106844 123.299309,19.6231501 L119.393822,21.3412669 C117.675484,18.6857531 115.410332,16.576833 112.988952,14.9366114 L114.629173,10.7966673 C115.019752,9.7813761 114.551163,8.6877477 113.535766,8.2973873 L108.692993,6.2663624 C107.677589,5.876002 106.584076,6.3447001 106.193489,7.3599913 L104.553268,11.34326 C101.585068,10.7183296 98.4607466,10.7183296 95.4926604,11.34326 L93.8523253,7.3599913 C93.4618605,6.3447001 92.2901152,5.9538972 91.3529357,6.2663624 L86.51017,8.2973871 C85.4946518,8.6877475 85.104187,9.859271 85.4165421,10.7966671 L87.0568696,14.7803793 C84.4012452,16.4984961 82.292328,18.7636471 80.6519929,21.1850338 L76.5902787,19.6231499 C75.5749894,19.2323456 74.4813615,19.7010441 74.0908891,20.7163353 L72.0599748,25.5591049 C71.6695024,26.5743961 72.1380922,27.668026 73.1536027,28.0588283 L77.1370927,29.6990489 C76.5121614,32.6670283 76.5121614,35.7916793 77.1370927,38.7596587 L73.1536027,40.3998793 C72.1380921,40.7902411 71.6695024,41.883869 72.0599748,42.8991621 L74.0908891,47.7419317 C74.4813615,48.7576635 75.6531068,49.1480253 76.5902787,48.8355596 L80.5738831,47.195339 C82.2923279,49.8508528 84.5574799,51.95977 86.9788666,53.600437 L85.3385315,57.5837057 C84.9479523,58.598995 85.4166489,59.6926229 86.4320526,60.0834272 L91.2748184,62.1140096 C92.2901153,62.5043676 93.3837433,62.0361135 93.7743225,61.0203817 L95.4145431,57.037113 C98.382637,57.6620405 101.506958,57.6620405 104.475151,57.037113 L106.115379,61.0203817 C106.505959,62.0361135 107.677589,62.4264753 108.614876,62.1140096 L113.457649,60.0834272 C114.473053,59.6926229 114.863518,58.5210989 114.551163,57.5837057 L112.910835,53.600437 C115.566566,51.8818739 117.675484,49.6167219 119.315712,47.195339 L123.299309,48.8355596 C124.314712,49.2259214 125.40834,48.7576635 125.798813,47.7419317 L127.82962,42.8991621 C128.220093,41.8838692 127.751495,40.7902412 126.736099,40.3998795 Z" id="Path"></path>
        </g>
    </g>
</svg>