<?xml version="1.0" encoding="UTF-8"?>
<svg width="52px" height="69px" viewBox="0 0 52 69" version="1.1" xmlns="http://www.w3.org/2000/svg" xmlns:xlink="http://www.w3.org/1999/xlink">
    <!-- Generator: Sketch 52.3 (67297) - http://www.bohemiancoding.com/sketch -->
    <title>benefits-economy</title>
    <desc>Created with Sketch.</desc>
    <g id="Page-1" stroke="none" stroke-width="1" fill="none" fill-rule="evenodd">
        <g id="benefits-economy" fill="#222222">
            <path d="M29.1147156,44.0185318 C28.6730042,43.7501602 28.1742249,43.5534439 27.6177674,43.4283829 C27.0610657,43.3039322 26.3609315,43.2413712 25.5166932,43.2413712 L22.8686219,43.2413712 L22.8686219,51.3010025 L25.113556,51.3010025 C26.207367,51.3010025 27.0898744,51.2002335 27.7619325,50.9986954 C28.4331971,50.7974015 28.9801942,50.4855728 29.4024965,50.0633316 C29.8435976,49.6413345 30.1507875,49.1902237 30.323517,48.7103043 C30.4962465,48.2309342 30.5827943,47.6935807 30.5827943,47.09861 C30.5827943,46.407692 30.4577333,45.8032609 30.2084657,45.2850724 C29.9589539,44.7668839 29.5940857,44.3451309 29.1147156,44.0185318 Z" id="Path"></path>
            <path d="M51.0798645,30.5801163 L27.9975891,1.0264054 C26.9189758,-0.3398055 24.7617493,-0.3398055 23.6833801,1.0264054 L0.6011047,30.5801163 C-0.7651062,32.3779679 0.4573059,34.9663468 2.6863098,34.9663468 L10.5242004,34.9663468 L10.5242004,65.6709386 C10.5242004,67.1807042 11.7466125,68.3315831 13.1848449,68.3315831 L38.3523254,68.3315831 C39.8623352,68.3315831 41.0847473,67.1089268 41.0847473,65.6709386 L41.0847473,34.9663468 L48.9226379,34.9663468 C51.1516418,34.9663467 52.4460754,32.3779678 51.0798645,30.5801163 Z M32.8996887,49.5163345 C32.5830383,50.2840347 32.1465149,50.9461441 31.5900574,51.5026016 C30.8993836,52.1932144 30.078888,52.7114639 29.1289978,53.0569229 C28.1791076,53.4023819 26.9845276,53.5751114 25.5455627,53.5751114 L22.8686218,53.5751114 L22.8686218,55.4748917 L32.2232971,55.4748917 L32.2232971,57.7775059 L22.8686218,57.7775059 L22.8686218,61.0876866 L20.1913757,61.0876866 L20.1913757,57.7775059 L18.2919006,57.7775059 L18.2919006,55.4748917 L20.1913757,55.4748917 L20.1913757,53.6036759 L18.2919006,53.6036759 L18.2919006,51.3010026 L20.1913757,51.3010026 L20.1913757,40.9387589 L25.660614,40.9387589 C26.8694763,40.9387589 27.8912659,41.0395279 28.7261047,41.2408219 C29.5609436,41.442421 30.3044128,41.7638932 30.9568176,42.2052384 C31.7242737,42.7231827 32.3192444,43.3615494 32.7414856,44.1193009 C33.1634827,44.8776017 33.3747864,45.8512345 33.3747864,47.0409318 C33.3747864,47.9237442 33.2163391,48.7491226 32.8996887,49.5163345 Z" id="Shape" fill-rule="nonzero"></path>
        </g>
    </g>
</svg>