<?xml version="1.0" encoding="UTF-8"?>
<svg width="44px" height="44px" viewBox="0 0 44 44" version="1.1" xmlns="http://www.w3.org/2000/svg" xmlns:xlink="http://www.w3.org/1999/xlink">
    <!-- Generator: Sketch 52.3 (67297) - http://www.bohemiancoding.com/sketch -->
    <title>benefits-settings</title>
    <desc>Created with Sketch.</desc>
    <g id="Page-1" stroke="none" stroke-width="1" fill="none" fill-rule="evenodd">
        <g id="benefits-settings" fill="#C64721" fill-rule="nonzero">
            <path d="M1.6057129,9.1387939 L23.3449707,9.1387939 L23.3449707,10.6248779 C23.3449707,12.6712646 25.0100098,14.3360595 27.0563965,14.3360595 L33.0280762,14.3360595 C35.0744629,14.3360595 36.739502,12.6712646 36.739502,10.6248779 L36.739502,9.1387939 L41.8942872,9.1387939 C42.7229005,9.1387939 43.3942872,8.467163 43.3942872,7.6387939 C43.3942872,6.8104248 42.7229005,6.1387939 41.8942872,6.1387939 L36.739502,6.1387939 L36.739502,4.6529541 C36.739502,2.6065674 35.0744629,0.9417725 33.0280762,0.9417725 L27.0563965,0.9417725 C25.0100098,0.9417725 23.3449707,2.6065674 23.3449707,4.6529541 L23.3449707,6.1387939 L1.6057129,6.1387939 C0.7770996,6.1387939 0.1057129,6.8104248 0.1057129,7.6387939 C0.1057129,8.467163 0.7770996,9.1387939 1.6057129,9.1387939 Z M26.3449707,4.6529541 C26.3449707,4.2674561 26.6706543,3.9417725 27.0563965,3.9417725 L33.0280762,3.9417725 C33.4138184,3.9417725 33.739502,4.2674561 33.739502,4.6529541 L33.739502,7.6339722 C33.739502,7.6356201 33.7390137,7.637146 33.7390137,7.638794 C33.7390137,7.640442 33.739502,7.6419678 33.739502,7.6436158 L33.739502,10.624878 C33.739502,11.010376 33.4138184,11.3360596 33.0280762,11.3360596 L27.0563965,11.3360596 C26.6706543,11.3360596 26.3449707,11.010376 26.3449707,10.624878 L26.3449707,4.6529541 Z" id="Shape"></path>
            <path d="M41.8942871,35.3609619 L36.7395019,35.3609619 L36.7395019,33.6539306 C36.7395019,31.7296142 35.1735839,30.1639404 33.2492675,30.1639404 L26.835205,30.1639404 C24.9108886,30.1639404 23.3449706,31.7296142 23.3449706,33.6539306 L23.3449706,35.3609619 L1.6057128,35.3609619 C0.7770995,35.3609619 0.1057128,36.0325928 0.1057128,36.8609619 C0.1057128,37.689331 0.7770995,38.3609619 1.6057128,38.3609619 L23.3449706,38.3609619 L23.3449706,40.0682373 C23.3449706,41.9925537 24.9108886,43.5582275 26.835205,43.5582275 L33.2492675,43.5582275 C35.1735839,43.5582275 36.7395019,41.9925537 36.7395019,40.0682373 L36.7395019,38.3609619 L41.8942871,38.3609619 C42.7229004,38.3609619 43.3942871,37.689331 43.3942871,36.8609619 C43.3942871,36.0325928 42.7229004,35.3609619 41.8942871,35.3609619 Z M33.2492676,40.5582275 L26.8352051,40.5582275 C26.5695801,40.5582275 26.3449707,40.3338623 26.3449707,40.0682373 L26.3449707,33.6539307 C26.3449707,33.3883057 26.5695801,33.1639405 26.8352051,33.1639405 L33.2492676,33.1639405 C33.5148926,33.1639405 33.739502,33.3883057 33.739502,33.6539307 L33.739502,36.8561402 C33.739502,36.8577881 33.7390137,36.859314 33.7390137,36.860962 C33.7390137,36.86261 33.739502,36.8641358 33.739502,36.8657838 L33.739502,40.0682374 C33.739502,40.3338623 33.5148926,40.5582275 33.2492676,40.5582275 Z" id="Shape"></path>
            <path d="M41.8942871,20.7498779 L20.1550293,20.7498779 L20.1550293,19.0428466 C20.1550293,17.1185302 18.5895996,15.5528564 16.6652832,15.5528564 L10.2512207,15.5528564 C8.3269043,15.5528564 6.7609863,17.1185302 6.7609863,19.0428466 L6.7609863,20.7498779 L1.6057129,20.7498779 C0.7770996,20.7498779 0.1057129,21.4215088 0.1057129,22.2498779 C0.1057129,23.078247 0.7770996,23.7498779 1.6057129,23.7498779 L6.7609863,23.7498779 L6.7609863,25.4571533 C6.7609863,27.3814697 8.3269043,28.9471435 10.2512207,28.9471435 L16.6652832,28.9471435 C18.5895996,28.9471435 20.1550293,27.3814697 20.1550293,25.4571533 L20.1550293,23.7498779 L41.8942871,23.7498779 C42.7229004,23.7498779 43.3942871,23.078247 43.3942871,22.2498779 C43.3942871,21.4215088 42.7229004,20.7498779 41.8942871,20.7498779 Z M17.1550293,25.4571533 C17.1550293,25.7227783 16.9309082,25.9471435 16.6652832,25.9471435 L10.2512207,25.9471435 C9.9855957,25.9471435 9.7609863,25.7227783 9.7609863,25.4571533 L9.7609863,22.2546997 C9.7609863,22.2530518 9.7614746,22.2515259 9.7614746,22.2498779 C9.7614746,22.2482299 9.7609863,22.2467041 9.7609863,22.2450561 L9.7609863,19.0428466 C9.7609863,18.7772216 9.9855957,18.5528564 10.2512207,18.5528564 L16.6652832,18.5528564 C16.9309082,18.5528564 17.1550293,18.7772216 17.1550293,19.0428466 L17.1550293,25.4571533 Z" id="Shape"></path>
        </g>
    </g>
</svg>