<?xml version="1.0" encoding="UTF-8"?>
<svg width="66px" height="56px" viewBox="0 0 66 56" version="1.1" xmlns="http://www.w3.org/2000/svg" xmlns:xlink="http://www.w3.org/1999/xlink">
    <!-- Generator: Sketch 52.3 (67297) - http://www.bohemiancoding.com/sketch -->
    <title>benefits-efficiency</title>
    <desc>Created with Sketch.</desc>
    <g id="Page-1" stroke="none" stroke-width="1" fill="none" fill-rule="evenodd">
        <g id="benefits-efficiency" fill="#222222">
            <path d="M32.7372589,8.3336563 C32.7177276,8.230629 32.7143097,8.1251602 32.6742706,8.0260391 C32.6339874,7.9283828 32.5580597,7.8458633 32.4972686,7.7555313 C32.440628,7.6686172 32.4037627,7.5734024 32.3288116,7.496254 C32.3256378,7.492836 32.3202667,7.4918595 32.3168487,7.4884415 C32.3136749,7.4850235 32.3124542,7.4796524 32.3092803,7.4767227 L26.1308135,1.4044571 C26.1308135,1.4044571 26.1295928,1.4034805 26.1286162,1.402504 L26.1198271,1.3937149 C26.1176298,1.3912735 26.114456,1.3902969 26.1122587,1.3883438 C25.9623564,1.2423477 25.7853544,1.1261368 25.5876005,1.0470352 C25.5756376,1.0416641 25.5626982,1.0406875 25.5507353,1.0353164 C25.3715361,0.9679336 25.1801298,0.9264297 24.9782255,0.9264297 L24.9640653,0.9264297 C24.9640653,0.9264297 24.9630887,0.9264297 24.961868,0.9264297 L2.3529813,0.9264297 C1.4523465,0.9264297 0.7235868,1.6554336 0.7235868,2.5558242 L0.7235868,14.7218398 C0.7235868,15.6222304 1.4535673,16.3512343 2.3529813,16.3512343 L24.9770047,16.3512343 C25.1835477,16.3512343 25.3791043,16.3087538 25.5605008,16.237953 C25.5702664,16.2350233 25.5810086,16.2325819 25.5919949,16.2281874 C25.7863308,16.1490858 25.9623562,16.0328749 26.111282,15.8883436 C26.1132351,15.8863905 26.1166531,15.8863905 26.1198269,15.8829725 L26.128616,15.8741834 C26.128616,15.8741834 26.1295926,15.8732068 26.1308133,15.8722303 L32.3092801,9.8009412 C32.3124539,9.7980115 32.3136746,9.7921521 32.3168485,9.7892224 C32.3202665,9.7858044 32.3256376,9.7848279 32.3288114,9.7814099 C32.4037626,9.7042615 32.4406278,9.6085583 32.4972684,9.5221326 C32.5568387,9.4318006 32.6339872,9.349281 32.6742704,9.2516248 C32.7143095,9.1525037 32.7177274,9.047035 32.7372587,8.9440076 C32.75679,8.8419568 32.7936552,8.743324 32.7936552,8.6388318 C32.7936552,8.5343396 32.7567902,8.4357071 32.7372589,8.3336563 Z" id="Path"></path>
            <path d="M45.966507,27.5250626 C45.9459992,27.4283829 45.9447785,27.3297501 45.9079132,27.2374649 C45.8622589,27.1256485 45.7787628,27.0323868 45.7069855,26.9308243 C45.6547394,26.8570938 45.6264191,26.7726212 45.560257,26.7062149 C45.5570832,26.7027969 45.5526886,26.7027969 45.5504914,26.6998672 C45.5460969,26.6964492 45.5451203,26.6901016 45.5407258,26.6866836 L39.3524934,20.6036758 C39.3490754,20.6007461 39.3437043,20.5992813 39.3405305,20.5963516 C39.1916047,20.4518203 39.0155793,20.336586 38.8202668,20.2569961 C38.8070832,20.251625 38.796341,20.2506484 38.7831574,20.2452773 C38.6039582,20.1769179 38.4118195,20.135414 38.2096711,20.135414 L2.3529816,20.135414 C1.4523468,20.135414 0.7235871,20.8644179 0.7235871,21.7648085 L0.7235871,33.9298476 C0.7235871,34.8302382 1.4535676,35.5602187 2.3529816,35.5602187 L38.2096711,35.5602187 C38.4159699,35.5602187 38.6117707,35.5177382 38.7929231,35.4474257 C38.8039094,35.4430312 38.8148958,35.4415663 38.8246614,35.4376601 C39.0189973,35.3580703 39.193802,35.2418593 39.3427278,35.0973281 C39.3449251,35.0943984 39.3490755,35.0943984 39.3524934,35.0909804 L45.5407258,29.0089491 C45.5451203,29.0060194 45.5460969,28.9991835 45.5504914,28.9962538 C45.5526887,28.9928358 45.5570832,28.9928358 45.560257,28.9894179 C45.6264191,28.9230116 45.6547394,28.838539 45.7069855,28.7648085 C45.7775421,28.6637343 45.8622589,28.5690077 45.9079132,28.4581679 C45.9447784,28.3658827 45.9459991,28.2672499 45.966507,28.1705702 C45.9894562,28.0616835 46.027298,27.9576796 46.027298,27.8478163 C46.027298,27.7384415 45.9894562,27.6339493 45.966507,27.5250626 Z" id="Path"></path>
            <path d="M65.4167023,47.3785782 C65.3961945,47.2794571 65.3949738,47.1798477 65.357132,47.0851212 C65.3124543,46.9767228 65.2299347,46.8844376 65.1615754,46.7853165 C65.1083527,46.7106095 65.0778352,46.6236954 65.0104524,46.5548477 C65.0072786,46.551918 65.002884,46.5509414 64.9997102,46.5475235 C64.9953157,46.543129 64.994095,46.5377579 64.9899446,46.5333633 L58.7982942,40.4503555 C58.5592805,40.2150039 58.2616731,40.0997696 57.9564973,40.0411758 C57.8925325,40.0245742 57.8271028,40.013832 57.7599641,40.005043 C57.7099153,40.001625 57.6610871,39.9874649 57.6100618,39.9899063 C57.5893098,39.9889297 57.5697786,39.9835586 57.5480501,39.9835586 L1.8195345,39.9835586 C0.9191439,39.9835586 0.19014,40.7130508 0.19014,41.6124649 L0.19014,53.7775059 C0.19014,54.67692 0.9191439,55.4069004 1.8195345,55.4069004 L57.5502474,55.4069004 C57.5741732,55.4069004 57.598099,55.4005527 57.620804,55.3990879 C57.6337435,55.3990879 57.6447298,55.4069004 57.6576692,55.4069004 C57.6979524,55.4069004 57.7360383,55.3863926 57.7760774,55.3839512 C57.8380891,55.3751621 57.8966829,55.3644199 57.9555208,55.3502598 C58.2616731,55.291666 58.5605013,55.1754551 58.7982942,54.9410801 L64.9899446,48.8580704 C64.994095,48.8536759 64.9953157,48.8483048 64.9997102,48.8439102 C65.002884,48.8404922 65.0072786,48.8395157 65.0104524,48.8360977 C65.0778352,48.7677383 65.1083528,48.6808243 65.1615754,48.6061172 C65.2299348,48.5060195 65.3124543,48.4137344 65.357132,48.3063125 C65.3961945,48.2140273 65.3971711,48.1139297 65.4167023,48.0148086 C65.4384308,47.9083633 65.4765168,47.8053359 65.4765168,47.6969375 C65.4765167,47.5880508 65.4384308,47.4850235 65.4167023,47.3785782 Z" id="Path"></path>
        </g>
    </g>
</svg>