<?xml version="1.0" encoding="UTF-8"?>
<svg width="69px" height="52px" viewBox="0 0 69 52" version="1.1" xmlns="http://www.w3.org/2000/svg" xmlns:xlink="http://www.w3.org/1999/xlink">
    <!-- Generator: Sketch 52.3 (67297) - http://www.bohemiancoding.com/sketch -->
    <title>benefits-energy</title>
    <desc>Created with Sketch.</desc>
    <g id="Page-1" stroke="none" stroke-width="1" fill="none" fill-rule="evenodd">
        <g id="benefits-energy" transform="translate(0.000000, -2.000000)" fill="#C64721">
            <g id="Group" transform="translate(14.000000, 0.000000)">
                <path d="M23.3936691,16.9723816 L29.2871475,4.504509 C29.6770057,3.6778641 29.0739403,2.7266846 28.159975,2.7266846 L15.9228506,2.7266846 C14.8146934,2.7266846 13.8060512,3.3661804 13.3333583,4.3684616 L2.5893512,27.1497498 C2.1994927,27.9763947 2.8025582,28.9275742 3.7165227,28.9275742 L15.5765495,28.9275742 C16.4905138,28.9275742 17.0935793,29.8787613 16.703721,30.7054062 L6.6679225,51.9850235 C6.0592746,53.2755852 7.7454158,54.4104576 8.7119076,53.3607483 L37.108411,20.8405762 C37.8437759,20.041893 37.2772571,18.7502137 36.1915962,18.7502137 L24.5208416,18.7502137 C23.6068764,18.7502136 23.0038109,17.7990265 23.3936691,16.9723816 Z" id="Path"></path>
            </g>
            <g id="Group" transform="translate(0.000000, 8.000000)">
                <path d="M23.6167603,33.0437622 L6.0472413,33.0437622 C4.7994386,33.0437622 3.7842408,32.0286255 3.7842408,30.7814941 L3.7842408,6.555542 C3.7842408,5.3084107 4.7994386,4.2932739 6.0472413,4.2932739 L21.3846436,4.2932739 L22.9901124,0.8890991 L6.0472413,0.8890991 C2.9228517,0.8890991 0.3807984,3.4311523 0.3807984,6.555542 L0.3807984,30.7814941 C0.3807984,33.9058837 2.9228516,36.4472656 6.0472413,36.4472656 L22.0115967,36.4472656 L23.6167603,33.0437622 Z" id="Path"></path>
                <path d="M64.6416016,10.6646729 C66.559082,10.6646729 68.1192017,12.2247925 68.1192017,14.1422118 L68.1192017,23.1948241 C68.1192017,25.1115722 66.5590821,26.6723632 64.6416016,26.6723632 L61.5178833,26.6723632 L61.5178833,30.7814941 C61.5178833,33.9058838 58.9758911,36.4472656 55.8514404,36.4472656 L33.1503296,36.4472656 L36.1222534,33.0437622 L55.8514404,33.0437622 C57.0993042,33.0437622 58.1144409,32.0286254 58.1144409,30.7814941 L58.1144409,6.555542 C58.1144409,5.3084106 57.0993042,4.2932739 55.8514404,4.2932739 L41.8176269,4.2932739 L43.4268188,0.8890991 L55.8514404,0.8890991 C58.9758911,0.8890991 61.5178833,3.4311524 61.5178833,6.555542 L61.5178833,10.6646729 L64.6416016,10.6646729 Z M65.8839111,23.1948242 L65.8839111,14.1422119 C65.8839111,13.4573975 65.3271484,12.8999634 64.6416015,12.8999634 L61.5178832,12.8999634 L61.5178832,24.4371338 L64.6416015,24.4371338 C65.3271484,24.4371338 65.8839111,23.8796997 65.8839111,23.1948242 Z" id="Shape" fill-rule="nonzero"></path>
            </g>
        </g>
    </g>
</svg>