<?xml version="1.0" encoding="UTF-8"?>
<svg width="76px" height="76px" viewBox="0 0 76 76" version="1.1" xmlns="http://www.w3.org/2000/svg" xmlns:xlink="http://www.w3.org/1999/xlink">
    <!-- Generator: Sketch 52.3 (67297) - http://www.bohemiancoding.com/sketch -->
    <title>benefits-city-6</title>
    <desc>Created with Sketch.</desc>
    <g id="Page-1" stroke="none" stroke-width="1" fill="none" fill-rule="evenodd">
        <g id="benefits-city-6" fill="#222222">
            <path d="M20.4580116,34.5473709 L11.682167,34.5473709 L11.682167,31.9616318 C11.682167,30.6295834 10.1934089,29.9243832 9.0964279,30.7079411 L1.4175644,36.5846215 C0.6340065,37.2114678 0.6340065,38.4651604 1.4175644,39.0920068 L9.0964279,45.047043 C10.1150513,45.8306009 11.682167,45.1253969 11.682167,43.7933504 L11.682167,41.2076113 L20.4580116,41.2076113 C21.006504,41.2076113 21.3982811,40.7374804 21.3982811,40.1889879 L21.3982811,35.4876425 C21.3982811,35.0175037 21.0065041,34.5473709 20.4580116,34.5473709 Z" id="Path"></path>
            <path d="M74.6801834,36.6629772 L67.0013199,30.7862949 C65.9826965,30.002737 64.4155808,30.707941 64.4155808,32.0399856 L64.4155808,34.6257247 L55.7181016,34.6257247 C55.1696092,34.6257247 54.7778321,35.0958575 54.7778321,35.5659942 L54.7778321,40.2673377 C54.7778321,40.8158301 55.247963,41.2859649 55.7181016,41.2859649 L64.4939424,41.2859649 L64.4939424,43.871704 C64.4939424,45.2037505 65.9826967,45.9089507 67.0796815,45.1253928 L74.758545,39.1703566 C75.5421066,38.5435143 75.5421066,37.2898216 74.6801834,36.6629772 Z" id="Path"></path>
            <g id="Group" transform="translate(3.000000, 1.000000)">
                <path d="M68.4906921,0.6660843 L60.9992752,1.6620545 C60.0033035,1.791965 59.5269699,3.0477526 60.2631226,3.7839024 L61.6921158,5.2129011 L56.8854904,10.0195303 C56.5823669,10.3226504 56.6256714,10.7989826 56.8854904,11.0588017 L59.4836731,13.6569815 C59.7867889,13.960103 60.306427,13.960103 60.566246,13.7002859 L65.4161758,8.8503508 L66.8451767,10.2793493 C67.5813293,11.015501 68.7938156,10.5824694 68.9670258,9.5431967 L69.919693,2.0084734 C70.0063019,1.2290196 69.3134537,0.5361722 68.4906921,0.6660843 Z" id="Path"></path>
                <path d="M1.9007225,70.1140518 L9.3921432,69.1180801 C10.3881149,68.9881668 10.8644447,67.7323799 10.1282958,66.996231 L8.6992988,65.567234 L13.505928,60.7606048 C13.8090477,60.4574851 13.7657432,59.9811515 13.5059242,59.7213325 L10.9077453,57.1231536 C10.6046218,56.8200301 10.0849876,56.8200301 9.8251724,57.0798492 L4.975235,61.9297828 L3.546238,60.5007858 C2.8100854,59.7646332 1.5976029,60.1976661 1.4243889,61.2369384 L0.4717217,68.7716598 C0.3851166,69.5511169 1.077961,70.2439651 1.9007225,70.1140518 Z" id="Path"></path>
                <path d="M0.4717255,1.6220555 L1.4676972,9.1134762 C1.5976067,10.1094469 2.8533936,10.5857791 3.5895424,9.8496293 L5.0185433,8.4206304 L9.8251725,13.2272596 C10.1282922,13.5303793 10.604622,13.4870777 10.864441,13.2272586 L13.4626237,10.6290783 C13.7657434,10.3259567 13.7657434,9.806322 13.5059281,9.5465049 L8.6559907,4.6965698 L10.0849916,3.2675711 C10.8211404,2.5314198 10.3881113,1.318936 9.348839,1.1457232 L1.8141138,0.1930552 C1.0346603,0.1064489 0.3418121,0.7992961 0.4717255,1.6220555 Z" id="Path"></path>
                <path d="M67.5207291,65.8130646 L66.5247574,58.3216439 C66.3948517,57.3256722 65.139061,56.8493424 64.4029083,57.5854913 L62.9739151,59.0144883 L58.1672821,54.2078591 C57.8641663,53.9047394 57.3878326,53.9480439 57.1280136,54.2078629 L54.5298309,56.8060418 C54.2267074,57.1091653 54.2267074,57.6287995 54.4865265,57.8886147 L59.3364639,62.7385521 L57.907463,64.1675491 C57.1713104,64.9037017 57.6043472,66.1161842 58.6436156,66.2893982 L66.178337,67.2420654 C66.9577942,67.3286705 67.6506424,66.6358261 67.5207291,65.8130646 Z" id="Path"></path>
            </g>
            <path d="M32.1330185,11.5107799 L34.7187576,11.5107799 L34.7187576,20.2866245 C34.7187576,20.835115 35.1888885,21.2268949 35.6590271,21.2268949 L40.3603745,21.2268949 C40.9088669,21.2268949 41.300644,20.7567592 41.300644,20.2866245 L41.300644,11.5107799 L43.8863831,11.5107799 C45.2184296,11.5107799 45.9236298,10.0220209 45.1400757,8.9250398 L39.1850357,1.2461763 C38.5581894,0.4626186 37.3044968,0.4626186 36.6776504,1.2461763 L30.7226181,8.9250398 C30.095768,10.0220208 30.8793259,11.5107799 32.1330185,11.5107799 Z" id="Path"></path>
            <path d="M44.0430908,64.3225517 L41.4573517,64.3225517 L41.4573517,55.546711 C41.4573517,54.9982224 40.9872208,54.6064453 40.5170822,54.6064453 L35.8157348,54.6064453 C35.26725,54.6064453 34.8754691,55.0765762 34.8754691,55.546711 L34.8754691,64.3225518 L32.28973,64.3225518 C30.9576797,64.3225518 30.2524795,65.8113137 31.0360374,66.9082948 L36.9910736,74.5871583 C37.6179199,75.37072 38.8716125,75.37072 39.4984589,74.5871583 L45.4534912,66.9082948 C46.0803452,65.8113136 45.2967834,64.3225517 44.0430908,64.3225517 Z" id="Path"></path>
            <path d="M47.664917,34.5129738 L46.5095215,34.5129738 C46.3192673,33.8421898 46.051445,33.1975365 45.7080918,32.5851345 L46.5270768,31.7661514 C46.8459321,31.4472942 46.8459321,30.9304275 46.5270768,30.6115703 L44.2179185,28.3020038 C44.0648194,28.1489028 43.85701,28.0627593 43.6406251,28.0627593 C43.4242478,28.0627593 43.2164384,28.1489028 43.0633393,28.3020038 L42.2443543,29.1209869 C41.6323624,28.7776355 40.9872971,28.5094032 40.3161088,28.3195591 L40.3161088,27.1641617 C40.3161088,26.7134361 39.9503022,26.3476277 39.4995729,26.3476277 L36.2334367,26.3476277 C35.7827073,26.3476277 35.4169008,26.7134362 35.4169008,27.1641617 L35.4169008,28.3195591 C34.7461168,28.5094032 34.1010553,28.7776337 33.4890634,29.1209869 L32.6700784,28.3020038 C32.3512193,27.9835548 31.8339464,27.9831466 31.5154992,28.3020038 L29.2063371,30.6115703 C28.8874818,30.9304275 28.8874818,31.4472942 29.2063371,31.7661514 L30.0253221,32.5851345 C29.6819688,33.1975365 29.4137384,33.8421898 29.2238924,34.5129738 L28.0680925,34.5129738 C27.6173631,34.5129738 27.2515566,34.8787804 27.2515566,35.3295078 L27.2515566,38.5956459 C27.2515566,39.0463715 27.6173632,39.4121818 28.0680925,39.4121818 L29.223488,39.4121818 C29.4133302,40.082962 29.6815645,40.7280235 30.0249177,41.3400192 L29.2059327,42.1594124 C28.8870736,42.4782677 28.8870736,42.9951325 29.2059327,43.3139916 L31.515091,45.6231499 C31.8339501,45.9420052 32.3508149,45.9420052 32.6696702,45.6231499 L33.4886552,44.8041649 C34.1006471,45.1475182 34.7457086,45.4153404 35.4164964,45.6055946 L35.4164964,46.7609901 C35.4164964,47.2117195 35.782303,47.577526 36.2330247,47.577526 L39.4991685,47.577526 C39.9498902,47.577526 40.3156968,47.2117194 40.3156968,46.7609901 L40.3156968,45.6055946 C40.9864808,45.4153404 41.6315461,45.1475181 42.243538,44.8041649 L43.0629273,45.6231499 C43.3817902,45.9420052 43.8986512,45.9420052 44.2175141,45.6231499 L46.5266724,43.3139916 C46.8455277,42.9951325 46.8455277,42.4782677 46.5266724,42.1594124 L45.7076874,41.3400192 C46.0510407,40.7280235 46.3188629,40.082962 46.5091171,39.4121818 L47.664917,39.4121818 C48.1156464,39.4121818 48.4814529,39.0463714 48.4814529,38.5956459 L48.4814529,35.3295078 C48.4814529,34.8787804 48.1156464,34.5129738 47.664917,34.5129738 Z M42.7657089,36.9625759 C42.7657089,39.6640816 40.5680084,41.8617821 37.8665085,41.8617821 C35.1650009,41.8617821 32.9672966,39.6640816 32.9672966,36.9625759 C32.9672966,34.2610702 35.1650009,32.0633697 37.8665085,32.0633697 C40.5680084,32.0633698 42.7657089,34.2610722 42.7657089,36.9625759 Z" id="Shape" fill-rule="nonzero"></path>
        </g>
    </g>
</svg>