<?xml version="1.0" encoding="UTF-8"?>
<svg width="68px" height="68px" viewBox="0 0 68 68" version="1.1" xmlns="http://www.w3.org/2000/svg" xmlns:xlink="http://www.w3.org/1999/xlink">
    <!-- Generator: Sketch 52.3 (67297) - http://www.bohemiancoding.com/sketch -->
    <title>benefits-autonomy</title>
    <desc>Created with Sketch.</desc>
    <g id="Page-1" stroke="none" stroke-width="1" fill="none" fill-rule="evenodd">
        <g id="benefits-autonomy" fill="#222222">
            <path d="M64.5705261,26.4823647 L60.9460983,26.4823647 C60.3492889,24.3781472 59.5091324,22.355896 58.4320526,20.4348221 L61.0011673,17.8656998 C62.0014038,16.8654633 62.0014038,15.244072 61.0011673,14.2438355 L53.7574387,6.9988251 C53.2771683,6.5185547 52.6252823,6.2483216 51.9465027,6.2483216 C51.2677155,6.2483216 50.6158371,6.5185548 50.1355667,6.9988251 L47.566452,9.5679398 C45.6466522,8.49086 43.6231231,7.6494294 41.5176239,7.0538941 L41.5176239,3.4294663 C41.5176239,2.0155564 40.3701019,0.8680344 38.956192,0.8680344 L28.7104568,0.8680344 C27.2965469,0.8680344 26.1490249,2.0155564 26.1490249,3.4294663 L26.1490249,7.0538941 C24.0448074,7.6494294 22.0212783,8.49086 20.1014785,9.5679398 L17.5323638,6.9988251 C16.5321197,5.9998627 14.9094543,5.998581 13.9104919,6.9988251 L6.6667633,14.2438355 C5.6665192,15.2440796 5.6665192,16.8654633 6.6667633,17.8656998 L9.2358856,20.4348221 C8.1587982,22.355896 7.3173675,24.3781471 6.7218323,26.4823647 L3.0961304,26.4823647 C1.6822205,26.4823647 0.5346985,27.6298867 0.5346985,29.0438004 L0.5346985,39.2895318 C0.5346985,40.7034417 1.6822205,41.8509637 3.0961304,41.8509637 L6.7205506,41.8509637 C7.3160859,43.955185 8.1575165,45.9787141 9.2346039,47.8985101 L6.6654816,50.4689065 C5.6652527,51.4691468 5.6652527,53.0905343 6.6654816,54.0907746 L13.9092255,61.3345051 C14.9094544,62.3347416 16.5308533,62.3347416 17.5310822,61.3345051 L20.1002045,58.7653866 C22.0199967,59.8424683 24.0435334,60.682621 26.1477509,61.2794342 L26.1477509,64.9038658 C26.1477509,66.3177757 27.2952729,67.4652977 28.7091828,67.4652977 L38.954918,67.4652977 C40.3688279,67.4652977 41.5163499,66.3177757 41.5163499,64.9038658 L41.5163499,61.2794342 C43.6205674,60.682621 45.6440965,59.8424683 47.5638963,58.7653866 L50.1342927,61.3345051 C51.1345292,62.3347416 52.7559205,62.3347416 53.756157,61.3345051 L60.9998856,54.0907746 C62.0001297,53.0905343 62.0001297,51.4691468 60.9998856,50.4689065 L58.4307709,47.8985101 C59.5078507,45.9787141 60.3480072,43.9551851 60.9448166,41.8509637 L64.5705261,41.8509637 C65.9844436,41.8509637 67.1319656,40.7034417 67.1319656,39.2895318 L67.1319656,29.0438004 C67.1319656,27.6298866 65.9844437,26.4823647 64.5705261,26.4823647 Z M49.2019272,34.1666641 C49.2019272,42.6411667 42.3078308,49.5352669 33.8333283,49.5352669 C25.3588258,49.5352669 18.464737,42.6411667 18.464737,34.1666641 C18.464737,25.6921615 25.3588257,18.7980652 33.8333283,18.7980652 C42.3078309,18.7980652 49.2019272,25.6921616 49.2019272,34.1666641 Z" id="Shape" fill-rule="nonzero"></path>
            <path d="M41.3831558,24.1911621 C40.115242,23.5572052 38.5796661,24.0733375 37.9457092,25.3374061 L31.8507766,37.5285453 L29.2406768,34.9184417 C28.241722,33.9182052 26.6177673,33.9182052 25.6188125,34.9184417 C24.6185684,35.918682 24.6185684,37.5400733 25.6188125,38.5403098 L30.7416763,43.6631774 C31.2257919,44.1460074 31.8789596,44.4123992 32.5526123,44.4123992 C32.6883697,44.4123992 32.8254013,44.400875 32.9624405,44.3803786 C33.7756958,44.2471846 34.474968,43.7336158 34.8438187,42.9972037 L42.5281144,27.6286009 C43.1607895,26.3619766 42.6484985,24.8238373 41.3831558,24.1911621 Z" id="Path"></path>
        </g>
    </g>
</svg>