<?xml version="1.0" encoding="UTF-8"?>
<svg width="75px" height="75px" viewBox="0 0 75 75" version="1.1" xmlns="http://www.w3.org/2000/svg" xmlns:xlink="http://www.w3.org/1999/xlink">
    <!-- Generator: Sketch 52.3 (67297) - http://www.bohemiancoding.com/sketch -->
    <title>benefits-adapt</title>
    <desc>Created with Sketch.</desc>
    <g id="Page-1" stroke="none" stroke-width="1" fill="none" fill-rule="evenodd">
        <g id="benefits-adapt" fill="#C64721">
            <path d="M37.2501831,17.0571289 C26.1155395,17.0571289 17.0571289,26.1155395 17.0571289,37.2501831 C17.0571289,48.3844604 26.1155395,57.4428711 37.2501831,57.4428711 C48.3848877,57.4428711 57.4432373,48.3844605 57.4432373,37.2501831 C57.4432373,26.1155396 48.3848877,17.0571289 37.2501831,17.0571289 Z M20.9227295,37.2501831 C20.9227295,28.2472534 28.2473145,20.9227295 37.2501831,20.9227295 C41.807373,20.9227295 45.9296875,22.8040161 48.8944092,25.8251343 L25.6721802,48.7477417 C22.7392578,45.7946167 20.9227295,41.7312622 20.9227295,37.2501831 Z" id="Shape" fill-rule="nonzero"></path>
            <path d="M37.3874512,63.9631958 C36.3197632,63.9631958 35.4546509,64.8283691 35.4546509,65.8959961 L35.4546509,72.2063599 C35.4546509,73.2740479 36.3197632,74.1391602 37.3874512,74.1391602 C38.4550782,74.1391602 39.3202515,73.2740479 39.3202515,72.2063599 L39.3202515,65.8959961 C39.3202515,64.8283691 38.4550781,63.9631958 37.3874512,63.9631958 Z" id="Path"></path>
            <path d="M58.9702148,56.041748 C58.2152099,55.2874755 56.991455,55.2874755 56.2363281,56.041748 C55.4816894,56.7967529 55.4816894,58.0205078 56.2363281,58.7755737 L60.6984863,63.2376709 C61.0760498,63.6148071 61.5708008,63.8035889 62.0654297,63.8035889 C62.5600586,63.8035889 63.0548096,63.6148072 63.4323731,63.2376709 C64.1870118,62.482666 64.1870118,61.2589111 63.4323731,60.5038452 L58.9702148,56.041748 Z" id="Path"></path>
            <path d="M72.2062988,35.1797485 L65.8959961,35.1797485 C64.8283691,35.1797485 63.9631348,36.0449218 63.9631348,37.1125488 C63.9631348,38.1802368 64.8283692,39.0453491 65.8959961,39.0453491 L72.2062988,39.0453491 C73.2740478,39.0453491 74.1391601,38.1802368 74.1391601,37.1125488 C74.1391602,36.0449219 73.2740479,35.1797485 72.2062988,35.1797485 Z" id="Path"></path>
            <path d="M37.1125488,10.5368042 C38.1802368,10.5368042 39.0453491,9.6716309 39.0453491,8.6040039 L39.0453491,2.2936401 C39.0453491,1.2259521 38.1802368,0.3608398 37.1125488,0.3608398 C36.0449218,0.3608398 35.1797485,1.2259521 35.1797485,2.2936401 L35.1797485,8.6040039 C35.1797485,9.6716309 36.0449219,10.5368042 37.1125488,10.5368042 Z" id="Path"></path>
            <path d="M15.5302124,18.458252 C15.9077148,18.8353882 16.4024048,19.02417 16.8970947,19.02417 C17.3917846,19.02417 17.8865356,18.8353883 18.2640381,18.458252 C19.0186768,17.7032471 19.0186768,16.4794922 18.2640381,15.7244263 L13.8018799,11.2623291 C13.046875,10.5080566 11.8230591,10.5080566 11.0680542,11.2623291 C10.3134155,12.017334 10.3134155,13.2410889 11.0680542,13.9961548 L15.5302124,18.458252 Z" id="Path"></path>
            <path d="M8.6040039,35.4546509 L2.2936401,35.4546509 C1.2259521,35.4546509 0.3608398,36.3197632 0.3608398,37.3874512 C0.3608398,38.4550782 1.2259521,39.3202515 2.2936401,39.3202515 L8.6040039,39.3202515 C9.6716309,39.3202515 10.5368042,38.4550782 10.5368042,37.3874512 C10.5368042,36.3197632 9.6716309,35.4546509 8.6040039,35.4546509 Z" id="Path"></path>
            <path d="M15.7244263,56.2363892 L11.2623291,60.6984864 C10.5076904,61.4535523 10.5076904,62.6773072 11.2623291,63.4323121 C11.6398315,63.8094483 12.1345215,63.9982301 12.6292114,63.9982301 C13.1239624,63.9982301 13.6186523,63.8094484 13.9961548,63.4323121 L18.458252,58.9702149 C19.2128907,58.215149 19.2128907,56.9913941 18.458252,56.2363892 C17.7032471,55.4821167 16.4794922,55.4821167 15.7244263,56.2363892 Z" id="Path"></path>
            <path d="M57.4086914,18.829895 C57.9033203,18.829895 58.3980713,18.6411133 58.7756348,18.2640381 L63.2376709,13.8018799 C63.9923096,13.046875 63.9923096,11.8230591 63.2376709,11.0680542 C62.482666,10.3138428 61.2589111,10.3138428 60.5039063,11.0680542 L56.0417481,15.5302124 C55.2871094,16.2852173 55.2871094,17.5089722 56.0417481,18.2640381 C56.4191895,18.6411133 56.9139404,18.829895 57.4086914,18.829895 Z" id="Path"></path>
        </g>
    </g>
</svg>