<?xml version="1.0" encoding="UTF-8"?>
<svg width="60px" height="72px" viewBox="0 0 60 72" version="1.1" xmlns="http://www.w3.org/2000/svg" xmlns:xlink="http://www.w3.org/1999/xlink">
    <!-- Generator: Sketch 52.3 (67297) - http://www.bohemiancoding.com/sketch -->
    <title>benefits-city-3</title>
    <desc>Created with Sketch.</desc>
    <g id="Page-1" stroke="none" stroke-width="1" fill="none" fill-rule="evenodd">
        <g id="benefits-city-3" fill="#222222">
            <path d="M30.0833664,0.3703423 C13.5651741,0.3703423 0.1745491,13.7609063 0.1745491,30.2790947 C0.1745491,40.0250664 4.8383675,48.6794243 12.0533943,54.1399345 L5.3941536,65.691021 C4.3322029,67.5324555 4.9646492,69.8860321 6.8065682,70.9479828 C7.4122811,71.2971039 8.0729256,71.4629974 8.7250863,71.4629974 C10.0562631,71.4629974 11.351246,70.7717743 12.0635873,69.5355072 L18.7397348,57.9551201 C22.2386362,59.390789 26.0671884,60.1879082 30.0833665,60.1879082 C46.601555,60.1879082 59.9921189,46.7972832 59.9921189,30.2790947 C59.9921189,13.7609062 46.6015549,0.3703423 30.0833664,0.3703423 Z M30.0833664,51.4277763 C18.4032478,51.4277763 8.9346809,41.9592094 8.9346809,30.2790947 C8.9346809,18.59898 18.4032478,9.1304131 30.0833664,9.1304131 C41.763485,9.1304131 51.232048,18.5989799 51.232048,30.2790947 C51.232048,41.9592095 41.7634811,51.4277763 30.0833664,51.4277763 Z" id="Shape" fill-rule="nonzero"></path>
            <path d="M33.3364258,24.8979225 L36.6711121,17.8432712 C36.8917008,17.375534 36.5504685,16.8373298 36.0333252,16.8373298 L29.1092377,16.8373298 C28.4822159,16.8373298 27.9114991,17.1991729 27.6440354,17.7662916 L21.5647927,30.6565437 C21.3442002,31.1242809 21.6854287,31.6624851 22.2025758,31.6624851 L28.913292,31.6624851 C29.4304352,31.6624851 29.7716675,32.2006912 29.5510712,32.6684284 L23.8725548,44.7089958 C23.5281639,45.4392319 24.4822273,46.0813713 25.0290947,45.4874191 L41.0965881,27.0866489 C41.5126724,26.6347332 41.1921234,25.9038639 40.5778274,25.9038639 L33.974205,25.9038639 C33.4570618,25.9038639 33.1158295,25.3656597 33.3364258,24.8979225 Z" id="Path"></path>
        </g>
    </g>
</svg>