<?xml version="1.0" encoding="UTF-8"?>
<svg width="68px" height="59px" viewBox="0 0 68 59" version="1.1" xmlns="http://www.w3.org/2000/svg" xmlns:xlink="http://www.w3.org/1999/xlink">
    <!-- Generator: Sketch 52.3 (67297) - http://www.bohemiancoding.com/sketch -->
    <title>benefits-data</title>
    <desc>Created with Sketch.</desc>
    <g id="Page-1" stroke="none" stroke-width="1" fill="none" fill-rule="evenodd">
        <g id="benefits-data" fill="#222222" fill-rule="nonzero">
            <path d="M8.6155701,0.2590179 C3.9911652,0.2590179 0.2546845,4.2112731 0.2546845,9.189331 C0.2546845,14.0494537 3.813675,17.9384918 8.285965,18.1196441 C8.3952942,18.1196441 8.5052796,18.0899123 8.6155701,18.0899123 L59.0511017,18.0899123 C59.161377,18.0899123 59.2712784,18.1157836 59.3806915,18.1196441 C63.8529892,17.9384918 67.4119796,14.0494537 67.4119796,9.189331 C67.4119796,4.2112731 63.6753921,0.2590179 59.051094,0.2590179 L8.6155548,0.2590179 L8.6155701,0.2590179 Z M9.6644745,4.2446365 C12.4003906,4.2446365 14.6689911,6.4919662 14.6689911,9.2192459 C14.6689911,11.9465179 12.4003906,14.1339111 9.6644745,14.1339111 C6.9284668,14.1339111 4.6898651,11.9465179 4.6898651,9.2192459 C4.6898651,6.4919662 6.9284668,4.2446365 9.6644745,4.2446365 Z M9.6644745,5.683075 C7.7071381,5.683075 6.1283112,7.2681351 6.1283112,9.219246 C6.1283112,11.1703492 7.7071381,12.7254945 9.6644745,12.7254945 C11.6217041,12.7254945 13.2006378,11.1703492 13.2006378,9.219246 C13.2006378,7.2681351 11.6217041,5.683075 9.6644745,5.683075 Z M32.6795044,8.4701157 L44.187027,8.4701157 L44.3967514,8.4998475 L44.8762283,8.9493028 L44.786087,9.6085893 L44.186737,9.9082643 L32.6792144,9.9082643 L32.46949,9.8785249 L32.0199356,9.4290773 L32.1100769,8.7697908 L32.6795044,8.4701157 Z" id="Shape"></path>
            <path d="M8.6155701,20.236351 C3.9911652,20.236351 0.2546845,24.1886062 0.2546845,29.1666641 C0.2546845,34.026783 3.813675,37.9158287 8.285965,38.0969772 C8.3952942,38.0969772 8.5052796,38.0672454 8.6155701,38.0672454 L59.0511017,38.0672454 C59.161377,38.0672454 59.2712784,38.0931167 59.3806915,38.0969772 C63.8529892,37.9158287 67.4119796,34.026783 67.4119796,29.1666641 C67.4119796,24.1886062 63.6753921,20.236351 59.051094,20.236351 L8.6155548,20.236351 L8.6155701,20.236351 Z M9.6644745,24.2219696 C12.4003906,24.2219696 14.6689911,26.4692993 14.6689911,29.1965752 C14.6689911,31.9238511 12.4003906,34.1112442 9.6644745,34.1112442 C6.9284668,34.1112442 4.6898651,31.923851 4.6898651,29.1965752 C4.6898651,26.4692994 6.9284668,24.2219696 9.6644745,24.2219696 Z M9.6644745,25.6604118 C7.7071381,25.6604118 6.1283112,27.2454681 6.1283112,29.1965751 C6.1283112,31.1476821 7.7071381,32.7028312 9.6644745,32.7028312 C11.6217041,32.7028312 13.2006378,31.1476821 13.2006378,29.1965751 C13.2006378,27.2454681 11.6217041,25.6604118 9.6644745,25.6604118 Z M32.6795044,28.4474449 L44.187027,28.4474449 L44.3967514,28.4771805 L44.8762283,28.9266319 L44.786087,29.5859184 L44.186737,29.8855934 L32.6792144,29.8855934 L32.46949,29.8558578 L32.0199356,29.4064064 L32.1100769,28.7471199 L32.6795044,28.4474449 Z" id="Shape"></path>
            <path d="M8.6155701,40.2136841 C3.9911652,40.2136841 0.2546845,44.1659393 0.2546845,49.1439972 C0.2546845,54.0041161 3.813675,57.893158 8.285965,58.0743103 C8.3952942,58.0743103 8.5052796,58.0445766 8.6155701,58.0445766 L59.0511017,58.0445766 C59.161377,58.0445766 59.2712784,58.070446 59.3806915,58.0743103 C63.8529892,57.893158 67.4119796,54.0041161 67.4119796,49.1439972 C67.4119796,44.1659393 63.6753921,40.2136841 59.051094,40.2136841 L8.6155548,40.2136841 L8.6155701,40.2136841 Z M9.6644745,44.1993027 C12.4003906,44.1993027 14.6689911,46.4466286 14.6689911,49.1739044 C14.6689911,51.9011802 12.4003906,54.0885753 9.6644745,54.0885753 C6.9284668,54.0885753 4.6898651,51.9011821 4.6898651,49.1739044 C4.6898651,46.4466267 6.9284668,44.1993027 9.6644745,44.1993027 Z M9.6644745,45.6377411 C7.7071381,45.6377411 6.1283112,47.2228012 6.1283112,49.1739044 C6.1283112,51.1250114 7.7071381,52.6801605 9.6644745,52.6801605 C11.6217041,52.6801605 13.2006378,51.1250114 13.2006378,49.1739044 C13.2006378,47.2228012 11.6217041,45.6377411 9.6644745,45.6377411 Z M32.6795044,48.424778 L44.187027,48.424778 L44.3967514,48.4545098 L44.8762283,48.9039651 L44.786087,49.5632478 L44.186737,49.8629228 L32.6792144,49.8629228 L32.46949,49.833191 L32.0199356,49.3837357 L32.1100769,48.724453 L32.6795044,48.424778 Z" id="Shape"></path>
        </g>
    </g>
</svg>