<?xml version="1.0" encoding="UTF-8"?>
<svg width="62px" height="65px" viewBox="0 0 62 65" version="1.1" xmlns="http://www.w3.org/2000/svg" xmlns:xlink="http://www.w3.org/1999/xlink">
    <!-- Generator: Sketch 52.3 (67297) - http://www.bohemiancoding.com/sketch -->
    <title>benefits-optimize</title>
    <desc>Created with Sketch.</desc>
    <g id="Page-1" stroke="none" stroke-width="1" fill="none" fill-rule="evenodd">
        <g id="Optimise" transform="translate(0.000000, -1.000000)" fill="#C64721">
            <g id="benefits-optimize">
                <path d="M61.0554199,33.25 C61.0554199,23.5646973 56.3676758,14.385498 48.515625,8.6955566 C47.6208496,8.046875 46.3706055,8.2470703 45.7226562,9.1413574 C45.0744628,10.0358887 45.2741699,11.2863769 46.168457,11.9343262 C52.9855957,16.8745117 57.0554199,24.8430176 57.0554199,33.25 C57.0554199,47.3630981 45.8820801,58.9121704 31.9172363,59.5255737 L31.9172363,57.5664062 L25.0095215,61.5551757 L31.9172363,65.5444335 L31.9172363,63.5255736 C48.0881348,62.9089966 61.0554199,49.5689087 61.0554199,33.25 Z" id="Path"></path>
                <path d="M14.1218262,53.6340332 C7.9719239,48.611084 4.4445801,41.1813965 4.4445801,33.25 C4.4445801,19.1367187 15.6179199,7.5875854 29.5827637,6.9744263 L29.5827637,8.9335938 L36.4904785,4.9448243 L29.5827637,0.9555665 L29.5827637,2.9744264 C13.4118653,3.5907594 0.4445801,16.9309083 0.4445801,33.2500001 C0.4445801,42.3872071 4.5075684,50.9462892 11.5915528,56.7321778 C11.9628907,57.0354005 12.4106446,57.1831055 12.8554688,57.1831055 C13.4353028,57.1831055 14.010254,56.9323731 14.4057618,56.4482422 C15.1044922,55.5927734 14.9772949,54.3327637 14.1218262,53.6340332 Z" id="Path"></path>
                <path d="M47.8347168,32.427002 C47.8347168,41.8626709 40.1855469,49.5117798 30.75,49.5117798 C21.3143311,49.5117798 13.6652832,41.8626709 13.6652832,32.427002 C13.6652832,22.9913941 21.3143311,15.3422852 30.75,15.3422852 C40.1855469,15.3422852 47.8347168,22.9913941 47.8347168,32.427002 Z M26.8226318,39.1129761 C27.1118164,39.1129761 27.4023438,39.0169678 27.6425782,38.8209229 L39.0151368,28.4192505 C39.5712891,27.9661255 39.6547852,27.1481324 39.2014161,26.5922852 C38.7485352,26.0358887 37.9302979,25.9527588 37.3745118,26.4060669 L26.9606934,36.0263062 L24.2702637,33.0362549 C23.7912598,32.5028687 22.9694825,32.4595948 22.4365235,32.9393311 C21.9030762,33.4190675 21.8598633,34.2401734 22.3397217,34.7733155 L25.8569336,38.6828614 C26.1124267,38.9671631 26.4665527,39.1129761 26.8226318,39.1129761 Z" id="Combined-Shape" fill-rule="nonzero"></path>
            </g>
        </g>
    </g>
</svg>