<?xml version="1.0" encoding="UTF-8"?>
<svg width="76px" height="76px" viewBox="0 0 76 76" version="1.1" xmlns="http://www.w3.org/2000/svg" xmlns:xlink="http://www.w3.org/1999/xlink">
    <!-- Generator: Sketch 52.3 (67297) - http://www.bohemiancoding.com/sketch -->
    <title>benefits-control</title>
    <desc>Created with Sketch.</desc>
    <g id="Page-1" stroke="none" stroke-width="1" fill="none" fill-rule="evenodd">
        <g id="benefits-control" fill="#222222">
            <path d="M20.2080078,34.7973671 L11.4321594,34.7973671 L11.4321594,32.211628 C11.4321594,30.8795815 9.9434051,30.1743813 8.8464203,30.9579392 L1.1675568,36.8346177 C0.3840027,37.461464 0.3840027,38.7151566 1.1675568,39.342003 L8.8464203,45.2970392 C9.8650513,46.0805971 11.4321594,45.3753931 11.4321594,44.0433504 L11.4321594,41.4576113 L20.2080078,41.4576113 C20.7565002,41.4576113 21.1482849,40.9874766 21.1482849,40.4389841 L21.1482849,35.7376406 C21.1482849,35.2675018 20.7565002,34.7973671 20.2080078,34.7973671 Z" id="Path"></path>
            <path d="M74.4301834,36.9129753 L66.7513199,31.036293 C65.7326889,30.2527351 64.1655731,30.9579391 64.1655731,32.2899818 L64.1655731,34.8757209 L55.4680939,34.8757209 C54.9196091,34.8757209 54.5278244,35.3458556 54.5278244,35.8159904 L54.5278244,40.5173378 C54.5278244,41.0658264 54.9979629,41.5359612 55.4680939,41.5359612 L64.2439347,41.5359612 L64.2439347,44.1217003 C64.2439347,45.4537468 65.7326966,46.158947 66.8296815,45.3753891 L74.508545,39.4203568 C75.292099,38.7935104 75.292099,37.5398178 74.4301834,36.9129753 Z" id="Path"></path>
            <g id="Group" transform="translate(15.000000, 13.000000)">
                <path d="M44.6680069,0.9031982 L39.7801285,1.5530319 C39.1302948,1.6377945 38.8195038,2.4571457 39.2998123,2.9374618 L40.2321853,3.8698272 L37.0960311,7.0059814 C36.8982543,7.2037506 36.9265136,7.5145416 37.0960311,7.6840667 L38.791252,9.3792876 C38.9890288,9.5770568 39.3280715,9.5770568 39.497589,9.4075392 L42.6619948,6.2431334 L43.5943678,7.1754988 C44.0746763,7.655815 44.8657835,7.3732756 44.9787977,6.6951903 L45.6003797,1.7790526 C45.6568832,1.2704926 45.2048264,0.8184357 44.6680069,0.9031982 Z" id="Path"></path>
                <path d="M1.2204742,46.2154694 L6.1083526,45.5656357 C6.7581786,45.4808731 7.0689697,44.6615181 6.5886688,44.1812058 L5.6562958,43.2488366 L8.7924423,40.1126862 C8.9902191,39.9149094 8.9619674,39.6041222 8.7924423,39.4346009 L7.097229,37.73938 C6.8994446,37.541607 6.5604095,37.541607 6.3908844,37.7111284 L3.2264862,40.8755342 L2.2941132,39.943165 C1.813797,39.4628527 1.0226899,39.7453882 0.9096833,40.4234773 L0.2881013,45.3396112 C0.2315979,45.848175 0.6836548,46.3002319 1.2204742,46.2154694 Z" id="Path"></path>
                <path d="M0.2881012,1.5269318 L0.9379425,6.4148102 C1.0227051,7.0646439 1.8420563,7.3754349 2.3223572,6.8951264 L3.2547302,5.9627534 L6.3908844,9.0989076 C6.5886536,9.2966844 6.8994446,9.2684251 7.0689697,9.0989076 L8.7641906,7.4036867 C8.9619674,7.2059099 8.9619674,6.8668672 8.7924422,6.6973497 L5.6280364,3.5329439 L6.5604094,2.6005709 C7.0407256,2.1202624 6.7581786,1.3291552 6.0800932,1.216141 L1.1639555,0.594559 C0.6553955,0.5380554 0.2033386,0.9901123 0.2881012,1.5269318 Z" id="Path"></path>
                <path d="M44.035141,43.4092331 L43.3853073,38.5213547 C43.3005447,37.8715172 42.4811859,37.56073 42.0008774,38.0410424 L41.0685044,38.9734116 L37.9323579,35.8372574 C37.7345811,35.6394844 37.4237901,35.6677361 37.2542726,35.8372612 L35.5590517,37.5324783 C35.3612749,37.7302551 35.3612749,38.0692978 35.5308001,38.2388191 L38.6952059,41.4032249 L37.7628329,42.3355941 C37.2825244,42.8159064 37.5650637,43.6070098 38.2431491,43.720024 L43.1592792,44.341606 C43.6678467,44.3981133 44.1199036,43.9460526 44.035141,43.4092331 Z" id="Path"></path>
            </g>
            <path d="M47.8675842,33.7787437 C47.6325226,33.3869667 47.162384,33.2302513 46.770607,33.2302513 L44.2632217,33.2302513 C43.47966,33.2302513 42.8528137,32.6034088 42.8528137,31.8198509 L42.8528137,29.3124656 C42.8528137,28.8423309 42.6177521,28.4505538 42.3043289,28.2154846 L38.6999664,25.6297455 C38.2298279,25.2379685 37.5246277,25.2379685 37.0544967,25.6297455 L33.4501342,28.2154846 C33.0583495,28.4505501 32.9016418,28.9206886 32.9016418,29.3124656 L32.9016418,31.8198509 C32.9016418,32.6034088 32.2747955,33.2302513 31.4912338,33.2302513 L28.9838485,33.2302513 C28.5137176,33.2302513 28.1219405,33.4653206 27.8868713,33.7787437 L25.3011322,37.3831062 C24.9093552,37.8532409 24.9093552,38.5584449 25.3011322,39.0285759 L27.8868713,42.6329384 C28.1219406,43.0247193 28.5920715,43.1814308 28.9838485,43.1814308 L31.4912338,43.1814308 C32.2747955,43.1814308 32.9016418,43.8082771 32.9016418,44.591835 L32.9016418,47.0992164 C32.9016418,47.5693511 33.1367034,47.9611282 33.4501342,48.1962013 L37.0544967,50.7819404 C37.5246276,51.1737174 38.2298278,51.1737174 38.6999664,50.7819404 L42.3043289,48.1962013 C42.6961059,47.961132 42.8528137,47.4909973 42.8528137,47.0992164 L42.8528137,44.591835 C42.8528137,43.8082771 43.47966,43.1814308 44.2632217,43.1814308 L46.770607,43.1814308 C47.2407379,43.1814308 47.632515,42.9463653 47.8675842,42.6329384 L50.4533233,39.0285759 C50.8451003,38.558445 50.8451003,37.853241 50.4533233,37.3831062 L47.8675842,33.7787437 Z" id="Path"></path>
            <path d="M31.8830185,11.7607803 L34.4687576,11.7607803 L34.4687576,20.5366211 C34.4687576,21.0851135 34.9388885,21.4768906 35.4090271,21.4768906 L40.1103668,21.4768906 C40.6588592,21.4768906 41.0506363,21.0067597 41.0506363,20.5366211 L41.0506363,11.7607803 L43.6363754,11.7607803 C44.9684295,11.7607803 45.6736297,10.2720184 44.890068,9.1750335 L38.9350357,1.49617 C38.3081894,0.7126159 37.0544968,0.7126159 36.4276504,1.49617 L30.4726104,9.1750335 C29.8457642,10.2720184 30.6293182,11.7607803 31.8830185,11.7607803 Z" id="Path"></path>
            <path d="M43.7930832,64.5725498 L41.2073441,64.5725498 L41.2073441,55.7967071 C41.2073441,55.2482185 40.7372132,54.8564414 40.2670746,54.8564414 L35.5657349,54.8564414 C35.0172425,54.8564414 34.6254654,55.3265761 34.6254654,55.7967071 L34.6254654,64.5725498 L32.0397263,64.5725498 C30.7076798,64.5725498 30.0024796,66.0613098 30.7860337,67.1582908 L36.741066,74.8371562 C37.3679123,75.6207141 38.6216049,75.6207141 39.2484513,74.8371562 L45.2034913,67.1582908 C45.8303375,66.0613098 45.0467834,64.5725498 43.7930832,64.5725498 Z" id="Path"></path>
        </g>
    </g>
</svg>