<?xml version="1.0" encoding="UTF-8"?>
<svg width="88px" height="88px" viewBox="0 0 88 88" version="1.1" xmlns="http://www.w3.org/2000/svg" xmlns:xlink="http://www.w3.org/1999/xlink">
    <!-- Generator: Sketch 52.3 (67297) - http://www.bohemiancoding.com/sketch -->
    <title>benefits-city-2</title>
    <desc>Created with Sketch.</desc>
    <g id="Page-1" stroke="none" stroke-width="1" fill="none" fill-rule="evenodd">
        <g id="benefits-city-2" fill="#222222">
            <path d="M76.853363,76.7784882 C65.6193542,88.012497 48.2560348,90.3605423 34.4727211,82.5662613 C26.6784401,68.7829475 29.0264854,51.4196282 40.2604942,40.1856194 C51.494503,28.9516106 68.8578262,26.6035653 82.6411361,34.3978463 C90.4354172,48.1811638 88.0873795,65.5444794 76.853363,76.7784882 Z" id="Path"></path>
            <path d="M37.8209724,37.7460938 C48.6585617,26.9085055 64.6923294,23.6090489 78.6952056,28.7686463 C78.1036223,28.0794774 77.4937362,27.4086075 76.8533629,26.7682334 C63.0639494,12.9788199 40.6325224,12.9788199 26.843109,26.7682334 C13.0536956,40.5576469 13.0536955,62.9890739 26.843109,76.7784873 C27.483486,77.4188605 28.154354,78.0287391 28.8435172,78.62033 C23.6839218,64.6174583 26.9833832,48.5836792 37.8209724,37.7460938 Z" id="Path"></path>
            <g id="Group">
                <path d="M37.7109413,10.8767091 C36.6432876,10.8767091 35.7781525,10.0115738 35.7781525,8.943918 L35.7781525,2.6335418 C35.7781525,1.5658862 36.6432877,0.700751 37.7109413,0.700751 C38.7785988,0.700751 39.643734,1.5658862 39.643734,2.6335418 L39.643734,8.943918 C39.643734,10.0115737 38.7785988,10.8767091 37.7109413,10.8767091 Z" id="Path"></path>
                <path d="M56.6410522,10.5022154 C55.6519775,10.1001899 55.1762924,8.972965 55.5783157,7.9838927 L57.954483,2.1379836 C58.3565139,1.1489108 59.4837341,0.673219 60.4728088,1.0752452 C61.4618835,1.4772704 61.9375686,2.6044953 61.5355453,3.5935677 L59.159378,9.4394773 C58.7573471,10.4285492 57.630127,10.9042409 56.6410522,10.5022154 Z" id="Path"></path>
                <path d="M17.4954834,19.3640804 C17.000782,19.3640804 16.5060806,19.1753235 16.1285667,18.798203 L11.6664352,14.3360705 C10.9118003,13.5810432 10.9118003,12.35727 11.6664352,11.6022427 C12.421463,10.848002 13.6452369,10.848002 14.4002647,11.6022427 L18.8623962,16.0643752 C19.6170311,16.8194025 19.6170311,18.0431755 18.8623962,18.7982028 C18.4848824,19.1753235 17.990181,19.3640804 17.4954834,19.3640804 Z" id="Path"></path>
                <path d="M9.2023735,39.6601563 L2.8919983,39.6601563 C1.8243427,39.6601563 0.9592056,38.7950211 0.9592056,37.7273636 C0.9592056,36.659708 1.8243427,35.7945728 2.8919983,35.7945728 L9.2023735,35.7945728 C10.270031,35.7945728 11.1351662,36.659708 11.1351662,37.7273636 C11.1351662,38.7950211 10.270031,39.6601563 9.2023735,39.6601563 Z" id="Path"></path>
                <path d="M9.7150497,62.8815346 L3.9466419,65.4401131 C2.9706802,65.8729973 1.8290748,65.4329377 1.3961887,64.4569779 C0.9633007,63.4810181 1.4033603,62.3394127 2.3793201,61.9065247 L8.1477298,59.34795 C9.1236877,58.915062 10.2652969,59.3551216 10.6981811,60.3310814 C11.1310692,61.3070412 10.6910095,62.4486504 9.7150497,62.8815346 Z" id="Path"></path>
            </g>
        </g>
    </g>
</svg>