<?xml version="1.0" encoding="UTF-8"?>
<svg width="60px" height="61px" viewBox="0 0 60 61" version="1.1" xmlns="http://www.w3.org/2000/svg" xmlns:xlink="http://www.w3.org/1999/xlink">
    <!-- Generator: Sketch 52.3 (67297) - http://www.bohemiancoding.com/sketch -->
    <title>benefits-functional</title>
    <desc>Created with Sketch.</desc>
    <g id="Page-1" stroke="none" stroke-width="1" fill="none" fill-rule="evenodd">
        <g id="benefits-functional" fill="#222222">
            <path d="M51.0583038,17.3811417 C55.7075958,17.3811417 59.548294,13.5403824 59.548294,8.8911515 C59.548294,4.2418595 55.7075958,0.4011613 51.0583038,0.4011613 C46.4090728,0.4011613 42.5683136,4.1407853 42.5683136,8.8911515 C42.5683136,13.5403824 46.4090729,17.3811417 51.0583038,17.3811417 Z" id="Path"></path>
            <path d="M29.8333282,0.300087 C25.1840362,0.300087 21.343338,4.1407852 21.343338,8.7900772 C21.343338,13.4393082 25.1840362,17.2800674 29.8333282,17.2800674 C34.4826202,17.2800674 38.3233184,13.4393081 38.3233184,8.7900772 C38.3233185,4.1407852 34.4826202,0.300087 29.8333282,0.300087 Z" id="Path"></path>
            <path d="M8.6083527,0.4011612 C3.9590607,0.4011612 0.1183625,4.1407852 0.1183625,8.8911514 C0.1183625,13.6414566 3.8579865,17.3811416 8.6083527,17.3811416 C13.2576447,17.3811416 17.0983429,13.5403823 17.0983429,8.8911514 C17.0983429,4.2418594 13.2576447,0.4011612 8.6083527,0.4011612 Z" id="Path"></path>
            <path d="M51.0583038,21.6261368 C46.4090728,21.6261368 42.5683136,25.466835 42.5683136,30.116127 C42.5683136,34.765358 46.4090729,38.6061172 51.0583038,38.6061172 C55.7075958,38.6061172 59.548294,34.7653579 59.548294,30.116127 C59.5482941,25.466835 55.7075958,21.6261368 51.0583038,21.6261368 Z" id="Path"></path>
            <path d="M29.8333282,21.6261368 C25.1840362,21.6261368 21.343338,25.466835 21.343338,30.116127 C21.343338,34.765358 25.1840362,38.6061172 29.8333282,38.6061172 C34.4826202,38.6061172 38.3233184,34.7653579 38.3233184,30.116127 C38.3233185,25.466835 34.4826202,21.6261368 29.8333282,21.6261368 Z" id="Path"></path>
            <path d="M8.6083527,21.727211 C3.9590607,21.727211 0.1183625,25.466835 0.1183625,30.2172012 C0.1183625,34.9675064 3.8579865,38.7071914 8.6083527,38.7071914 C13.2576447,38.7071914 17.0983429,34.8664321 17.0983429,30.2172012 C17.0983429,25.5679092 13.2576447,21.727211 8.6083527,21.727211 Z" id="Path"></path>
            <path d="M51.0583038,42.9521866 C46.4090728,42.9521866 42.5683136,46.7928848 42.5683136,51.4421768 C42.5683136,56.0914688 46.4090729,59.9321689 51.0583038,59.9321689 C55.7075958,59.9321689 59.548294,56.0914707 59.548294,51.4421768 C59.548294,46.7928829 55.7075958,42.9521866 51.0583038,42.9521866 Z" id="Path"></path>
            <path d="M29.8333282,42.9521866 C25.1840362,42.9521866 21.343338,46.7928848 21.343338,51.4421768 C21.343338,56.0914688 25.1840362,59.9321689 29.8333282,59.9321689 C34.4826202,59.9321689 38.3233184,56.0914707 38.3233184,51.4421768 C38.3233184,46.7928829 34.4826202,42.9521866 29.8333282,42.9521866 Z" id="Path"></path>
            <path d="M8.6083527,43.0532608 C3.9590607,43.0532608 0.1183625,46.7928848 0.1183625,51.543251 C0.1183625,56.2935581 3.8579865,60.0332431 8.6083527,60.0332431 C13.2576447,60.0332431 17.0983429,56.1924838 17.0983429,51.543251 C17.0983429,46.893959 13.2576447,43.0532608 8.6083527,43.0532608 Z" id="Path"></path>
        </g>
    </g>
</svg>