<?xml version="1.0" encoding="UTF-8"?>
<svg width="52px" height="53px" viewBox="0 0 52 53" version="1.1" xmlns="http://www.w3.org/2000/svg" xmlns:xlink="http://www.w3.org/1999/xlink">
    <!-- Generator: Sketch 52.3 (67297) - http://www.bohemiancoding.com/sketch -->
    <title>benefits-repeair</title>
    <desc>Created with Sketch.</desc>
    <g id="Page-1" stroke="none" stroke-width="1" fill="none" fill-rule="evenodd">
        <g id="benefits-repeair" fill="#C64721" fill-rule="nonzero">
            <path d="M49.8040771,43.1101074 L34.2329101,27.5388794 L42.4168701,19.3547363 L44.7069092,19.8913574 C45.3924561,20.0527344 46.1014405,19.7124023 46.4041748,19.0739746 L50.6468506,10.1347656 C50.9188233,9.5617676 50.8011475,8.8796386 50.352417,8.4309082 L48.0037842,6.0825195 C47.555542,5.6342773 46.8734131,5.5166015 46.3001709,5.7880859 L37.3612061,10.0305175 C36.7230225,10.333496 36.3826905,11.0402831 36.5438233,11.7280273 L37.0804444,14.0178222 L28.8962403,22.2020263 L22.6805421,15.9865722 C23.1829835,14.6743163 23.4368898,13.3017577 23.4368898,11.8928222 C23.4364015,5.5161132 18.2484132,0.3283691 11.8719484,0.3283691 C11.0433351,0.3283691 10.3719484,1 10.3719484,1.8283691 L10.3719484,7.3046875 C10.3719484,8.1330566 11.0433351,8.8046875 11.8719484,8.8046875 C13.5750734,8.8046875 14.9603273,10.1901855 14.9603273,11.8930664 C14.9603273,13.5959473 13.5750734,14.9812012 11.8719484,14.9812012 C11.0472414,14.9812012 10.2718507,14.6599121 9.6883546,14.0766602 C9.1048585,13.4934083 8.7840577,12.7180176 8.7840577,11.8933106 C8.7840577,11.4953614 8.6263429,11.1137696 8.3446046,10.8325196 C8.0633546,10.5510255 7.6820069,10.3930665 7.2840577,10.3930665 L1.8074952,10.3930665 C0.9788819,10.3930665 0.3074952,11.0646974 0.3074952,11.8930665 C0.3074952,18.2697755 5.4954835,23.4575196 11.8719483,23.4575196 C13.2816163,23.4575196 14.6541749,23.2036133 15.9656983,22.7016602 L22.1146241,28.8504029 L21.1317139,29.0002442 C20.8157959,29.048584 20.5238037,29.1965333 20.2977295,29.4226075 L5.6541748,44.0661622 C3.8026123,45.9174806 3.8026123,48.9296876 5.6541748,50.7812501 C6.5511475,51.6779786 7.7435303,52.171631 9.0115967,52.171631 C10.2796631,52.171631 11.4720459,51.6779787 12.3690186,50.781006 L27.0125733,36.1374513 C27.2386475,35.9113771 27.3865967,35.6191408 27.4349366,35.3029786 L27.5847169,34.3208619 L43.0892335,49.8251954 C44.0150148,50.7507325 45.2308351,51.213379 46.4466554,51.213379 C47.6624757,51.213379 48.8787843,50.7504884 49.8045656,49.8249513 C51.6551514,47.9731445 51.6551514,44.9609375 49.8040771,43.1101074 Z M39.7918701,15.5488281 C40.1590576,15.1818847 40.3099365,14.6513672 40.1917724,14.1459961 L39.7410888,12.2219238 L46.6307372,8.9519043 L47.4832763,9.8044434 L44.2132568,16.694336 L42.2889404,16.2434083 C41.783081,16.1250001 41.2523193,16.2763673 40.8861084,16.6433106 L31.0996094,26.4298707 C31.0817871,26.446045 31.0585938,26.4513551 31.0413819,26.468506 C31.02417,26.4856569 31.018921,26.5089113 31.0026856,26.5266725 L26.3996583,31.1296998 L25.30542,30.0353394 L39.7918701,15.5488281 Z M15.6414795,19.572998 C14.449585,20.1599121 13.1810303,20.4575195 11.8719482,20.4575195 C7.6610107,20.4575195 4.1502685,17.402832 3.4388427,13.3930664 L5.9691161,13.3930664 C6.2342528,14.4455566 6.779663,15.4106445 7.5672606,16.197998 C8.7171629,17.3479003 10.2459715,17.9812011 11.8719481,17.9812011 C15.2288817,17.9812011 17.960327,15.2499999 17.960327,11.8930663 C17.960327,9.0532225 16.0062254,6.6613768 13.3719481,5.9916991 L13.3719481,3.4599608 C17.3817137,4.1711424 20.4364012,7.6821288 20.4368895,11.8930663 C20.4368895,13.2009276 20.1390379,14.4694823 19.5521239,15.6630858 C19.2684325,16.2392577 19.3831786,16.9318846 19.8372802,17.3859862 L26.7749023,24.3233641 L24.3023681,26.7958983 L17.364624,19.8581542 C16.9105225,19.4038086 16.2171631,19.2890625 15.6414795,19.572998 Z M7.7752686,48.6599121 C7.2027588,48.0872192 7.1175538,47.2158203 7.5067139,46.5466919 L9.8842774,48.9246826 C9.2197266,49.2952881 8.3271484,49.2113037 7.7752686,48.6599121 Z M12.0546875,46.8528442 L9.5823975,44.3801879 L22.071167,31.8918456 L22.8068848,31.7795409 L24.6555176,33.6281737 L24.543335,34.3642577 L12.0546875,46.8528442 Z M47.6829834,47.7036133 C47.0013428,48.3852539 45.8919678,48.3852539 45.2103271,47.7036133 L29.639038,32.1327515 L32.1118163,29.6599732 L47.6829833,45.2312012 C48.364624,45.9128418 48.3641357,47.0219727 47.6829834,47.7036133 Z" id="Shape"></path>
        </g>
    </g>
</svg>