<?xml version="1.0" encoding="UTF-8"?>
<svg width="84px" height="72px" viewBox="0 0 84 72" version="1.1" xmlns="http://www.w3.org/2000/svg" xmlns:xlink="http://www.w3.org/1999/xlink">
    <!-- Generator: Sketch 52.3 (67297) - http://www.bohemiancoding.com/sketch -->
    <title>benefits-city-5</title>
    <desc>Created with Sketch.</desc>
    <g id="Page-1" stroke="none" stroke-width="1" fill="none" fill-rule="evenodd">
        <g id="City_1_5-01" fill="#222222">
            <g id="benefits-city-5">
                <path d="M77.1949081,0.2290764 C80.5577011,0.2290764 83.2838364,2.9552116 83.2838363,6.3180046 L83.2838363,50.6013908 C83.2838363,53.9641837 80.5577011,56.690319 77.1949081,56.690319 L50.9854354,56.690319 L50.9854354,57.4995841 C50.9854354,62.9268912 55.3851547,67.3266143 60.8124618,67.3266143 L62.604454,67.3266143 C63.7857284,67.3266143 64.743309,68.2841949 64.743309,69.4654693 C64.743309,70.6466826 63.7857284,71.6042632 62.604454,71.6042632 L21.5621528,71.6042632 C20.3809395,71.6042632 19.4233589,70.6466827 19.4233589,69.4654693 C19.4233589,68.2841949 20.3809394,67.3266143 21.5621528,67.3266143 L23.354145,67.3266143 C28.7814522,67.3266143 33.1811714,62.9268912 33.1811714,57.4995841 L33.1811714,56.690319 L6.9717617,56.690319 C3.6089077,56.690319 0.8828335,53.9641838 0.8828335,50.6013908 L0.8828335,6.3180046 C0.8828335,2.9552117 3.6089077,0.2290764 6.9717617,0.2290764 L77.1949081,0.2290764 Z M78.9411087,5.8853812 C78.9411087,5.3707988 78.506073,4.9536475 77.969431,4.9536475 L5.8036137,4.9536475 C5.2669697,4.9536475 4.831934,5.3707988 4.831934,5.8853812 L4.831934,49.6696906 C4.831934,50.1842742 5.2669697,50.6014266 5.8036137,50.6014266 L77.969429,50.6014266 C78.506073,50.6014266 78.9411087,50.1842742 78.9411087,49.6696906 L78.9411087,5.8853812 Z" id="Combined-Shape"></path>
                <g id="Group" transform="translate(11.000000, 15.000000)">
                    <rect id="Rectangle" x="0.3993607" y="0.786231" width="3" height="35.4166679"></rect>
                    <rect id="Rectangle" x="5.6493607" y="14.0362301" width="3" height="22.166666"></rect>
                    <rect id="Rectangle" x="10.8993607" y="18.4945641" width="3" height="17.708334"></rect>
                    <rect id="Rectangle" x="16.1493607" y="21.2862282" width="3" height="14.916667"></rect>
                    <rect id="Rectangle" x="21.3993607" y="25.7862282" width="3" height="10.416667"></rect>
                    <rect id="Rectangle" x="26.6493607" y="28.7445641" width="3" height="7.4583335"></rect>
                    <rect id="Rectangle" x="31.8993607" y="18.4945641" width="3" height="17.708334"></rect>
                    <rect id="Rectangle" x="37.1493607" y="14.5362301" width="3" height="21.666666"></rect>
                    <rect id="Rectangle" x="42.3993607" y="8.411232" width="3" height="27.791666"></rect>
                    <rect id="Rectangle" x="47.6493607" y="16.6612301" width="3" height="19.541666"></rect>
                    <rect id="Rectangle" x="52.8993607" y="21.2862282" width="3" height="14.916667"></rect>
                    <rect id="Rectangle" x="58.1493607" y="30.411232" width="3" height="5.7916665"></rect>
                </g>
            </g>
        </g>
    </g>
</svg>