<?xml version="1.0" encoding="UTF-8"?>
<svg width="60px" height="55px" viewBox="0 0 60 55" version="1.1" xmlns="http://www.w3.org/2000/svg" xmlns:xlink="http://www.w3.org/1999/xlink">
    <!-- Generator: Sketch 52.3 (67297) - http://www.bohemiancoding.com/sketch -->
    <title>benefits-arch</title>
    <desc>Created with Sketch.</desc>
    <g id="Page-1" stroke="none" stroke-width="1" fill="none" fill-rule="evenodd">
        <g id="benefits-arch" fill="#C64721" fill-rule="nonzero">
            <path d="M58.428833,15.2544556 L57.3603515,15.2544556 L57.3603515,50.8650513 L58.8020019,50.8650513 L58.8020019,54.3605957 L37.7995605,54.3605957 L37.7995605,50.8650513 L39.2502441,50.8650513 L39.2502441,28.5200806 L38.982788,28.5200806 C38.2573241,24.0898438 34.4267577,20.7077637 29.7919921,20.7077637 C25.1647948,20.7077637 21.356201,24.0898438 20.6306151,28.5200806 L20.2451171,28.5200806 L20.2451171,50.8650513 L21.7149657,50.8650513 L21.7149657,54.3605957 L0.7075194,54.3605957 L0.7075194,50.8650513 L2.1335448,50.8650513 L2.1335448,15.2544556 L1.0114745,15.2544556 L1.0114745,14.0944825 L0.3063964,14.0928346 L0.3063964,10.6289064 L2.0958251,10.6321413 L2.0958251,3.2494509 L1.3544921,3.2494509 L1.3544921,1.2916872 L2.821289,1.2916872 L2.821289,0.1394045 L56.680664,0.1394045 L56.680664,1.2916872 L58.145874,1.2916872 L58.145874,3.2494509 L57.404541,3.2494509 L57.404541,10.6321413 L59.1937256,10.6289064 L59.1937256,14.0928346 L58.428833,14.0944825 L58.428833,15.2544556 Z M4.7729492,13.6113281 L4.7729492,11.2522583 L0.6524658,11.2522583 L0.6524658,13.6113281 L4.7729492,13.6113281 Z M9.675415,13.6113281 L9.675415,11.2522583 L5.5565185,11.2522583 L5.5565185,13.6113281 L9.675415,13.6113281 Z M14.572998,13.6113281 L14.572998,11.2522583 L10.4528808,11.2522583 L10.4528808,13.6113281 L14.572998,13.6113281 Z M19.4660645,13.6113281 L19.4660645,11.2522583 L15.3504639,11.2522583 L15.3504639,13.6113281 L19.4660645,13.6113281 Z M24.369873,13.6113281 L24.369873,11.2522583 L20.2545166,11.2522583 L20.2545166,13.6113281 L24.369873,13.6113281 Z M29.2709961,13.6113281 L29.2709961,11.2522583 L25.1505127,11.2522583 L25.1505127,13.6113281 L29.2709961,13.6113281 Z M34.1748047,13.6113281 L34.1748047,11.2522583 L30.0500488,11.2522583 L30.0500488,13.6113281 L34.1748047,13.6113281 Z M39.0727539,13.6113281 L39.0727539,11.2522583 L34.9521484,11.2522583 L34.9521484,13.6113281 L39.0727539,13.6113281 Z M43.96875,13.6113281 L43.96875,11.2522583 L39.8500977,11.2522583 L39.8500977,13.6113281 L43.96875,13.6113281 Z M48.8679199,13.6113281 L48.8679199,11.2522583 L44.7526855,11.2522583 L44.7526855,13.6113281 L48.8679199,13.6113281 Z M53.7703857,13.6113281 L53.7703857,11.2522583 L49.6501464,11.2522583 L49.6501464,13.6113281 L53.7703857,13.6113281 Z M54.5478516,13.6113281 L58.6711426,13.6113281 L58.6711426,11.2522583 L54.5478516,11.2522583 L54.5478516,13.6113281 Z" id="Shape"></path>
        </g>
    </g>
</svg>