<?xml version="1.0" encoding="UTF-8"?>
<svg width="57px" height="52px" viewBox="0 0 57 52" version="1.1" xmlns="http://www.w3.org/2000/svg" xmlns:xlink="http://www.w3.org/1999/xlink">
    <!-- Generator: Sketch 52.3 (67297) - http://www.bohemiancoding.com/sketch -->
    <title>benefits-wireless</title>
    <desc>Created with Sketch.</desc>
    <g id="Page-1" stroke="none" stroke-width="1" fill="none" fill-rule="evenodd">
        <g id="benefits-wireless" fill="#C64721">
            <g id="Group">
                <path d="M54.9762573,14.9237061 C54.5924682,14.9237061 54.2086792,14.7772217 53.9157104,14.484253 C47.0602416,7.6287842 37.9454956,3.8533936 28.2501831,3.8533936 C18.5548706,3.8533936 9.4396362,7.6287842 2.5841675,14.484253 C1.99823,15.0701905 1.0490112,15.0701905 0.4630737,14.484253 C-0.1228638,13.8985596 -0.1228638,12.9488526 0.4630737,12.3631592 C7.8849487,4.9410401 17.753601,0.8533936 28.2501831,0.8533936 C38.7467652,0.8533936 48.6149292,4.9410401 56.0368042,12.3631592 C56.6227417,12.9488526 56.6227417,13.8985596 56.0368042,14.484253 C55.7438354,14.7772217 55.3600464,14.9237061 54.9762573,14.9237061 Z" id="Path"></path>
                <path d="M14.8102417,28.2105713 C14.4264526,28.2105713 14.0421753,28.0640869 13.7496948,27.7711182 C13.1637573,27.1854248 13.1637573,26.2354737 13.7496948,25.6497803 C17.62323,21.7769776 22.7731323,19.6439209 28.2501831,19.6439209 C33.7277222,19.6439209 38.8771362,21.7769775 42.7501831,25.6500244 C43.3361206,26.2357178 43.3361206,27.1854248 42.7501831,27.7711182 C42.1642456,28.3570557 41.2150268,28.3570557 40.6290893,27.7711182 C37.3224487,24.4647217 32.9264526,22.6439209 28.250183,22.6439209 C23.5739134,22.6439209 19.1779174,24.4649658 15.8707885,27.7713623 C15.5778198,28.0640869 15.1940308,28.2105713 14.8102417,28.2105713 Z" id="Path"></path>
                <path d="M48.1930542,21.7071533 C47.8092651,21.7071533 47.4254761,21.5606689 47.1325073,21.2677002 C42.088562,16.223999 35.3829956,13.4464111 28.2501831,13.4464111 C21.1173706,13.4464111 14.4113159,16.223999 9.3673706,21.2677002 C8.7814331,21.8536377 7.8322143,21.8536377 7.2462768,21.2677002 C6.6603393,20.6820068 6.6603393,19.7322998 7.2462768,19.1466064 C12.8566284,13.5362548 20.316101,10.4464111 28.2501831,10.4464111 C36.1842652,10.4464111 43.6432495,13.5362549 49.2536011,19.1466064 C49.8395386,19.7322998 49.8395386,20.6820068 49.2536011,21.2677002 C48.9606323,21.5606689 48.5768433,21.7071533 48.1930542,21.7071533 Z" id="Path"></path>
            </g>
            <path d="M28.2501831,51.6466064 C21.9108276,51.6466064 16.7531128,46.4893798 16.7531128,40.1500244 C16.7531128,33.810669 21.9108276,28.6534424 28.2501831,28.6534424 C34.5895386,28.6534424 39.7467651,33.810669 39.7467651,40.1500244 C39.7467651,46.4893798 34.5895386,51.6466064 28.2501831,51.6466064 Z M28.2501831,31.6534424 C23.5651245,31.6534424 19.7531128,35.4649658 19.7531128,40.1500244 C19.7531128,44.835083 23.5651245,48.6466064 28.2501831,48.6466064 C32.9352417,48.6466064 36.7467651,44.835083 36.7467651,40.1500244 C36.7467651,35.4649658 32.9352417,31.6534424 28.2501831,31.6534424 Z" id="Shape" fill-rule="nonzero"></path>
        </g>
    </g>
</svg>