<?xml version="1.0" encoding="UTF-8"?>
<svg width="47px" height="56px" viewBox="0 0 47 56" version="1.1" xmlns="http://www.w3.org/2000/svg" xmlns:xlink="http://www.w3.org/1999/xlink">
    <!-- Generator: Sketch 52.3 (67297) - http://www.bohemiancoding.com/sketch -->
    <title>benefits-safety</title>
    <desc>Created with Sketch.</desc>
    <g id="Page-1" stroke="none" stroke-width="1" fill="none" fill-rule="evenodd">
        <g id="benefits-safety" fill="#222222" fill-rule="nonzero">
            <path d="M46.5874786,9.588295 C40.7034454,3.4305802 30.7141876,0.8680802 23.8333282,0.8680802 C16.9524688,0.8680802 6.963211,3.4305802 1.0791778,9.588295 C1.0791778,9.588295 -1.0463105,24.9012833 6.9544219,38.3617325 C14.3719024,50.8407383 23.8333282,55.46525 23.8333282,55.46525 C23.8333282,55.46525 33.294754,50.8407383 40.7122345,38.3617325 C48.7129669,24.9012833 46.5874786,9.588295 46.5874786,9.588295 Z M32.5275421,21.6290665 L24.8432159,36.9976578 C24.4743805,37.734108 23.7751007,38.2476578 22.9618682,38.3808365 C22.8247832,38.4013443 22.6877593,38.41288 22.5520171,38.41288 C21.8783721,38.41288 21.2251738,38.1464615 20.741104,37.6636735 L15.6181792,32.5408097 C14.6179961,31.5405656 14.6179961,29.9191666 15.6181792,28.9189225 C16.6171416,27.9186784 18.241104,27.9186784 19.2400664,28.9189225 L21.8501738,31.5290299 L27.9450835,19.3378678 C28.5790557,18.0738297 30.1146392,17.5576554 31.3825835,18.1916276 C32.6479034,18.8243179 33.1601715,20.3624649 32.5275421,21.6290665 Z" id="Shape"></path>
        </g>
    </g>
</svg>