<?xml version="1.0" encoding="UTF-8"?>
<svg width="52px" height="70px" viewBox="0 0 52 70" version="1.1" xmlns="http://www.w3.org/2000/svg" xmlns:xlink="http://www.w3.org/1999/xlink">
    <!-- Generator: Sketch 52.3 (67297) - http://www.bohemiancoding.com/sketch -->
    <title>benefits-city-4</title>
    <desc>Created with Sketch.</desc>
    <g id="Page-1" stroke="none" stroke-width="1" fill="none" fill-rule="evenodd">
        <g id="benefits-city-4" fill="#222222" fill-rule="nonzero">
            <path d="M29.281723,30.1729507 C29.281723,30.3335704 29.3273163,30.4945411 28.9597778,30.4945411 L23.0995865,30.4945411 C22.9845543,30.4945411 22.7776413,30.5176887 22.7776413,30.1729507 L22.7776413,28.6789684 C22.7776413,28.5639381 22.7544975,28.3573761 23.0995865,28.3573761 L24.5704193,28.3573761 L24.5704193,21.2788486 L23.0764389,21.2788486 C22.9614105,21.2788486 22.7544975,21.3019962 22.7544975,20.9572582 L22.7544975,19.4632759 C22.7544975,19.3482456 22.7320518,19.1416836 23.0764389,19.1416836 L27.1669998,19.1416836 C27.5352402,19.1416836 27.488945,19.3023052 27.488945,19.4632759 L27.488945,28.3573761 L28.9597778,28.3573761 C29.3273163,28.3573761 29.281723,28.5179977 29.281723,28.6789684 L29.281723,30.1729507 Z M26.0181122,17.6477022 C24.9610977,17.6477022 24.1110077,16.7972555 24.1110077,15.7402458 C24.1110077,14.6828852 24.9610977,13.8555841 26.0181122,13.8555841 C27.075119,13.8555841 27.902771,14.6828851 27.902771,15.7402458 C27.902771,16.7972555 27.075119,17.6477022 26.0181122,17.6477022 Z" id="Shape"></path>
            <path d="M51.4973755,20.4437981 L51.4973755,11.4623528 C51.4973755,5.2333489 46.4343872,0.1703606 40.2056275,0.1703606 L11.831604,0.1703606 C5.6033325,0.1703606 0.5371704,5.2333489 0.5371704,11.4623528 L0.5371704,58.3720208 C0.5371704,64.5971185 5.6033325,69.6629792 11.831604,69.6629792 L40.2056274,69.6629792 C46.4343872,69.6629792 51.4973754,64.5971185 51.4973754,58.3720208 L51.4973754,23.7577629 C51.6768188,22.6747551 51.6702271,21.5463371 51.4973755,20.4437981 Z M14.5259399,61.8193474 C14.4780273,61.8193474 14.4335937,61.8068962 14.3860473,61.8052483 C14.2572631,61.8176384 14.1325683,61.8441887 14.0005493,61.8441887 C11.7645264,61.8441887 9.9438476,60.0266228 9.9438476,57.7905998 C9.9438476,55.5570183 11.7645263,53.7369499 14.0005493,53.7369499 C14.1324463,53.7369499 14.257019,53.7635612 14.3857422,53.7759514 C14.4333496,53.7743035 14.4779053,53.7617912 14.52594,53.7617912 C16.7509766,53.7617912 18.5546876,55.5655632 18.5546876,57.7905998 C18.5546875,60.0155754 16.7509766,61.8193474 14.5259399,61.8193474 Z M14.5259399,50.1858635 C12.3009033,50.1858635 10.4971923,48.3821526 10.4971923,46.1571159 C10.4971923,43.9320792 12.3009032,42.1283683 14.5259399,42.1283683 C16.7509766,42.1283683 18.5546875,43.9320792 18.5546875,46.1571159 C18.5546875,48.3821526 16.7509766,50.1858635 14.5259399,50.1858635 Z M26.083313,61.8193474 C26.0390625,61.8193474 25.9980469,61.8077507 25.9541626,61.8063469 C25.8287964,61.8180657 25.7077026,61.8441887 25.5793457,61.8441887 C23.3464355,61.8441887 21.52948,60.0266228 21.52948,57.7905998 C21.52948,55.5570183 23.3464356,53.7369499 25.5793457,53.7369499 C25.7075806,53.7369499 25.8286743,53.763134 25.9539185,53.7748527 C25.9979248,53.7734489 26.0390015,53.7617912 26.083313,53.7617912 C28.3083496,53.7617912 30.1121216,55.5655632 30.1121216,57.7905998 C30.1121216,60.0155754 28.3083496,61.8193474 26.083313,61.8193474 Z M26.083313,50.1858635 C23.8583374,50.1858635 22.0545654,48.3821526 22.0545654,46.1571159 C22.0545654,43.9320792 23.8583374,42.1283683 26.083313,42.1283683 C28.3083496,42.1283683 30.1121216,43.9320792 30.1121216,46.1571159 C30.1121216,48.3821526 28.3083496,50.1858635 26.083313,50.1858635 Z M37.6407471,61.8193474 C37.6012574,61.8193474 37.5646973,61.8088494 37.5255127,61.8077507 C37.4048462,61.818615 37.2884522,61.8441887 37.1650391,61.8441887 C34.9283448,61.8441887 33.1082764,60.0266228 33.1082764,57.7905998 C33.1082764,55.5570183 34.9283448,53.7369499 37.1650391,53.7369499 C37.2883301,53.7369499 37.4046631,53.7625847 37.5252076,53.7734489 C37.5645142,53.7722892 37.6011964,53.7617912 37.6407472,53.7617912 C39.8657228,53.7617912 41.6694948,55.5655632 41.6694948,57.7905998 C41.6694946,60.0155754 39.8657227,61.8193474 37.6407471,61.8193474 Z M37.6407471,50.1858635 C35.4157105,50.1858635 33.6119385,48.3821526 33.6119385,46.1571159 C33.6119385,43.9320792 35.4157105,42.1283683 37.6407471,42.1283683 C39.8657227,42.1283683 41.6694947,43.9320792 41.6694947,46.1571159 C41.6694947,48.3821526 39.8657227,50.1858635 37.6407471,50.1858635 Z M42.2341919,23.622509 C42.2341919,28.572216 38.2051392,32.5980949 33.2581177,32.5980949 L18.7791138,32.5980949 C13.8320923,32.5980949 9.8035279,28.572216 9.8035279,23.622509 L9.8035279,20.728466 C9.8035279,15.7782707 13.8320924,11.7499504 18.7791138,11.7499504 L33.2581177,11.7499504 C38.2051392,11.7499504 42.2341919,15.7782707 42.2341919,20.728466 L42.2341919,23.622509 Z" id="Shape"></path>
        </g>
    </g>
</svg>