<?xml version="1.0" encoding="UTF-8"?>
<svg width="68px" height="68px" viewBox="0 0 68 68" version="1.1" xmlns="http://www.w3.org/2000/svg" xmlns:xlink="http://www.w3.org/1999/xlink">
    <!-- Generator: Sketch 52.3 (67297) - http://www.bohemiancoding.com/sketch -->
    <title>benefits-integration</title>
    <desc>Created with Sketch.</desc>
    <g id="Page-1" stroke="none" stroke-width="1" fill="none" fill-rule="evenodd">
        <g id="benefits-integration" fill="#222222" fill-rule="nonzero">
            <path d="M0.5659637,37.1597176 L0.5659637,31.1736145 C0.5659637,29.935112 1.5292511,28.9718285 2.7677612,28.9718285 L7.7217712,28.9718285 C8.4098358,25.6003457 9.7171325,22.2976685 11.7125091,19.3390198 L8.2034149,15.8299256 C7.3777466,15.0042496 7.3777466,13.5593339 8.2034149,12.7336655 L12.4005585,8.5365067 C13.2262421,7.7108384 14.6711579,7.7108384 15.4968262,8.5365067 L19.0059204,12.0456009 C21.9645691,10.0502396 25.2672501,8.7429276 28.6387329,8.0548706 L28.6387329,3.100853 C28.6387329,1.8623505 29.6020126,0.8990631 30.8405151,0.8990631 L36.826622,0.8990631 C38.0651245,0.8990631 39.0284042,1.8623505 39.0284042,3.100853 L39.0284042,8.0548706 C42.3998947,8.7429275 45.702568,10.0502396 48.6612167,12.0456009 L52.1703109,8.5365067 C52.9959792,7.7108384 54.4409103,7.7108384 55.2665786,8.5365067 L59.4637298,12.7336655 C60.2893981,13.5593338 60.2893981,15.0042496 59.4637298,15.8299256 L55.9546356,19.3390198 C57.9500046,22.2976685 59.2573166,25.6003456 59.9453735,28.9718285 L64.8993835,28.9718285 C66.1378936,28.9718285 67.1011657,29.935112 67.1011657,31.1736145 L67.1011657,37.1597176 C67.1011657,38.3982239 66.137886,39.3615036 64.8993835,39.3615036 L59.9453735,39.3615036 C59.2573166,42.7329903 57.9500045,46.0356636 55.9546356,48.9943161 L59.4637298,52.5034103 C60.2893981,53.3290786 60.2893981,54.774002 59.4637298,55.5996704 L55.2665786,59.7968216 C54.4409103,60.6224899 52.9959792,60.6224899 52.1703109,59.7968216 L48.6612167,56.2877274 C45.702568,58.2830964 42.3998947,59.5904084 39.0284118,60.2784653 L39.0284118,65.232481 C39.0284118,66.4709873 38.0651244,67.4342632 36.8266219,67.4342632 L30.8405227,67.4342632 C29.6020126,67.4342632 28.6387328,66.4709816 28.6387328,65.232481 L28.6387328,60.2784653 C26.9873961,59.9344368 25.4048613,59.4527989 23.8911361,58.8335457 L31.8038024,50.9208794 C36.75782,51.5401345 41.9182509,49.888794 45.7713775,46.1044731 C52.3767318,39.4991188 52.3767318,28.8342209 45.7713775,22.2288666 C39.1660156,15.6235123 28.5011215,15.6235123 21.8957671,22.2288666 C18.1114501,26.0131836 16.4601134,31.242424 17.0793608,36.1964379 L9.097885,44.1779099 C8.4786376,42.5953789 7.9969939,41.0128441 7.6529692,39.4303093 L2.6989439,39.4303093 C1.5292511,39.3615036 0.5659637,38.3982239 0.5659637,37.1597176 Z M1.3916321,62.4114437 L5.5887909,66.6085968 C6.4832611,67.5030746 7.8593903,67.5030746 8.7538605,66.6085968 L33.1111069,42.2513466 L36.9642334,46.1044693 C37.3770676,46.5173035 38.1339264,46.3108902 38.2715454,45.6916351 L41.7118301,27.1828766 C41.7806396,26.632431 41.3678054,26.2195931 40.8173599,26.2884026 L22.3086014,29.7286911 C21.6893463,29.8663025 21.4829331,30.5543632 21.8957672,31.0360031 L25.7488937,34.8891258 L1.391632,59.3151836 C0.4971619,60.2096615 0.4971619,61.5857773 1.3916321,62.4114437 Z" id="Shape"></path>
        </g>
    </g>
</svg>