<?xml version="1.0" encoding="UTF-8"?>
<svg width="56px" height="70px" viewBox="0 0 56 70" version="1.1" xmlns="http://www.w3.org/2000/svg" xmlns:xlink="http://www.w3.org/1999/xlink">
    <!-- Generator: Sketch 52.3 (67297) - http://www.bohemiancoding.com/sketch -->
    <title>benefits-city-8</title>
    <desc>Created with Sketch.</desc>
    <g id="Page-1" stroke="none" stroke-width="1" fill="none" fill-rule="evenodd">
        <g id="benefits-city-8" fill="#222222">
            <path d="M53.7675781,22.4710274 L27.6191635,46.6853867 C26.9228973,47.304287 26.1492767,47.6137314 25.2982941,47.6137314 C24.3699494,47.6137314 23.5189667,47.2269211 22.8227043,46.6080208 L10.7542038,34.1527176 C10.3673935,33.7659054 10.3673935,33.0696449 10.7542038,32.6828346 L14.1581421,29.3562603 C14.5449524,28.96945 15.2412109,28.96945 15.6280251,29.3562603 L24.7567597,38.6397209 C25.14357,39.026535 25.7624665,39.026535 26.2266465,38.6397209 L53.1486817,13.8064632 C53.6902161,13.3422899 53.535492,12.4139442 52.9165955,12.1044941 L28.8569565,0.2680805 C28.3927841,0.0359938 27.77388,0.0359938 27.3097153,0.2680805 L1.7028275,12.9554785 C1.006569,13.2649267 0.6197587,13.9611862 0.6197587,14.6574476 L0.6197587,44.3645284 C0.6197587,44.5966146 0.6197587,44.7513387 0.6971208,44.9834249 C1.7028314,47.7684667 7.1955453,66.5674741 27.7738801,69.7393186 C28.0059663,69.7393186 28.160698,69.7393186 28.3927766,69.7393186 C48.5843125,66.6448362 54.309105,48.3873594 55.3921891,45.1381452 C55.4695435,44.828697 55.5469056,44.5192487 55.5469056,44.2098005 L55.5469056,23.2446499 C55.5469055,22.3936634 54.4638367,21.929493 53.7675781,22.4710274 Z" id="Path"></path>
        </g>
    </g>
</svg>