<?xml version="1.0" encoding="UTF-8"?>
<svg width="58px" height="51px" viewBox="0 0 58 51" version="1.1" xmlns="http://www.w3.org/2000/svg" xmlns:xlink="http://www.w3.org/1999/xlink">
    <!-- Generator: Sketch 52.3 (67297) - http://www.bohemiancoding.com/sketch -->
    <title>benefits-cost</title>
    <desc>Created with Sketch.</desc>
    <g id="Page-1" stroke="none" stroke-width="1" fill="none" fill-rule="evenodd">
        <g id="benefits-cost" fill="#C64721">
            <g id="Group">
                <path d="M52.9753418,8.0658569 C55.4666138,10.1722412 57.0547485,13.3151855 57.0547486,16.8255004 L57.0547486,38.7126464 C57.0547486,45.0397338 51.9075318,50.1868896 45.5805054,50.1868896 L11.9194947,50.1868896 C5.5924683,50.1868896 0.4452515,45.0397338 0.4452515,38.7126464 L0.4452515,18.3637084 L0.4452515,16.8255004 L0.4452515,14.8162841 C0.4452515,6.8190307 6.9511719,0.3131103 14.9484253,0.3131103 L44.628479,0.3131103 C49.0371704,0.3131103 52.6531372,3.7380371 52.9753418,8.0658569 Z M44.628479,3.3653564 L14.9484253,3.3653564 C11.9938965,3.3653564 9.3060303,4.4996948 7.2727051,6.3435058 C8.6950074,5.7104492 10.2648926,5.3513183 11.9194947,5.3513183 L45.5805054,5.3513183 C46.8314209,5.3513183 48.03302,5.5593872 49.1610718,5.9311523 C48.2246094,4.399414 46.5515747,3.3653564 44.628479,3.3653564 Z M54.0025024,38.7126465 L54.0025024,16.8255005 C54.0025024,12.1817016 50.2243652,8.4035034 45.5805053,8.4035034 L11.9194946,8.4035034 C7.2756347,8.4035034 3.4974975,12.1817017 3.4974975,16.8255005 L3.4974975,18.3637085 L3.4974975,38.7126465 C3.4974975,43.3565064 7.2756347,47.1346436 11.9194946,47.1346436 L45.5805053,47.1346436 C50.2243652,47.1346436 54.0025024,43.3565064 54.0025024,38.7126465 Z" id="Shape" fill-rule="nonzero"></path>
                <path d="M55.5286102,34.6112671 L41.0673828,34.6112671 C37.2944946,34.6112671 34.2252045,31.5419769 34.2252045,27.7690888 C34.2252045,23.9962007 37.2944947,20.9269105 41.0673828,20.9269105 L55.5286102,20.9269105 C56.14682,20.9269105 56.6476593,21.4277421 56.6476593,22.0459519 L56.6476593,33.4922257 C56.6476593,34.1104279 56.1468201,34.6112671 55.5286102,34.6112671 Z M41.0673828,23.1649933 C38.5287323,23.1649933 36.4632873,25.2304382 36.4632873,27.7690888 C36.4632873,30.3077317 38.5287322,32.3731843 41.0673828,32.3731843 L54.4095764,32.3731843 L54.4095764,23.1649933 L41.0673828,23.1649934 Z" id="Shape" fill-rule="nonzero"></path>
                <circle id="Oval" cx="40.8626099" cy="27.769043" r="1.5142664"></circle>
            </g>
            <path d="M10.9309692,27.7653427 L12.8304824,27.7653427 L12.8304824,17.4030685 L18.2996825,17.4030685 C19.5085295,17.4030685 20.5303725,17.5038528 21.3651961,17.7051467 C22.2000197,17.9067153 22.9434889,18.2281951 23.5958861,18.6695861 C24.3633422,19.1875152 24.9583281,19.8258895 25.3805998,20.5836486 C25.8025816,21.3419418 26.0138548,22.315544 26.0138548,23.5052642 C26.0138548,24.3880538 25.8554075,25.2134399 25.5387724,25.9806289 C25.2221373,26.748352 24.7855986,27.4104461 24.2291411,27.9669112 C23.5384825,28.6575621 22.7179411,29.1757582 21.768051,29.5212249 C20.8181685,29.8666839 19.623596,30.0394134 18.1846159,30.0394134 L15.5076826,30.0394134 L15.5076826,31.9391937 L24.862396,31.9391937 L24.862396,34.2418289 L15.5076826,34.2418289 L15.5076826,37.5520248 L12.8304823,37.5520248 L12.8304823,34.2418289 L10.9309691,34.2418289 L10.9309691,31.9391937 L12.8304823,31.9391937 L12.8304823,30.0679779 L10.9309691,30.0679779 L10.9309691,27.7653427 Z M23.2218475,23.5629272 C23.2218475,22.8720016 23.096817,22.2675781 22.847557,21.749382 C22.59803,21.2311859 22.2331619,20.8094635 21.7537689,20.4828644 C21.3121109,20.2144699 20.8133163,20.0177536 20.2568588,19.8927231 C19.7001266,19.7682266 19.0000381,19.7057038 18.1557846,19.7057038 L15.5076828,19.7057038 L15.5076828,27.7653428 L17.752655,27.7653428 C18.8464431,27.7653428 19.7289581,27.6645585 20.4010238,27.4629975 C21.0722808,27.2616959 21.6193084,26.9499207 22.0415649,26.5276566 C22.4826965,26.1056672 22.7898941,25.6545716 22.9626236,25.1746369 C23.1353607,24.6952515 23.2218475,24.1579208 23.2218475,23.5629272 Z" id="Shape" fill-rule="nonzero"></path>
        </g>
    </g>
</svg>