<?xml version="1.0" encoding="UTF-8"?>
<svg width="130px" height="73px" viewBox="0 0 130 73" version="1.1" xmlns="http://www.w3.org/2000/svg" xmlns:xlink="http://www.w3.org/1999/xlink">
    <!-- Generator: Sketch 52.3 (67297) - http://www.bohemiancoding.com/sketch -->
    <title>benefits-city-1</title>
    <desc>Created with Sketch.</desc>
    <g id="Page-1" stroke="none" stroke-width="1" fill="none" fill-rule="evenodd">
        <g id="benefits-city-1" fill="#222222">
            <path d="M36.4116211,0.8449719 C16.5321045,0.8449719 0.3399658,17.0371716 0.3399658,36.9166882 C0.3399658,56.7961438 16.5321045,72.9883435 36.4116211,72.9883435 C56.2911377,72.9883435 72.4832764,56.7961426 72.4832764,36.916687 C72.4832764,17.0371714 56.2911377,0.8449719 36.4116211,0.8449719 Z M33.3655396,19.6022348 C33.3655396,17.9990854 34.8084107,16.7164926 36.4116211,16.7164926 C38.0147705,16.7164926 39.2973633,17.9990854 39.2973633,19.6022348 L39.2973633,35.9547739 C39.2973633,37.7182608 38.0147705,39.0007925 36.4116211,39.0007925 C34.8084107,39.0007925 33.3655396,37.7182608 33.3655396,35.9547739 L33.3655396,19.6022348 Z M36.4116211,57.1168213 C26.4718628,57.1168213 18.2956543,48.9405518 18.2956543,39.0007935 C18.2956543,30.8245259 23.9067993,23.9308491 31.2814331,21.8466816 L31.2814331,26.9769306 C26.6322021,28.9007587 23.2655029,33.5499897 23.2655029,39.0007934 C23.2655029,46.3754272 29.1972656,52.3072509 36.4116211,52.3072509 C43.6259766,52.3072509 49.5577393,46.3754272 49.5577393,39.0007934 C49.5577393,33.5499896 46.1910401,28.9007587 41.5418091,26.9769306 L41.5418091,21.8466816 C48.9164429,23.9308491 54.3673096,30.8245258 54.3673096,39.0007935 C54.3673096,48.9405518 46.3513794,57.1168213 36.4116211,57.1168213 Z" id="Shape" fill-rule="nonzero"></path>
            <g id="Group" transform="translate(58.000000, 1.000000)">
                <path d="M36.1514435,0.637774 C55.8527298,0.637774 71.8267365,16.6117883 71.8267365,36.3180947 C71.8267365,56.0193772 55.8527298,71.9883637 36.1514435,71.9883637 C16.4501572,71.9883637 0.4761505,56.0193772 0.4761505,36.3180947 C0.4761505,16.6117878 16.4501648,0.637774 36.1514435,0.637774 Z M36.1514435,65.9654617 C52.5273209,65.9654617 65.7988129,52.6889496 65.7988129,36.3180961 C65.7988129,19.9422178 52.5273133,6.6657028 36.1514435,6.6657028 C19.7755737,6.6657028 6.5040817,19.9422187 6.5040817,36.3180961 C6.5040817,52.6889496 19.7755737,65.9654617 36.1514435,65.9654617 Z" id="Combined-Shape"></path>
                <path d="M36.1514435,12.6961451 C34.4837189,12.6961451 33.1374817,14.0474062 33.1374817,15.7151328 L33.1374817,36.2703734 C33.1374817,36.2753974 33.1374817,36.2804175 33.1374817,36.2854415 C33.1324616,37.0690719 33.4187851,37.8527061 34.0165558,38.4504729 L48.5840531,53.0129462 C49.1717759,53.6056967 49.9403382,53.8970443 50.7139207,53.8970443 C51.482483,53.8970443 52.2560655,53.6056968 52.8437883,53.0129462 C54.0192339,51.8375006 54.0192339,49.9286566 52.8437883,48.7532111 L39.1654129,35.0748367 L39.1654129,15.7151327 C39.1654129,14.0474062 37.8191757,12.6961451 36.1514435,12.6961451 Z" id="Path"></path>
            </g>
        </g>
    </g>
</svg>