<?xml version="1.0" encoding="UTF-8"?>
<svg width="65px" height="62px" viewBox="0 0 65 62" version="1.1" xmlns="http://www.w3.org/2000/svg" xmlns:xlink="http://www.w3.org/1999/xlink">
    <!-- Generator: Sketch 52.3 (67297) - http://www.bohemiancoding.com/sketch -->
    <title>city</title>
    <desc>Created with Sketch.</desc>
    <g id="Page-1" stroke="none" stroke-width="1" fill="none" fill-rule="evenodd">
        <g id="city" fill="#222222">
            <path d="M62.7364349,13.0659389 L64.0918731,11.5019845 C58.8786926,7.0186481 51.1631774,7.0186481 46.0542602,11.5019845 L47.4096832,13.0659389 C51.8930206,9.2081842 58.3573608,9.2081842 62.7364349,13.0659389 Z" id="Path"></path>
            <path d="M61.068222,14.6298923 C57.731781,11.5019836 52.5186004,11.5019836 49.1821746,14.6298923 L50.6418609,16.0895824 C53.1441955,13.6915206 57.1062164,13.6915206 59.6085357,16.0895824 L61.068222,14.6298923 Z" id="Path"></path>
            <path d="M51.3717041,17.6535397 L52.7271271,19.3217583 C54.1868286,18.2791214 56.1678314,18.2791214 57.6275177,19.3217583 L58.9829559,17.6535397 C56.6891479,15.985321 53.5612335,15.985321 51.3717041,17.6535397 Z" id="Path"></path>
            <path d="M61.381012,26.8287392 C61.381012,26.2031575 60.9639588,25.7861023 60.3383789,25.7861023 L56.1678314,25.7861023 L56.1678314,20.5729218 L54.0825653,20.5729218 L54.0825653,25.7861023 L35.3151016,25.7861023 C34.6895218,25.7861023 34.2724685,26.2031574 34.2724685,26.8287392 L34.2724685,59.150467 L32.1871948,59.150467 L32.1871948,26.8287392 C32.1871948,25.0562573 33.5426178,23.7008305 35.3151016,23.7008305 L37.4003753,23.7008305 L37.4003753,16.4023762 L31.1445617,16.4023762 L31.1445617,18.487648 L29.059288,18.487648 L29.059288,16.4023762 L22.8034668,16.4023762 C19.7798233,16.4023762 17.173233,14.2128392 16.6519089,11.1891938 L9.2491913,11.1891938 C8.6236115,11.1891938 8.2065582,11.606248 8.2065582,12.2318307 L8.2065582,30.373703 C10.0833053,31.2078133 11.334465,33.0845566 11.334465,35.1698303 L11.334465,49.7667389 C11.334465,51.4349556 10.5003586,52.9989128 9.2491913,53.9372864 L9.2491913,59.1504669 L7.1639176,59.1504669 L7.1639176,52.6861229 C8.4150849,52.2690659 9.2491913,51.1221657 9.2491913,49.7667389 L9.2491913,35.1698303 C9.2491913,33.3973465 7.8937683,32.0419197 6.1212845,32.0419197 C4.3488007,32.0419197 2.9933777,33.3973465 2.9933777,35.1698303 L2.9933777,49.7667389 C2.9933777,51.1221657 3.8274841,52.2690697 5.0786514,52.6861229 L5.0786514,59.1504669 L0.9081039,59.1504669 L0.9081039,61.2357406 L63.4662933,61.2357406 L63.4662933,59.1504669 L61.3810119,59.1504669 L61.3810119,26.8287392 Z M20.7181931,32.0419197 L20.7181931,37.2551041 L15.5050126,37.2551041 L15.5050126,32.0419197 L20.7181931,32.0419197 Z M20.7181931,41.4256477 L20.7181931,46.6388321 L15.5050126,46.6388321 L15.5050126,41.4256477 L20.7181931,41.4256477 Z M11.334465,21.6155567 L18.6329193,21.6155567 L18.6329193,27.871376 L11.334465,27.871376 L11.334465,21.6155567 Z M28.0166473,59.1504669 L15.5050125,59.1504669 L15.5050125,51.8520126 L28.0166473,51.8520126 L28.0166473,59.1504669 Z M28.0166473,46.6388321 L22.8034668,46.6388321 L22.8034668,41.4256477 L28.0166473,41.4256477 L28.0166473,46.6388321 Z M28.0166473,37.2551041 L22.8034668,37.2551041 L22.8034668,32.0419197 L28.0166473,32.0419197 L28.0166473,37.2551041 Z M28.0166473,27.871376 L20.718193,27.871376 L20.718193,21.6155567 L28.0166473,21.6155567 L28.0166473,27.871376 Z M41.5709229,56.0225601 L37.4003754,56.0225601 L37.4003754,49.7667389 L41.5709229,49.7667389 L41.5709229,56.0225601 Z M41.5709229,45.5961952 L37.4003754,45.5961952 L37.4003754,39.3403778 L41.5709229,39.3403778 L41.5709229,45.5961952 Z M41.5709229,35.1698303 L37.4003754,35.1698303 L37.4003754,28.9140129 L41.5709229,28.9140129 L41.5709229,35.1698303 Z M49.9120178,56.0225601 L45.7414703,56.0225601 L45.7414703,49.7667389 L49.9120178,49.7667389 L49.9120178,56.0225601 Z M49.9120178,45.5961952 L45.7414703,45.5961952 L45.7414703,39.3403778 L49.9120178,39.3403778 L49.9120178,45.5961952 Z M49.9120178,35.1698303 L45.7414703,35.1698303 L45.7414703,28.9140129 L49.9120178,28.9140129 L49.9120178,35.1698303 Z M58.2530975,56.0225601 L54.0825653,56.0225601 L54.0825653,49.7667389 L58.2530975,49.7667389 L58.2530975,56.0225601 Z M58.2530975,45.5961952 L54.0825653,45.5961952 L54.0825653,39.3403778 L58.2530975,39.3403778 L58.2530975,45.5961952 Z M58.2530975,35.1698303 L54.0825653,35.1698303 L54.0825653,28.9140129 L58.2530975,28.9140129 L58.2530975,35.1698303 Z" id="Shape" fill-rule="nonzero"></path>
            <path d="M22.8034668,14.3171024 L29.059288,14.3171024 L29.059288,8.061284 L31.1445617,8.061284 L31.1445617,14.3171024 L37.4003753,14.3171024 C39.6941757,14.3171024 41.5709228,12.4403572 41.5709228,10.1465568 C41.5709228,7.8527564 39.6941757,5.9760112 37.4003753,5.9760112 L36.2534789,5.9760112 C35.7321624,2.5353111 32.4999923,0.2415113 29.0592879,0.867093 C26.4526976,1.2841477 24.3674239,3.3694204 23.9503707,5.9760112 L22.8034667,5.9760112 C20.5096663,5.9760112 18.6329192,7.8527574 18.6329192,10.1465568 C18.6329192,12.4403562 20.5096664,14.3171024 22.8034668,14.3171024 Z" id="Path"></path>
        </g>
    </g>
</svg>