<?xml version="1.0" encoding="UTF-8"?>
<svg width="22px" height="32px" viewBox="0 0 22 32" version="1.1" xmlns="http://www.w3.org/2000/svg" xmlns:xlink="http://www.w3.org/1999/xlink">
    <!-- Generator: Sketch 52.4 (67378) - http://www.bohemiancoding.com/sketch -->
    <title>commerc</title>
    <desc>Created with Sketch.</desc>
    <g id="Page-1" stroke="none" stroke-width="1" fill="none" fill-rule="evenodd">
        <g id="Commerc_off" fill="#FFFFFF">
            <g id="commerc">
                <path d="M19.6940002,31.0369987 L2.3059998,31.0369987 C1.0879994,31.0369987 0.0960007,30.0459976 0.0960007,28.8269996 L0.0960007,3.1720009 C0.0960007,1.9540005 1.0869999,0.9630013 2.3059998,0.9630013 L19.6940003,0.9630013 C20.9119988,0.9630013 21.9039994,1.9540005 21.9039994,3.1720009 L21.9039994,28.8280029 C21.9039993,30.0460014 20.9119987,31.0369987 19.6940002,31.0369987 Z M2.3059998,2.2639999 C1.8050003,2.2639999 1.3979989,2.6709995 1.3979989,3.1720008 L1.3979989,28.8280028 C1.3979989,29.3290023 1.8049985,29.7360037 2.3059998,29.7360037 L19.6940003,29.7360037 C20.1949998,29.7360037 20.6020012,29.3290022 20.6020012,28.8280028 L20.6020012,3.1720008 C20.6020012,2.6720008 20.1949997,2.2639999 19.6940003,2.2639999 L2.3059998,2.2639999 Z" id="Shape" fill-rule="nonzero"></path>
                <path d="M18.0600014,6.3409996 L3.9400005,6.3409996 C3.677,6.3409996 3.4630012,6.1280003 3.4630012,5.8640003 C3.4630012,5.6000003 3.6770019,5.387001 3.9400005,5.387001 L18.0600013,5.387001 C18.3230018,5.387001 18.5370025,5.6000003 18.5370025,5.8640003 C18.5370025,6.1280003 18.3230019,6.3409996 18.0600014,6.3409996 Z" id="Path"></path>
                <path d="M18.0600014,10.6790009 L3.9400005,10.6790009 C3.677,10.6790009 3.4630012,10.4660016 3.4630012,10.2020016 C3.4630012,9.9380016 3.6770019,9.7250023 3.9400005,9.7250023 L18.0600013,9.7250023 C18.3230018,9.7250023 18.5370025,9.9380016 18.5370025,10.2020016 C18.5370025,10.4660016 18.3230019,10.6790009 18.0600014,10.6790009 Z" id="Path"></path>
                <path d="M18.0600014,15.0169983 L3.9400005,15.0169983 C3.677,15.0169983 3.4630012,14.803997 3.4630012,14.5399971 C3.4630012,14.2759972 3.6770019,14.0629959 3.9400005,14.0629959 L18.0600013,14.0629959 C18.3230018,14.0629959 18.5370025,14.2759972 18.5370025,14.5399971 C18.5369987,14.8030014 18.3230019,15.0169983 18.0600014,15.0169983 Z" id="Path"></path>
                <path d="M14.9080009,19.3540001 L3.9400005,19.3540001 C3.677,19.3540001 3.4630012,19.1409988 3.4630012,18.8769989 C3.4630012,18.612999 3.6770019,18.3999977 3.9400005,18.3999977 L14.9080009,18.3999977 C15.1710014,18.3999977 15.3850021,18.612999 15.3850021,18.8769989 C15.3849983,19.1409988 15.1720009,19.3540001 14.9080009,19.3540001 Z" id="Path"></path>
                <path d="M14.9080009,23.6920013 L3.9400005,23.6920013 C3.677,23.6920013 3.4630012,23.479 3.4630012,23.2150001 C3.4630012,22.9510002 3.6770019,22.7379989 3.9400005,22.7379989 L14.9080009,22.7379989 C15.1710014,22.7379989 15.3850021,22.9510002 15.3850021,23.2150001 C15.3849983,23.4790001 15.1720009,23.6920013 14.9080009,23.6920013 Z" id="Path"></path>
            </g>
        </g>
    </g>
</svg>