<?xml version="1.0" encoding="UTF-8"?>
<svg width="20px" height="22px" viewBox="0 0 20 22" version="1.1" xmlns="http://www.w3.org/2000/svg" xmlns:xlink="http://www.w3.org/1999/xlink">
    <!-- Generator: Sketch 52.3 (67297) - http://www.bohemiancoding.com/sketch -->
    <title>enter</title>
    <desc>Created with Sketch.</desc>
    <g id="Page-1" stroke="none" stroke-width="1" fill="none" fill-rule="evenodd">
        <g id="Enter_off" fill="#FFFFFF">
            <g id="enter">
                <path d="M6.7769966,17.3840866 L6.7769966,13.8640518 L5.4826298,13.8640518 L5.4826298,18.1587066 C5.4826298,18.5039863 5.7621174,18.783718 6.1076393,18.783718 L9.9359169,18.783718 L9.9359169,21.4574889 C9.9359169,21.8554 10.2375755,22.0627631 10.6096573,21.9194869 C12.6849823,21.1209868 18.8427277,18.7522849 18.8473587,18.7503356 C18.8658791,18.7422942 18.8831787,18.7327918 18.9004784,18.7232894 C18.9104691,18.7181701 18.9209481,18.7132987 18.9304505,18.7072066 C18.9440957,18.6981887 18.9567681,18.6869811 18.9694367,18.676258 C18.980404,18.667488 18.9916115,18.6601752 19.0016022,18.6501845 C19.0120812,18.6401976 19.0210953,18.6275252 19.0305977,18.6160735 C19.0403443,18.6046218 19.0503349,18.5936583 19.0588646,18.5817145 C19.0676346,18.5685576 19.0744591,18.5544242 19.081768,18.5405348 C19.0885925,18.5283507 19.0966339,18.5168989 19.1019935,18.5034979 C19.1083297,18.4900969 19.1114959,18.4759634 19.1163711,18.4613455 C19.1212425,18.4462393 19.1268463,18.4321058 19.1302604,18.4167555 C19.1329383,18.4050558 19.1334266,18.3921431 19.1351318,18.3799589 C19.1375694,18.3614385 19.1402473,18.3426779 19.1412239,18.3173368 L19.1412239,0.5017586 C19.1412239,0.4900627 19.1387863,0.4798279 19.1378136,0.468132 C19.1370812,0.4510746 19.1363488,0.4340172 19.1326943,0.4167175 C19.1295281,0.3986854 19.123436,0.3811416 19.1180764,0.3633537 C19.1151505,0.3540954 19.1136895,0.3438606 19.1073533,0.3287525 C19.0998002,0.3092594 19.0895654,0.2912292 19.0795747,0.2734413 C19.0742151,0.2641811 19.0700723,0.2549209 19.0642244,0.246149 C19.0539896,0.2300681 19.041321,0.2161788 19.0288927,0.201559 C19.0218279,0.1927852 19.0152475,0.1832828 19.0074503,0.1749992 C18.993561,0.1615963 18.9779665,0.1491699 18.9626162,0.1372299 C18.9545748,0.1308937 18.9475062,0.1235847 18.9392245,0.1182232 C18.9216807,0.106041 18.9026721,0.0962944 18.883179,0.0863037 C18.8761142,0.0826473 18.8690455,0.0780182 18.8614924,0.0746078 C18.8437045,0.0668087 18.8249438,0.061449 18.8061793,0.0560874 C18.7957041,0.0531634 18.7854693,0.0490226 18.7749903,0.046585 C18.7601282,0.0431728 18.7442896,0.0421981 18.7289355,0.0402488 C18.7130969,0.0387878 18.6979907,0.0365943 18.6741107,0.0351333 L6.1073952,0.0351333 C5.7618752,0.0351333 5.4821415,0.3151073 5.4816571,0.6603851 L5.4816571,4.9555301 L6.7760239,4.9555301 L6.7760239,1.435007 C6.7760239,1.3767718 6.8235379,1.329256 6.8817749,1.329256 L15.2230339,1.329256 L10.4298325,3.1726074 C10.1569214,3.277874 9.9356728,3.5997581 9.9356728,3.8921623 L9.9356728,17.4900818 L6.8822613,17.4900818 C6.8235379,17.4900818 6.7765103,17.4420776 6.7765103,17.3840866 L6.7769966,17.3840866 Z" id="Path"></path>
                <path d="M0.858778,8.2067986 L0.858778,10.6127816 C0.858778,10.8118592 1.0200863,10.9734116 1.2191639,10.9734116 L4.5393906,10.9734116 L4.5391465,12.2599793 C4.5389005,12.3793793 4.5847112,12.4992638 4.6760865,12.5906373 C4.8583508,12.7729035 5.1534329,12.7729035 5.3356972,12.5906373 L8.0226288,9.9039498 C8.154213,9.7723694 8.227314,9.5966836 8.227314,9.4090577 C8.227314,9.2226525 8.154213,9.0464822 8.0226288,8.9144135 L5.3356972,6.2282105 C5.1534329,6.0459462 4.8583508,6.0459462 4.6760865,6.2282105 C4.5822736,6.3220234 4.5367089,6.4460507 4.5403634,6.5688592 L4.5403634,7.8459264 L1.219164,7.8459264 C1.0198421,7.8459263 0.8580456,8.0077209 0.858778,8.2067986 Z" id="Path"></path>
            </g>
        </g>
    </g>
</svg>
