<?xml version="1.0" encoding="UTF-8"?>
<svg width="61px" height="60px" viewBox="0 0 61 60" version="1.1" xmlns="http://www.w3.org/2000/svg" xmlns:xlink="http://www.w3.org/1999/xlink">
    <!-- Generator: Sketch 52.4 (67378) - http://www.bohemiancoding.com/sketch -->
    <title>industry</title>
    <desc>Created with Sketch.</desc>
    <g id="Page-1" stroke="none" stroke-width="1" fill="none" fill-rule="evenodd">
        <g id="Industry_off" fill="#222222" fill-rule="nonzero">
            <path d="M15.3586426,1.2000027 C15.3036423,0.5540028 14.7626419,0.0600033 14.116642,0.0600033 L6.6316452,0.0600033 C5.9856415,0.0600033 5.4436417,0.5540028 5.3896484,1.2000027 L0.3996505,58.5840054 C0.3696517,58.9330044 0.4866485,59.2780018 0.7216491,59.534998 C0.9566497,59.7920018 1.2926482,59.9389973 1.6426467,59.9389973 L19.1076469,59.9389973 C19.1226463,59.9389973 19.1396484,59.9369984 19.1576461,59.9389973 C19.8466453,59.9389973 20.4046477,59.3799992 20.4046477,58.6919995 C20.4046477,58.5319997 20.3746489,58.3799992 20.3196486,58.2399998 L15.3586426,1.2000027 Z M59.5546417,17.6420021 C59.1226425,17.4370022 58.6016426,17.505003 58.227642,17.8120022 L45.3036442,28.583004 L45.3036442,18.7730007 C45.3036442,18.2890014 45.0246449,17.8470001 44.5846443,17.6430015 C44.1506443,17.4380016 43.6316452,17.5060024 43.2576446,17.8130016 L30.333641,28.5840034 L30.333641,18.7740001 C30.333641,18.2800006 30.0416412,17.8309993 29.5876426,17.6310005 C29.1386413,17.4260006 28.6066436,17.519001 28.2426414,17.8530006 L20.4236412,25.0210018 C20.1396408,25.2830009 19.9896431,25.6620025 20.0246429,26.0490017 L22.833641,58.8620052 L24.0706405,58.3160038 L22.8236389,58.6930027 C22.8236389,59.3819981 23.382637,59.9399967 24.0706405,59.9399967 L59.0246429,59.9399967 C59.7136421,59.9399967 60.2716417,59.3809986 60.2716417,58.6929989 L60.2716417,18.7720032 C60.2726421,18.288002 59.9936428,17.8460026 59.5546417,17.6420021 Z M37.8186417,46.2160034 C37.8186417,46.9050026 37.2596436,47.463005 36.5716401,47.463005 L29.0866395,47.463005 C28.3976403,47.463005 27.8396379,46.9040031 27.8396379,46.2160034 L27.8396379,38.7310028 C27.8396379,38.0420036 28.398636,37.4840012 29.0866395,37.4840012 L36.5716401,37.4840012 C37.2606393,37.4840012 37.8186417,38.0430031 37.8186417,38.7310028 L37.8186417,46.2160034 Z M52.7886429,46.2160034 C52.7886429,46.9050026 52.2296429,47.463005 51.5416432,47.463005 L44.0566426,47.463005 C43.3676415,47.463005 42.8096429,46.9040031 42.8096429,46.2160034 L42.8096429,38.7310028 C42.8096429,38.0420036 43.368641,37.4840012 44.0566426,37.4840012 L51.5416432,37.4840012 C52.2306424,37.4840012 52.7886429,38.0430031 52.7886429,38.7310028 L52.7886429,46.2160034 Z" id="industry"></path>
        </g>
    </g>
</svg>