<?xml version="1.0" encoding="UTF-8"?>
<svg width="222px" height="95px" viewBox="0 0 222 95" version="1.1" xmlns="http://www.w3.org/2000/svg" xmlns:xlink="http://www.w3.org/1999/xlink">
    <!-- Generator: Sketch 52.4 (67378) - http://www.bohemiancoding.com/sketch -->
    <title>logo-big</title>
    <desc>Created with Sketch.</desc>
    <g id="Page-1" stroke="none" stroke-width="1" fill="none" fill-rule="evenodd">
        <g id="LogoFoot-01" fill="#FFFFFF">
            <g id="logo-big">
                <polygon id="Shape" points="78.1793518 64.1219482 78.1577835 64.1518402 31.3249474 16.8023434 31.4411202 16.7410298 31.6484986 16.6175538 31.8956185 16.504778 32.1344147 16.3670369 32.3616638 16.2675095 32.5921402 16.1431847 32.8294106 16.0287114 33.0615845 15.9067632 33.3104058 15.7980653 33.5359536 15.7036325 33.7730561 15.5940839 34.0284997 15.4763833 34.2608415 15.3693829 34.4962427 15.2764798 34.7384378 15.17865 34.9904863 15.0840474 35.2309801 14.968895 35.4782717 14.8916169 35.7219965 14.7929383 35.9641916 14.7002049 36.2228624 14.6188489 36.4716798 14.5368157 36.7155725 14.4355889 36.9725458 14.3542348 37.2346117 14.2871476 37.4701845 14.1916962 37.7288515 14.1229096 37.987694 14.0408764 38.2514574 13.9727688 38.4902574 13.8858109 38.7506257 13.8343468 39.0094644 13.7523136 39.2713624 13.6966057 39.5334283 13.6278191 39.792267 13.5748291 40.0477106 13.4992485 40.3063814 13.4511833 40.5816957 13.3997211 40.8405344 13.3384075 41.0942804 13.2903423 41.3678934 13.2297096 41.6250345 13.1891174 41.8986513 13.1335773 42.1690409 13.0912876 42.4244845 13.0663204 42.6948741 13.0141792 42.9734157 12.973587 43.2388767 12.943695 43.4943203 12.9121036 43.7662396 12.8755874 44.0349278 12.85079 44.3070149 12.816822 44.6022038 12.809349 44.8642697 12.7820052 45.1297345 12.7553386 45.4099736 12.7346191 45.6754346 12.7147464 45.9689221 12.6940269 46.2442364 12.6857032 46.5030789 12.6857032 46.7965664 12.6692294 47.0652546 12.6692294 47.3522877 12.660057 47.6374554 12.6692294 47.8531536 12.660057 48.0819324 12.660057 48.3025554 12.6692294 48.5332034 12.6692294 48.7455066 12.6857032 48.9644321 12.6857032 49.1833614 12.6940269 49.4089092 12.7147464 49.6278385 12.7222194 49.8418392 12.7346191 50.0624622 12.7553386 50.2779926 12.7628116 50.4969219 12.7952518 50.7224697 12.7952518 50.9315456 12.816822 51.1603244 12.85079 51.3809512 12.8614902 51.5783046 12.8905334 51.8106502 12.9121036 52.0129322 12.943695 52.2451061 12.973587 52.454182 13.0009308 52.6630901 13.0389767 52.8787883 13.0663205 53.0810703 13.0912877 53.310017 13.1335774 53.5156978 13.1775666 53.7213786 13.2230855 53.9403041 13.2422772 54.1658557 13.2903424 54.3632129 13.3243104 54.5855335 13.369999 54.7861179 13.4105912 54.9984211 13.4678288 55.1974758 13.4992486 55.4131779 13.5631104 55.6287083 13.6145726 55.8294606 13.6543141 56.0334401 13.7098542 56.2489705 13.7523137 56.4546513 13.8119279 56.653706 13.8725625 56.8694042 13.9272519 57.0618366 13.9868661 57.2675136 14.0408765 57.4697956 14.1096631 57.685326 14.1792985 57.8745312 14.233307 58.0851368 14.2871476 58.267548 14.3542348 58.4915699 14.4223424 58.6789059 14.4953748 58.8762631 14.565859 59.0720906 14.6337949 59.2775998 14.7109033 59.4766545 14.7830869 59.6757092 14.8486463 59.8681416 14.9315301 60.0605702 14.9962388 60.2694783 15.0840474 60.4586797 15.1470586 60.6626668 15.2408124 60.8649449 15.3162213 61.0473561 15.3984261 61.2314686 15.4763833 61.4339146 15.5675889 61.6229557 15.6480943 61.8186115 15.7425271 61.9894718 15.8221818 62.1902241 15.9067632 62.3760304 16.0112172 62.5584416 16.0966473 62.7641224 16.1820774 62.9531559 16.291626 63.1272434 16.3670368 63.3064274 16.4674129 63.6795735 16.6788673 64.0612111 16.8679008 64.2385259 16.9791488 64.4194036 17.0712032 64.5934911 17.1673336 64.7776036 17.2760334 64.9584889 17.3845615 65.1359715 17.4964885 65.3216099 17.5919399 65.4841465 17.7021675 65.8491367 17.9302654 66.1940921 18.1583633 66.5441364 18.3732147 66.8957065 18.6103134 67.0533222 18.731411 67.2190861 18.854208 67.3982701 18.9618874 67.5608067 19.0921574 67.9224019 19.3343525 68.2575002 19.5846996 68.4100194 19.7158184 68.5725637 19.8435402 68.7451177 19.9654865 68.8976369 20.0889606 69.0701985 20.2233066 69.2310414 20.3518772 69.3918767 20.4853725 69.539475 20.6090183 69.7054067 20.7491379 69.8596273 20.8792382 70.017243 21.021906 70.1847 21.1654224 70.333992 21.2922935 70.493309 21.4349613 70.642601 21.5725345 70.7917175 21.7077293 70.9461059 21.8578701 71.110176 21.9922142 71.2528457 22.1489792 71.4021301 22.2907982 71.558052 22.4392395 71.7073364 22.5661125 71.8500061 22.7186298 71.9843521 22.8721676 75.5901031 19.2282009 75.4194107 19.0524139 75.2618027 18.8790054 75.074295 18.720541 74.925003 18.5490017 74.7393646 18.3864613 74.5734329 18.2239228 74.397644 18.0605355 74.2152328 17.8913708 74.0394439 17.7444573 73.8668823 17.58107 73.6844711 17.423626 73.5018921 17.2626153 73.3327332 17.1134931 73.150322 16.9409334 72.9828568 16.7933409 72.7887269 16.6448996 72.5930711 16.5047781 72.4205095 16.348015 72.2297746 16.19125 72.052292 16.0394117 71.8500062 15.8918172 71.6742173 15.7425271 71.4850159 15.6015569 71.2827378 15.4522668 70.9044953 15.17865 70.534752 14.8916169 70.3339921 14.7606679 70.1383363 14.6188489 69.9358827 14.4845048 69.7368318 14.3386098 69.3421174 14.0823175 68.9441758 13.8119279 68.5360413 13.5490132 68.1479569 13.2978154 67.9256287 13.1775666 67.7216492 13.0539227 67.5210648 12.9253521 67.3136902 12.8093491 67.1129379 12.694027 66.8957061 12.5778542 66.6900253 12.4501324 66.4860458 12.3341313 66.0565185 12.1043339 65.6368331 11.8937283 65.419609 11.7777272 65.2056045 11.6698762 64.9832839 11.5752755 64.7776031 11.4665757 64.5488281 11.3514233 64.3463745 11.2568207 64.1308441 11.1474419 63.9052963 11.0412903 63.679573 10.9541617 63.4706649 10.8430844 63.2468108 10.762579 63.0195617 10.6547299 62.7889175 10.5577498 62.5750885 10.4648457 62.3559875 10.3836613 62.1255187 10.280737 61.9082869 10.2077046 61.6761092 10.1057988 61.4503936 10.0252934 61.2115936 9.9424105 61.0026855 9.8411846 60.7671127 9.7781734 60.5315475 9.6895151 60.3160171 9.6181812 60.0704193 9.5410728 59.8598175 9.4622659 59.6193199 9.390933 59.3854484 9.3046522 59.154972 9.2241478 58.9093818 9.1711569 58.6789054 9.1015215 58.4599761 9.0184679 58.2128562 8.9663267 57.9806823 8.89822 57.7417144 8.8262071 57.4945945 8.7772922 57.2675132 8.7083358 57.0186958 8.6502504 56.7931442 8.580615 56.5492515 8.5400228 56.3170776 8.4853334 56.07658 8.4172268 55.8427085 8.3766346 55.5955886 8.3219452 55.3467673 8.2672558 55.0996474 8.2273426 54.8657759 8.1875992 54.6203535 8.1262865 54.3781584 8.0855246 54.1325644 8.0440827 53.8805197 8.0250607 53.6383246 7.9695225 53.3796538 7.9362326 53.1490096 7.8973389 52.8986586 7.8682957 52.6598624 7.8418007 52.4076461 7.8010388 52.1622237 7.7745429 51.9067801 7.7463494 51.6613577 7.7115317 51.4157675 7.6933585 51.1603239 7.68079 50.9183004 7.6493693 50.6677816 7.6186276 50.4024885 7.6096259 50.1553686 7.5996056 49.9163969 7.5838099 49.6577299 7.5622406 49.4022863 7.5573149 49.153465 7.5357447 48.9014203 7.5357447 48.6393544 7.5241957 48.3871381 7.5241957 48.1350934 7.5133257 47.8845746 7.5133257 47.6374547 7.4966812 47.3106763 7.5133257 46.9939229 7.5241957 46.6722409 7.5241957 46.3553159 7.5357447 46.0353315 7.5357447 45.7267263 7.5573149 45.4099729 7.5622406 45.099838 7.5996056 44.7681386 7.6096259 44.4661595 7.6378203 44.1444775 7.665165 43.8326451 7.6933585 43.5242116 7.7322522 43.2089841 7.7595969 42.9121015 7.7862626 42.6051938 7.8418008 42.2884404 7.8682958 41.9783093 7.9080392 41.6681744 7.9494811 41.3678929 8.0250607 41.0560643 8.0564814 40.7608792 8.1188136 40.4458195 8.1743518 40.1538616 8.2273427 39.8320118 8.2820321 39.5334278 8.3518372 39.2316166 8.4022808 38.934734 8.4853334 38.63615 8.5400228 38.3360401 8.6213769 38.0457798 8.6867665 37.7555157 8.7772921 37.455238 8.8469275 37.1600491 8.9398316 36.8631665 9.00607 36.5662801 9.1015214 36.279247 9.181857 35.9791371 9.2839316 35.6954991 9.3601912 35.3986165 9.4622658 35.1282269 9.5566986 34.8296429 9.648753 34.5443074 9.7474316 34.2608411 9.8552817 33.9772069 9.9490346 33.6918714 10.0658855 33.4165571 10.1720371 33.1346166 10.2807369 32.8492811 10.3902845 32.5639456 10.5180063 32.2952574 10.6323099 32.0000723 10.7459345 31.7414015 10.877902 31.4626883 10.9939041 31.1906012 11.1224747 30.906967 11.2568207 30.6367455 11.38624 30.3746796 11.5007133 30.1126137 11.6359081 29.8372994 11.7777271 29.5652123 11.9069767 29.3065415 12.0571175 29.0378495 12.2055588 28.7773133 12.3341313 28.52034 12.4900455 28.2384034 12.6318645 27.9861871 12.7820053 27.732443 12.9253521 27.4753019 13.0797386 27.2198583 13.2297096 26.9712087 13.3997211 26.715767 13.5490131 26.4503022 13.7098541 26.2181283 13.8725624 25.9494382 14.0408764 25.7040158 14.2042637 25.4650479 14.3899021 25.20298 14.5475159 24.9791278 14.7233029 24.7354049 14.8916169 24.4932098 15.0724984 24.242691 15.2408124 24.0154438 15.4266206 23.771719 15.6015569 23.5278263 15.7773439 23.2890282 15.9789468 23.0667038 16.1513368 22.8362274 16.348015 22.6040535 16.523802 22.3701801 16.7327082 22.142931 16.9210627 21.9338551 17.1134932 21.6967545 17.3074534 21.4810563 17.4964888 21.2621289 17.7021677 21.033352 17.891371 20.8127271 18.1002772 20.5987245 18.3042586 20.379799 18.5141833 20.1775151 18.7205413 19.9485684 18.9362414 19.7462864 19.146847 19.5421352 19.3475993 19.32168 19.5714515 19.1160011 19.7912277 18.9135494 19.9977573 18.7161922 20.2109092 18.5105133 20.4330619 18.3180828 20.6620105 18.1108742 20.8792384 17.913517 21.1165088 17.7193871 21.3420585 17.5237294 21.5584377 17.3445454 21.7873844 17.1354695 22.0253338 16.9596825 22.2534317 16.770649 22.4723591 16.5782166 22.7186302 16.3891831 22.9559006 16.2150937 23.1923203 16.0342122 23.4343457 15.8650494 23.6716161 15.6826382 23.915339 15.5167027 24.1609311 15.3426133 24.3980317 15.1668282 24.6393781 14.995966 24.8988977 14.5812111 25.5424295 18.2734127 29.2370115 18.3165531 29.1756979 65.8192463 77.2001425 65.6898289 77.295426 65.4625798 77.4314734 65.2288762 77.5758368 65.013178 77.6894614 64.7776052 77.8321311 64.5686971 77.9498298 64.3198797 78.0899513 64.0909292 78.2185219 63.8587591 78.3338402 63.6298086 78.4630898 63.4010336 78.5841912 63.1571371 78.6928872 62.9200384 78.8280877 62.6994116 78.943406 62.4489004 79.0502404 62.2068731 79.1689614 61.9679052 79.26764 61.7325002 79.3853387 61.4886113 79.4981088 61.2447148 79.5935602 61.0026875 79.695466 60.7489415 79.8016214 60.5133763 79.9036951 60.2562352 79.9998255 60.0091115 80.0886545 59.7703153 80.1830835 59.5197965 80.2834634 59.2577306 80.3656701 59.0189306 80.4468545 58.7551672 80.550454 58.4997236 80.6217888 58.2459776 80.7129906 57.9873068 80.7909554 57.7417166 80.8748559 57.4813483 80.9560403 57.2143576 81.0232934 56.9556868 81.0903863 56.6985457 81.1657952 56.4381774 81.2330483 56.1694854 81.3035363 55.9074195 81.3699426 55.6519759 81.4237832 55.3865149 81.4983453 55.1079733 81.5440301 54.8508284 81.6021203 54.5855353 81.6542596 54.3117507 81.7074212 54.0332091 81.768731 53.7777655 81.8101739 53.5039809 81.8633355 53.2303641 81.9039315 52.9567473 81.9387444 52.6763403 81.9868096 52.4076483 82.0275735 52.1440527 82.0532235 51.8653433 82.0880364 51.5783064 82.1237038 51.306391 82.1502007 51.0310767 82.1843422 50.7540648 82.1867149 50.4704268 82.2166069 50.1884902 82.245652 49.9163993 82.2563484 49.6278403 82.2845466 49.3409751 82.3061149 49.0573371 82.3112113 48.7786277 82.3112113 48.4900649 82.3327796 48.2047294 82.3385551 47.9227928 82.3385551 47.6374573 82.3327796 47.3903374 82.3385551 47.1697106 82.3385551 46.9507851 82.3327796 46.7102875 82.3327796 46.4930596 82.3112113 46.2625832 82.3112113 46.0451836 82.3061149 45.8213333 82.2845466 45.5974792 82.2787711 45.3685325 82.2563483 45.1579269 82.2456519 44.9206604 82.2364814 44.7083572 82.2016608 44.4761795 82.1867148 44.2538589 82.1843421 44.0349296 82.1502006 43.8226264 82.1237037 43.5970786 82.0955131 43.3881705 82.0747917 43.1575263 82.0532234 42.9370711 82.0126274 42.7380164 81.9868095 42.5024436 81.9579399 42.2884429 81.917176 42.0695136 81.8906791 41.8572143 81.8524635 41.6598571 81.8101738 41.4242843 81.7770546 41.2220023 81.7356117 41.0013755 81.6809242 40.7841476 81.6542595 40.5816978 81.6021202 40.3561462 81.5581291 40.1538642 81.5192344 39.9315398 81.4669273 39.7258628 81.4088371 39.5037063 81.3699424 39.2980293 81.3142326 39.0823272 81.255471 38.8800452 81.2007835 38.6775954 81.1450737 38.462065 81.0903862 38.2630103 81.0373924 38.0457824 80.9709861 37.8367065 80.9171455 37.6393493 80.8614357 37.4402946 80.7909554 37.2346138 80.724717 37.0107597 80.6508339 36.8232559 80.5903709 36.6043304 80.515641 36.4152931 80.4468544 36.1997627 80.3804405 36.0056328 80.3133552 35.8048805 80.2304695 35.6025985 80.1632164 35.398619 80.0835579 35.2061866 80.008149 35.0088294 79.9269646 34.8097747 79.8447579 34.61072 79.7768258 34.4216865 79.6796731 34.2341789 79.5935601 34.0285019 79.5188302 33.8245186 79.4310235 33.6222366 79.3479699 33.4298042 79.2543877 33.2373756 79.1689614 33.0549644 79.0651864 32.862532 78.984002 32.6651748 78.8910989 32.477671 78.8065118 32.275389 78.6928872 32.1045249 78.6091546 31.9105666 78.5162515 31.7279837 78.416726 31.535723 78.3114251 31.356539 78.218522 31.1707327 78.1181421 30.971678 77.995347 30.7860396 77.8992166 30.6068556 77.8039331 30.4227469 77.6894617 30.2403357 77.5824594 30.056227 77.4737634 29.873648 77.3659143 29.7044852 77.2556848 29.5088256 77.138833 29.3330405 77.0393075 29.1572516 76.9248284 28.9780676 76.8028878 28.8022825 76.6785592 28.6331197 76.5707101 28.4439145 76.447915 28.2896977 76.3334436 28.1139088 76.2116632 27.9364243 76.0937891 27.7589398 75.9619913 27.6014958 75.8391962 27.4223118 75.7172556 27.2465248 75.5970011 27.0673408 75.4709788 26.9114265 75.3291636 26.745491 75.2114649 26.5829506 75.0869684 26.4071655 74.9451456 26.2529468 74.8282938 26.0737647 74.68818 25.9163207 74.5512858 25.7570075 74.4293376 25.6044902 74.2934657 25.4253062 74.1531764 25.2610682 74.0032054 25.1117762 73.8812572 24.9443129 73.7261898 24.7900961 73.5984661 24.6358793 73.4524013 24.4932115 73.2973415 24.3240487 73.1713192 24.1779839 73.0211727 24.0154454 72.8769771 23.8661534 72.7285396 23.7168614 72.5792476 23.5643425 72.4291 23.4118233 72.2889862 23.267458 72.1339188 23.118166 71.9895554 22.9705735 71.8411103 19.3216801 75.429535 19.4842186 75.5970002 19.6566086 75.7853547 19.837492 75.9487458 20.0182037 76.1320039 20.177515 76.2986222 20.353302 76.463707 20.529089 76.6262436 20.704876 76.787941 20.880663 76.9521713 21.05645 77.1138611 21.2488805 77.2855759 21.4246675 77.4481125 21.6006242 77.6155777 21.7764112 77.7582474 21.9620496 77.9406586 22.1578771 78.0741501 22.3170205 78.2392426 22.5194722 78.3951569 22.6952592 78.5452958 22.8909169 78.7044373 23.0799523 78.8545762 23.267458 79.0038682 23.458191 79.1689607 23.6572457 79.3082277 23.8330327 79.4425737 24.0370122 79.5935594 24.2294446 79.7501604 24.4235745 79.8853533 24.624157 80.0337908 24.8249112 80.1773073 25.0271932 80.3133547 25.2029802 80.4468538 25.4071314 80.5903703 25.6143381 80.7247163 25.8116953 80.8614351 26.0024283 80.9957811 26.219826 81.1335222 26.4287322 81.2554704 26.6260894 81.3964387 26.8351653 81.5192338 27.03422 81.6542588 27.2465232 81.7770539 27.463753 81.9039307 27.6694319 82.0399704 27.8800356 82.1501999 28.0857164 82.2787705 28.3046419 82.3998643 28.5203401 82.5134889 28.7193948 82.6296617 28.93985 82.7514421 29.1572496 82.8676149 29.357834 82.9778444 29.5686075 83.0965578 29.8074075 83.2059404 30.026333 83.3163377 30.2403337 83.4207917 30.4575616 83.5301667 30.6764909 83.6463395 30.8904916 83.7550431 31.1309892 83.8486253 31.3398935 83.9457704 31.5788614 84.0386735 31.7843706 84.1563798 32.0000727 84.2501298 32.223923 84.343712 32.4744418 84.4400102 32.6982921 84.5352937 32.9156917 84.6290513 33.1510929 84.731125 33.3766445 84.8114625 33.6089863 84.9077607 33.8245167 84.9739991 34.0551647 85.0702973 34.2905659 85.1565781 34.5295338 85.231987 34.7600102 85.3338928 34.9904866 85.3986053 35.2243581 85.4831848 35.4665532 85.5504455 35.6954999 85.6324768 35.919354 85.6963348 36.169869 85.7776947 36.3986478 85.8490295 36.6442418 85.9353027 36.8864369 85.9923706 37.1169095 86.0587845 37.3606343 86.1217957 37.604527 86.1839524 37.8367047 86.2486649 38.0838246 86.3216935 38.3260197 86.3772355 38.5682148 86.4303971 38.8153347 86.4859315 39.0425838 86.532303 39.2980274 86.596161 39.5334286 86.6493226 39.7922673 86.6948396 40.021214 86.7578508 40.2832837 86.7977678 40.5270047 86.845833 40.7775235 86.8988191 41.0229459 86.940262 41.2749906 86.973549 41.5205846 87.0207673 41.7743268 87.0622102 42.0197492 87.0880281 42.2602468 87.1219942 42.5223127 87.1559603 42.7628103 87.19825 43.0231786 87.2239 43.2852445 87.2505647 43.5242124 87.2802888 43.7862783 87.2920076 44.0349279 87.3185045 44.2820516 87.3449938 44.5425878 87.3815157 44.8046537 87.3864367 45.0600973 87.3981555 45.3187681 87.414635 45.5742117 87.4338229 45.8296515 87.4412997 46.0900198 87.4569247 46.3339163 87.4569247 46.6107565 87.4752658 46.8529516 87.4752658 47.1066976 87.4810413 47.3687635 87.4810413 47.6374555 87.5034641 47.9475866 87.4810413 48.2728353 87.4752658 48.5994421 87.4752658 48.9262205 87.4569247 49.2512976 87.4569247 49.5614287 87.4412997 49.8832785 87.4338229 50.2117545 87.3981555 50.5234153 87.3864367 50.8469665 87.3590929 51.1737411 87.3334505 51.4888 87.3052521 51.8106498 87.2802887 52.1224822 87.237999 52.4441604 87.2115021 52.7593879 87.1709061 53.0710487 87.1219941 53.3796539 87.088028 53.704731 87.0489655 54.0197907 86.9735489 54.3283921 86.9402619 54.6368256 86.8780976 54.9520531 86.824257 55.2438431 86.7702485 55.5590706 86.7147141 55.8692017 86.6493226 56.1694832 86.5795213 56.4678955 86.5132829 56.7765007 86.4376985 57.0915565 86.3772355 57.3869133 86.3101502 57.6853256 86.222168 57.9873047 86.1392899 58.2925148 86.0737305 58.6009483 85.9767456 58.8762626 85.8945465 59.1748428 85.8067322 59.476654 85.7138291 59.7735366 85.6324769 60.0605697 85.5214005 60.3640823 85.4301911 60.6443176 85.3338929 60.9429016 85.2319871 61.2314682 85.124138 61.5185013 85.0295335 61.8186112 84.9210054 62.1007157 84.7932893 62.3709336 84.6978379 62.6579743 84.5809861 62.9382096 84.4515611 63.2218476 84.343712 63.5104066 84.2136156 63.7790986 84.1008379 64.0612107 83.9754946 64.3463746 83.8486254 64.6052094 83.7151263 64.893776 83.5733111 65.162468 83.4340365 65.43116 83.3163378 65.7030716 83.1777422 65.9685364 83.0350802 66.2306061 82.8866351 66.5026932 82.7514422 66.7846298 82.6014712 67.0334472 82.4530261 67.3021392 82.3061145 67.5608062 82.1502002 67.8228759 81.9993823 68.094963 81.852463 68.3369903 81.6809237 68.5924301 81.5307848 68.8544998 81.3699419 69.1148681 81.200783 69.3553619 81.0232928 69.6158981 80.8614352 69.8596267 80.6956713 70.1067428 80.5156405 70.3506393 80.3522494 70.602684 80.1773074 70.8481064 79.9998248 71.0903015 79.8165667 71.3308029 79.6275332 71.5796203 79.4425738 71.8168868 79.2676394 72.0522918 79.0769045 72.2844619 78.8910982 72.5200347 78.6928865 72.7423629 78.4979097 72.9828567 78.3114244 73.2167282 78.1031953 73.4439773 77.9066926 73.66613 77.7225801 73.8901519 77.513672 74.1223296 77.3095247 74.3297042 77.0997698 74.5552596 76.8966372 74.775711 76.6851809 74.9813918 76.4827273 75.2186583 76.2680514 75.4194106 76.0549014 75.634941 75.8242495 75.8521728 75.6236651 76.0612487 75.3987963 76.2552108 75.1815722 76.4576568 74.9651873 76.6815109 74.7279208 76.8822632 74.5089953 77.0713043 74.2808917 77.2752838 74.0561908 77.480957 73.8065265 77.6716919 73.5984653 77.8624268 73.3462528 78.0531617 73.1140751 78.2556077 72.8769764 78.4264756 72.6480335 78.6172028 72.3959812 78.8094635 72.1520923 79.0018997 71.9124454 79.1744613 71.6595462 79.3568725 71.4306033 79.5294265 71.1619113 79.710144 70.9139407 79.897644 70.6751407 80.0567855 70.4122241 80.2325744 70.1601794 80.3951187 69.9021914 80.574295 69.6608431 81.8049774 67.7319414"></polygon>
                <path d="M48.1934814,94.79142 C22.1161747,94.79142 0.9014282,73.5766754 0.9014282,47.5 C0.9014282,21.4233246 22.1161766,0.20858 48.1934814,0.20858 C74.2695236,0.20858 95.4842681,21.4233284 95.4842681,47.5 C95.4842681,73.5766716 74.2695236,94.79142 48.1934814,94.79142 Z M48.1934814,2.804647 C23.5485764,2.804647 3.4974947,22.8550949 3.4974947,47.5 C3.4974947,72.1449051 23.5485773,92.1953506 48.1934824,92.1953506 C72.8383875,92.1953506 92.8881989,72.1449051 92.8881989,47.5 C92.8881989,22.8550949 72.8383865,2.804647 48.1934814,2.804647 Z" id="Shape" fill-rule="nonzero"></path>
                <path d="M166.715134,83.9326859 L166.753159,83.4091568 L166.74205,82.8654861 L166.715134,82.3878173 L166.663666,81.9604873 L166.589844,81.5857314 L166.547333,81.4201735 L166.504822,81.2702712 L166.455673,81.113655 L166.377289,80.9794158 L166.314651,80.8451766 L166.227386,80.7277221 L166.144684,80.6113815 L166.064133,80.5006332 L165.954514,80.4066619 L165.867249,80.323883 L165.737412,80.2377471 L165.618912,80.1572036 L165.468933,80.0889663 L165.345886,80.0341491 L165.191513,79.9748611 L165.030426,79.9234008 L164.849198,79.8786544 L164.667969,79.854042 L164.459976,79.8260803 L164.251831,79.7958755 L163.788712,79.7500076 L163.260773,79.7500076 L162.996689,79.7500076 L162.76178,79.7500076 L162.529099,79.7835693 L162.312134,79.7958755 L162.099518,79.8260803 L161.895996,79.8618774 L161.712464,79.9077377 L161.549149,79.9491272 L161.397003,80.0061798 L161.240387,80.0699463 L161.10846,80.1516113 L160.965271,80.2187271 L160.844391,80.3082199 L160.734757,80.406662 L160.634079,80.5006333 L160.542343,80.6113816 L160.446213,80.7277222 L160.36113,80.8451767 L160.287369,80.9794159 L160.235901,81.1136551 L160.153046,81.2702713 L160.108307,81.4201736 L160.056854,81.5857315 L160.030075,81.751297 L159.97406,82.113739 L159.929383,82.5254135 L159.891358,82.9728775 L159.891358,83.4628525 L159.891358,84.0445557 L159.929383,84.5624924 L159.97406,85.0177918 L160.030075,85.4272233 L160.056854,85.6039735 L160.09935,85.7751237 L160.135224,85.9216691 L160.208985,86.072693 L160.267151,86.2248308 L160.345535,86.3478777 L160.412659,86.4955446 L160.495361,86.599579 L160.591568,86.718155 L160.701203,86.8266679 L160.830963,86.9206392 L160.95401,87.0067751 L161.092728,87.0828402 L161.240387,87.1611483 L161.408188,87.2260287 L161.591721,87.2842028 L161.768479,87.3412554 L161.976471,87.3804095 L162.195725,87.421799 L162.414993,87.4553607 L162.665634,87.4743732 L162.929566,87.4900363 L163.189179,87.4900363 L163.47995,87.503464 L163.94986,87.4900363 L164.392853,87.4620669 L164.795502,87.421799 L165.164658,87.3546756 L165.323578,87.3121722 L165.49585,87.2562335 L165.668137,87.1857608 L165.786713,87.1197589 L165.936539,87.0347369 L166.064133,86.9307025 L166.187195,86.8266681 L166.298981,86.7181552 L166.410919,86.5917514 L166.504822,86.4384921 L166.571945,86.2852328 L166.639054,86.1028979 L166.683869,85.9216693 L166.72638,85.7124789 L166.742051,85.4909823 L166.753159,85.2728503 L166.742051,85.0983355 L166.715134,84.9786379 L164.974564,84.9786379 L164.974564,85.1408465 L164.974564,85.280678 L164.963303,85.4272234 L164.918625,85.543564 L164.880585,85.6599046 L164.824585,85.7561113 L164.766419,85.8422472 L164.681397,85.9071276 L164.58519,85.9653017 L164.48906,86.0201113 L164.377121,86.0615008 L164.251831,86.1028979 L164.1176,86.1297457 L163.98111,86.1454012 L163.826736,86.1711351 L163.67691,86.1711351 L163.504639,86.1711351 L163.189179,86.1711351 L162.902802,86.1454012 L162.665634,86.1028978 L162.461975,86.050316 L162.374786,86.0201112 L162.274109,85.9776078 L162.209152,85.9362107 L162.144348,85.8948212 L162.070434,85.842247 L162.016815,85.782959 L161.963119,85.7326203 L161.918304,85.6688538 L161.837753,85.5357285 L161.784057,85.3847123 L161.746033,85.2169114 L161.712463,85.0435182 L161.701355,84.8354494 L161.68338,84.5915834 L161.669952,84.2761156 L161.669952,83.932686 L166.715134,83.932686 Z M161.669952,82.7782288 L161.68338,82.6965638 L161.701355,82.629448 L161.701355,82.5880585 L161.712463,82.2815399 L161.754974,82.0119476 L161.799728,81.7994003 L161.862442,81.6159362 L161.902634,81.544342 L161.949692,81.4761047 L162.005631,81.405632 L162.057022,81.3496933 L162.112946,81.2959976 L162.180069,81.2568435 L162.267319,81.215454 L162.34787,81.1874923 L162.529099,81.1248473 L162.76178,81.1024703 L163.023605,81.0745086 L163.325577,81.0745086 L163.67691,81.0745086 L163.98111,81.1024703 L164.099701,81.1248473 L164.225052,81.1427459 L164.339081,81.1695937 L164.424103,81.215454 L164.502487,81.237831 L164.58519,81.2959975 L164.656784,81.3496932 L164.706009,81.4056319 L164.766418,81.4761046 L164.824585,81.5443419 L164.858154,81.6327208 L164.889542,81.7087859 L164.945404,81.9190978 L164.987915,82.171913 L164.996857,82.4761885 L165.014755,82.8419951 L161.669952,82.8419951 L161.669952,82.7782288 Z" id="Shape"></path>
                <rect id="Rectangle" x="157.36087" y="76.6267014" width="1.7921677" height="10.7771969"></rect>
                <path d="M156.535294,83.9326859 L156.575638,83.4091568 L156.564453,82.8654861 L156.535294,82.3878173 L156.481598,81.9604873 L156.412308,81.5857314 L156.369797,81.4201735 L156.327301,81.2702712 L156.262344,81.113655 L156.219833,80.9794158 L156.132584,80.8451766 L156.069931,80.7277221 L155.971497,80.6113815 L155.888702,80.5006332 L155.779083,80.4066619 L155.667282,80.323883 L155.571014,80.2377471 L155.445724,80.1572036 L155.307007,80.0889663 L155.170593,80.0341491 L155.018463,79.9748611 L154.852829,79.9234008 L154.6716,79.8786544 L154.492615,79.854042 L154.289093,79.8260803 L154.078781,79.7958755 L153.604401,79.7500076 L153.085403,79.7500076 L152.839233,79.7500076 L152.584244,79.7500076 L152.356049,79.7835693 L152.125595,79.7958755 L151.926483,79.8260803 L151.713867,79.8618774 L151.537109,79.9077377 L151.371613,79.9491272 L151.219483,80.0061798 L151.067337,80.0699463 L150.926315,80.1516113 L150.787613,80.2187271 L150.664551,80.3082199 L150.55716,80.406662 L150.443054,80.5006333 L150.364823,80.6113816 L150.2798,80.7277222 L150.18129,80.8451767 L150.129837,80.9794159 L150.062714,81.1136551 L149.99112,81.2702713 L149.944199,81.4201736 L149.879257,81.5857315 L149.86583,81.751297 L149.792069,82.113739 L149.738297,82.5254135 L149.727112,82.9728775 L149.727112,83.4628525 L149.727112,84.0445557 L149.738297,84.5624924 L149.792069,85.0177918 L149.847931,85.4272233 L149.879257,85.6039735 L149.932953,85.7751237 L149.973297,85.9216691 L150.033631,86.072693 L150.085083,86.2248308 L150.154511,86.3478777 L150.237229,86.4955446 L150.335739,86.599579 L150.434113,86.718155 L150.528153,86.8266679 L150.65567,86.9206392 L150.776489,87.0067751 L150.915131,87.0828402 L151.067337,87.1611483 L151.230591,87.2260287 L151.41182,87.2842028 L151.593048,87.3412554 L151.801178,87.3804095 L152.018143,87.421799 L152.24411,87.4553607 L152.492447,87.4743732 L152.736389,87.4900363 L153.027176,87.4900363 L153.304672,87.503464 L153.774429,87.4900363 L154.215195,87.4620669 L154.617981,87.421799 L154.991547,87.3546756 L155.154862,87.3121722 L155.320435,87.2562335 L155.472641,87.1857608 L155.609039,87.1197589 L155.763489,87.0347369 L155.888702,86.9307025 L156.022949,86.8266681 L156.12146,86.7181552 L156.231094,86.5917514 L156.313797,86.4384921 L156.398895,86.2852328 L156.463699,86.1028979 L156.508514,85.9216693 L156.548721,85.7124789 L156.564453,85.4909823 L156.575638,85.2728503 L156.564453,85.0983355 L156.535294,84.9786379 L154.79689,84.9786379 L154.79689,85.1408465 L154.79689,85.280678 L154.787949,85.4272234 L154.738724,85.543564 L154.700684,85.6599046 L154.64476,85.7561113 L154.579941,85.8422472 L154.503876,85.9071276 L154.405365,85.9653017 L154.311462,86.0201113 L154.20401,86.0615008 L154.078781,86.1028979 L153.940063,86.1297457 L153.801361,86.1454012 L153.646911,86.1711351 L153.497085,86.1711351 L153.329285,86.1711351 L153.027176,86.1711351 L152.736389,86.1454012 L152.492447,86.1028978 L152.282135,86.050316 L152.199356,86.0201112 L152.116653,85.9776078 L152.033798,85.9362107 L151.964508,85.8948212 L151.897385,85.842247 L151.843628,85.782959 L151.785461,85.7326203 L151.747421,85.6688538 L151.657989,85.5357285 L151.606537,85.3847123 L151.564026,85.2169114 L151.537109,85.0435182 L151.519287,84.8354494 L151.51033,84.5915834 L151.496902,84.2761156 L151.496902,83.932686 L156.535294,83.932686 Z M151.496903,82.7782288 L151.51033,82.6965638 L151.519287,82.629448 L151.519287,82.5880585 L151.537109,82.2815399 L151.577454,82.0119476 L151.615494,81.7994003 L151.684769,81.6159362 L151.72728,81.544342 L151.774261,81.4761047 L151.823486,81.405632 L151.883896,81.3496933 L151.933121,81.2959976 L152.01149,81.2568435 L152.08757,81.215454 L152.170273,81.1874923 L152.356049,81.1248473 L152.570831,81.1024703 L152.839233,81.0745086 L153.139099,81.0745086 L153.497086,81.0745086 L153.801361,81.1024703 L153.933289,81.1248473 L154.045227,81.1427459 L154.161499,81.1695937 L154.244278,81.215454 L154.327133,81.237831 L154.405365,81.2959975 L154.479263,81.3496932 L154.535126,81.4056319 L154.588898,81.4761046 L154.64476,81.5443419 L154.685104,81.6327208 L154.70964,81.7087859 L154.772278,81.9190978 L154.814789,82.171913 L154.825973,82.4761885 L154.839401,82.8419951 L151.496902,82.8419951 L151.496902,82.7782288 L151.496903,82.7782288 Z" id="Shape"></path>
                <rect id="Rectangle" x="204.143356" y="76.9365692" width="1.7630125" height="1.5694839"></rect>
                <rect id="Rectangle" x="204.120972" y="79.837265" width="1.7630824" height="7.5666351"></rect>
                <polygon id="Path" points="211.812973 84.8690109 211.78157 85.1408463 211.741379 85.3712921 211.685364 85.5558701 211.647339 85.6319351 211.602661 85.7124786 211.562317 85.7751236 211.506454 85.842247 211.43486 85.8814011 211.372208 85.9362106 211.296143 85.9653015 211.220077 86.0022125 211.020889 86.0503159 210.77478 86.086113 210.495178 86.1028976 210.161758 86.1174393 210.000671 86.1174393 209.835098 86.1028976 209.680725 86.086113 209.559982 86.0615005 209.418961 86.0324173 209.307159 85.9966202 209.215439 85.947403 209.116928 85.8948212 209.03421 85.842247 208.962616 85.782959 208.895493 85.7124786 208.823898 85.6319351 208.785873 85.5435638 208.732101 85.4585419 208.705322 85.3712921 208.673935 85.27285 208.617996 85.0435181 208.593384 84.7817535 208.584442 84.4819489 208.562134 84.1273346 208.562134 83.9930954 208.562134 83.8678055 208.562134 83.7425156 208.562134 83.6284103 208.562134 83.5322037 208.562134 83.4225769 208.553192 83.3084717 208.553192 83.2022018 208.562134 82.9180603 208.584442 82.6630096 208.593384 82.4415131 208.635895 82.2356796 208.673935 82.0466232 208.745529 81.8609238 208.796982 81.708786 208.884232 81.5745468 208.929062 81.5174942 208.982758 81.4459 209.016235 81.405632 209.081192 81.3642349 209.143845 81.3250885 209.215439 81.2736282 209.287033 81.2568436 209.34967 81.2378311 209.524109 81.2154541 209.709808 81.1874924 209.897812 81.1695938 210.141693 81.1695938 210.445892 81.1695938 210.703186 81.1874924 210.924744 81.2154541 211.09024 81.2568436 211.177566 81.2702713 211.24469 81.3094254 211.31398 81.3362732 211.383408 81.3798981 211.43486 81.4246445 211.495193 81.4872894 211.531067 81.544342 211.584686 81.6159363 211.62056 81.6819382 211.654114 81.7647171 211.685364 81.8609238 211.716766 81.9727936 211.741379 82.2077103 211.756958 82.4896164 213.450623 82.4896164 213.495361 82.3878174 213.495361 82.2356796 213.495361 81.991806 213.466278 81.751297 213.443985 81.5264435 213.399155 81.3250885 213.340988 81.1248474 213.260452 80.9570465 213.179901 80.791481 213.081528 80.6516495 212.967422 80.5274811 212.851013 80.406662 212.721252 80.3082199 212.584839 80.2142563 212.432709 80.1292343 212.280563 80.0565186 212.112762 80.0061798 211.938187 79.9491272 211.562317 79.8786545 211.137222 79.8260803 210.662918 79.7958755 210.161758 79.7835693 209.88887 79.7835693 209.633743 79.7958755 209.378754 79.8260803 209.143845 79.8540421 208.929062 79.8786545 208.732101 79.9234009 208.537521 79.9748611 208.360779 80.0341492 208.190674 80.1001511 208.040832 80.18293 207.881912 80.2668304 207.763336 80.3563232 207.655945 80.4625931 207.523941 80.5554428 207.418793 80.689682 207.331528 80.8060226 207.253296 80.9346695 207.177231 81.0745087 207.112274 81.2154541 207.042923 81.3642349 206.98706 81.5264435 206.953491 81.6976013 206.906509 81.8609238 206.877426 82.0466232 206.82373 82.4336777 206.796814 82.8654861 206.767792 83.3700027 206.767792 83.9036026 206.783386 84.4226608 206.807999 84.9003296 206.834915 85.0983353 206.877426 85.3142395 206.906509 85.4999313 206.964615 85.6912231 207.01831 85.8635025 207.076553 86.0022125 207.143677 86.1577072 207.210785 86.2953033 207.293503 86.4384918 207.39418 86.5447693 207.48822 86.6678162 207.568756 86.7718582 207.680557 86.8680573 207.819275 86.9519577 207.946869 87.0347366 208.065445 87.0996246 208.219757 87.1723328 208.385391 87.2260284 208.537521 87.2842026 208.705322 87.3233566 208.884232 87.3636246 209.081192 87.4039001 209.264587 87.4430542 209.495026 87.4620667 209.946976 87.490036 210.445892 87.5034637 210.873215 87.490036 211.271469 87.4620667 211.62944 87.4217987 211.951614 87.3636246 212.081375 87.3233566 212.224564 87.2842026 212.354324 87.2260284 212.472916 87.1723328 212.584839 87.1197586 212.692169 87.0470428 212.788376 86.9821625 212.889053 86.8937912 212.967422 86.8166046 213.052444 86.7181549 213.119568 86.6118851 213.188858 86.5011368 213.260452 86.3903885 213.300796 86.2684555 213.358963 86.145401 213.410416 86.0022125 213.466278 85.7024155 213.508789 85.3511505 213.549133 84.9629745 213.560242 84.5311737 211.812973 84.5311737"></polygon>
                <polygon id="Path" points="203.18129 81.5857315 203.172424 81.405632 203.125427 81.2232895 203.073898 81.0610809 203.013504 80.9033508 202.962036 80.771347 202.87262 80.630394 202.792068 80.5006332 202.698029 80.3909988 202.601822 80.2925568 202.494507 80.205307 202.369141 80.1158142 202.228272 80.0453339 202.091721 79.9748611 201.935104 79.9234009 201.785202 79.8786545 201.60852 79.837265 201.429474 79.8115311 201.216995 79.7835693 201.011154 79.7701416 200.800858 79.7500076 200.579285 79.7500076 200.375763 79.7500076 200.178802 79.7701416 200.00206 79.7958755 199.825302 79.8260803 199.659821 79.8618774 199.494186 79.9077377 199.339874 79.9748611 199.203339 80.0341492 199.069168 80.1158142 198.937088 80.2142563 198.80516 80.3082199 198.673157 80.4323959 198.565689 80.5554428 198.458374 80.6930389 198.362167 80.8451767 198.234573 81.0073853 198.212189 79.837265 196.52301 79.837265 196.52301 87.4039001 198.308395 87.4039001 198.308395 82.8654861 198.308395 82.6551743 198.319656 82.4627686 198.362167 82.2815399 198.41803 82.113739 198.471802 81.9604874 198.556808 81.8240128 198.648544 81.6976013 198.737961 81.5857315 198.872284 81.4872894 199.010986 81.405632 199.145233 81.3250885 199.295059 81.2702713 199.467331 81.2232895 199.659821 81.1953201 199.834259 81.1695938 200.046875 81.1695938 200.34668 81.1695938 200.579285 81.1953201 200.695694 81.2232895 200.78743 81.2568436 200.890274 81.2736282 200.957398 81.3250885 201.024582 81.3642349 201.107361 81.405632 201.149872 81.4626846 201.203507 81.5174942 201.261673 81.5745468 201.284042 81.649498 201.313126 81.708786 201.342209 81.7994003 201.400391 81.9727936 201.429474 82.1998825 201.438415 82.4415131 201.456314 82.7491455 201.456314 87.4039001 203.237228 87.4039001 203.237228 82.2356796 203.237228 82.0119476 203.221634 81.7994003"></polygon>
                <polygon id="Path" points="221.030685 84.6027679 220.99942 84.4025269 220.965866 84.2403183 220.921051 84.0691681 220.851761 83.9203796 220.784638 83.7950897 220.695145 83.6709213 220.603424 83.5612946 220.511627 83.4628525 220.397522 83.3700027 220.285644 83.277153 220.158127 83.2167435 220.035141 83.1429138 219.914261 83.0836258 219.757645 83.0511856 219.45343 82.9594498 219.153626 82.9102325 218.809082 82.8654861 218.437683 82.8542938 218.057266 82.8419952 217.703781 82.8229752 217.348114 82.8095474 217.012436 82.8095474 216.871567 82.7972488 216.748444 82.7782288 216.623215 82.7670441 216.531418 82.7491455 216.433044 82.7099915 216.347961 82.6630096 216.276367 82.6294479 216.224899 82.5880585 216.169037 82.5332413 216.126526 82.4627686 216.086197 82.3878174 216.059418 82.2960815 216.04599 82.1998825 216.021378 82.0824203 216.021378 81.9604874 216.003479 81.8240128 216.021378 81.6976013 216.025848 81.5857315 216.04599 81.4872894 216.086197 81.3955612 216.126526 81.3094254 216.182388 81.2378311 216.23616 81.1874924 216.30545 81.142746 216.388229 81.1024704 216.475555 81.0745087 216.58519 81.0465393 216.692505 81.020813 216.916245 80.995079 217.189194 80.9794159 217.55394 80.9794159 217.862625 80.995079 218.160263 81.020813 218.298981 81.0465393 218.422028 81.0745087 218.542847 81.1136551 218.643448 81.142746 218.753082 81.1953201 218.838165 81.2568436 218.905289 81.3362732 218.961227 81.4201736 218.999191 81.5174942 219.044006 81.6327209 219.050644 81.751297 219.070785 81.8978424 220.784638 81.8978424 220.771225 81.669632 220.746612 81.4626846 220.713043 81.2702713 220.659287 81.0745087 220.587692 80.9033508 220.511627 80.7500916 220.424362 80.6113815 220.312561 80.4905624 220.184967 80.3787003 220.066391 80.2668304 219.932159 80.162796 219.788971 80.0889664 219.63913 80.0106583 219.480209 79.9491272 219.3013 79.9077377 219.13797 79.8618774 218.7621 79.7958755 218.350433 79.7500076 217.916397 79.7298737 217.466614 79.7052612 216.983353 79.7298737 216.556091 79.7500076 216.169037 79.7958755 215.813232 79.8540421 215.658936 79.8864822 215.491058 79.9334717 215.356827 80.0061798 215.202454 80.0699463 215.079392 80.1572037 214.940674 80.2377472 214.826569 80.3563232 214.72142 80.4625931 214.611786 80.5845337 214.529007 80.7433777 214.455185 80.8955154 214.399323 81.0745087 214.345551 81.2568436 214.300796 81.4626846 214.291855 81.6819382 214.291855 81.9190979 214.291855 82.1450653 214.300796 82.3542557 214.329895 82.5377197 214.379181 82.7256546 214.412735 82.9102325 214.484329 83.0634842 214.529007 83.2022018 214.611786 83.3319702 214.69017 83.4494247 214.768402 83.5612946 214.873566 83.6507874 214.983185 83.7514648 215.090653 83.8387222 215.202454 83.9036026 215.330048 83.968483 215.464279 84.0188217 215.600693 84.0579758 215.757309 84.1072006 215.922867 84.1385193 216.086197 84.1776733 216.433044 84.2201843 216.822266 84.2403183 217.202621 84.2503891 217.578552 84.2716446 217.916397 84.2761154 218.254166 84.2761154 218.518234 84.2917786 218.737488 84.3309326 218.838165 84.3488312 218.914246 84.375679 218.999191 84.4226608 219.070785 84.4674072 219.126709 84.5076828 219.178177 84.5624924 219.220749 84.6441574 219.249771 84.7291794 219.278854 84.8119583 219.3013 84.9159927 219.3013 85.0334549 219.3013 85.1766434 219.3013 85.335495 219.29451 85.4909821 219.256485 85.6319351 219.236343 85.7415695 219.189362 85.8635025 219.126709 85.9362106 219.070785 86.0022125 218.98584 86.0615005 218.905289 86.1028976 218.795654 86.145401 218.686035 86.1711349 218.542847 86.1990967 218.240799 86.2248306 217.887314 86.2416077 217.314545 86.2416077 217.133331 86.2416077 216.972244 86.2248306 216.829056 86.1990967 216.70816 86.1711349 216.58519 86.145401 216.475555 86.1028976 216.388229 86.0503159 216.321106 85.9966202 216.256302 85.921669 216.193649 85.842247 216.155609 85.7415695 216.113113 85.618515 216.075073 85.4909821 216.059418 85.3511505 216.04599 85.1855927 216.04599 85.004364 214.235992 85.004364 214.235992 85.4272232 214.235992 85.5905457 214.235992 85.7561111 214.273956 85.921669 214.300796 86.0615005 214.345551 86.2125244 214.399323 86.3445282 214.455185 86.4619827 214.529007 86.5716171 214.611786 86.6901932 214.69017 86.7819214 214.786377 86.8680573 214.88475 86.9519577 214.99437 87.0347366 215.104004 87.0996246 215.22937 87.1611481 215.356827 87.2114868 215.616425 87.2987442 215.88266 87.3636246 216.144363 87.4217987 216.406128 87.4553604 216.692505 87.4743729 217.012436 87.490036 217.372726 87.490036 217.744125 87.5034637 218.265411 87.490036 218.737488 87.4553604 218.961227 87.4430542 219.167053 87.3971863 219.35939 87.3636246 219.540619 87.3233566 219.701782 87.2741318 219.876221 87.2114868 220.012772 87.1421356 220.158127 87.0470428 220.303619 86.9620285 220.424362 86.8546371 220.533997 86.7304611 220.645859 86.5995789 220.746612 86.4440842 220.827087 86.2953033 220.891968 86.1174393 220.947968 85.921669 220.99942 85.7326202 221.030685 85.4999313 221.04187 85.27285 221.059769 85.004364 221.04187 84.7962952"></polygon>
                <polygon id="Path" points="172.619431 84.8690109 172.588181 85.1408463 172.565735 85.3712921 172.491974 85.5558701 172.471771 85.6319351 172.42926 85.7124786 172.368912 85.7751236 172.321869 85.842247 172.263763 85.8814011 172.187698 85.9362106 172.109314 85.9653015 172.040039 86.0022125 171.845322 86.0503159 171.614945 86.086113 171.321777 86.1028976 170.988495 86.1174393 170.804962 86.1174393 170.659607 86.1028976 170.505158 86.086113 170.36644 86.0615005 170.243393 86.0324173 170.136002 85.9966202 170.026367 85.947403 169.939179 85.8948212 169.856339 85.842247 169.77803 85.782959 169.708664 85.7124786 169.648331 85.6319351 169.596802 85.5435638 169.552124 85.4585419 169.51178 85.3712921 169.487167 85.27285 169.442505 85.0435181 169.415573 84.7817535 169.399994 84.4819489 169.399994 84.1273346 169.399994 83.9930954 169.399994 83.8678055 169.399994 83.7425156 169.399994 83.6284103 169.399994 83.5322037 169.379852 83.4225769 169.379852 83.3084717 169.379852 83.2022018 169.379852 82.9180603 169.399994 82.6630096 169.415573 82.4415131 169.458084 82.2356796 169.498367 82.0466232 169.552124 81.8609238 169.621414 81.708786 169.708664 81.5745468 169.751175 81.5174942 169.784744 81.4459 169.842972 81.405632 169.898834 81.3642349 169.972748 81.3250885 170.026367 81.2736282 170.08902 81.2568436 170.17627 81.2378311 170.344147 81.2154541 170.518585 81.1874924 170.726715 81.1695938 170.948151 81.1695938 171.250183 81.1695938 171.523209 81.1874924 171.749115 81.2154541 171.928101 81.2568436 171.997452 81.2702713 172.082535 81.3094254 172.134003 81.3362732 172.187698 81.3798981 172.263763 81.4246445 172.321869 81.4872894 172.359894 81.544342 172.402481 81.6159363 172.440506 81.6819382 172.480713 81.7647171 172.512116 81.8609238 172.527695 81.9727936 172.565735 82.2077103 172.565735 82.4896164 174.292954 82.4896164 174.31987 82.3878174 174.31987 82.2356796 174.31987 81.991806 174.292954 81.751297 174.263931 81.5264435 174.223587 81.3250885 174.149765 81.1248474 174.082718 80.9570465 174.002091 80.791481 173.903656 80.6516495 173.791794 80.5274811 173.668732 80.406662 173.545685 80.3082199 173.406967 80.2142563 173.259308 80.1292343 173.102768 80.0565186 172.934891 80.0061798 172.760452 79.9491272 172.368912 79.8786545 171.937042 79.8260803 171.500763 79.7958755 170.988495 79.7835693 170.713226 79.7835693 170.453766 79.7958755 170.203125 79.8260803 169.972748 79.8540421 169.751175 79.8786545 169.552124 79.9234009 169.361954 79.9748611 169.194153 80.0341492 169.01741 80.1001511 168.860794 80.18293 168.724243 80.2668304 168.585526 80.3563232 168.464783 80.4625931 168.352844 80.5554428 168.25 80.689682 168.160446 80.8060226 168.075424 80.9346695 167.994873 81.0745087 167.921051 81.2154541 167.867416 81.3642349 167.81366 81.5264435 167.764435 81.6976013 167.726395 81.8609238 167.68837 82.0466232 167.645859 82.4336777 167.607819 82.8654861 167.592163 83.3700027 167.578735 83.9036026 167.592163 84.4226608 167.630188 84.9003296 167.659287 85.0983353 167.68837 85.3142395 167.726395 85.4999313 167.764435 85.6912231 167.827072 85.8635025 167.8965 86.0022125 167.954605 86.1577072 168.035217 86.2953033 168.115768 86.4384918 168.202942 86.5447693 168.299149 86.6678162 168.406616 86.7718582 168.518417 86.8680573 168.641541 86.9519577 168.755646 87.0347366 168.903305 87.0996246 169.030762 87.1723328 169.194153 87.2260284 169.361954 87.2842026 169.51178 87.3233566 169.708664 87.3636246 169.889893 87.4039001 170.08902 87.4430542 170.29715 87.4620667 170.771393 87.490036 171.268082 87.5034637 171.708908 87.490036 172.082535 87.4620667 172.440506 87.4217987 172.760452 87.3636246 172.910278 87.3233566 173.046829 87.2842026 173.174362 87.2260284 173.295166 87.1723328 173.406967 87.1197586 173.518906 87.0470428 173.615112 86.9821625 173.709076 86.8937912 173.791794 86.8166046 173.874573 86.7181549 173.946167 86.6118851 174.01329 86.5011368 174.069214 86.3903885 174.125214 86.2684555 174.183319 86.145401 174.223587 86.0022125 174.292954 85.7024155 174.331055 85.3511505 174.369095 84.9629745 174.38916 84.5311737 172.630692 84.5311737"></polygon>
                <path d="M195.561035,82.3374786 L195.552017,82.113739 L195.520691,81.9023132 L195.478256,81.708786 L195.440216,81.5264435 L195.399872,81.3642349 L195.337235,81.2154541 L195.288086,81.0610809 L195.220963,80.9201278 L195.149368,80.7825317 L195.066513,80.6729049 L194.970306,80.5554427 L194.8741,80.4480513 L194.768951,80.3652724 L194.654846,80.2668303 L194.540741,80.2053069 L194.399857,80.1158141 L194.278977,80.0565184 L194.124603,80.0061797 L193.976944,79.9491271 L193.811371,79.9077376 L193.437744,79.8372649 L193.010422,79.7835692 L192.527145,79.7500075 L191.983475,79.7500075 L191.656906,79.7500075 L191.352554,79.7701415 L191.079605,79.7958754 L190.797775,79.8260802 L190.549423,79.8786544 L190.314514,79.9334716 L190.106369,80.0061797 L189.92067,80.0699462 L189.728333,80.1627959 L189.57164,80.2668303 L189.41951,80.3787001 L189.276321,80.5006331 L189.173477,80.6516493 L189.063843,80.8060225 L188.965332,80.9794157 L188.878143,81.1561659 L188.808716,81.3642347 L188.764038,81.5857313 L188.712509,81.8240126 L188.661057,82.0790633 L188.627487,82.3542556 L188.60289,82.6551742 L188.60289,82.9728774 L188.60289,83.3084716 L188.60289,84.0288924 L188.60289,84.3756789 L188.618546,84.71463 L188.661057,85.0177916 L188.696915,85.2963408 L188.739426,85.5558699 L188.799774,85.7986143 L188.878144,86.0201109 L188.965332,86.2125242 L189.074951,86.3903883 L189.180115,86.5581892 L189.309876,86.7181547 L189.444122,86.8389738 L189.596253,86.9620283 L189.759583,87.0761335 L189.943115,87.1611478 L190.137756,87.2260282 L190.350235,87.298744 L190.576202,87.3546751 L190.824616,87.3971861 L191.086319,87.443054 L191.36821,87.4620665 L191.668015,87.4743727 L191.983475,87.4900358 L192.334747,87.5034635 L192.623352,87.4900358 L192.885117,87.4743727 L193.131302,87.4620665 L193.368393,87.443054 L193.589951,87.3971861 L193.795715,87.3546751 L193.976944,87.298744 L194.15152,87.2260282 L194.334915,87.1611478 L194.473633,87.0828397 L194.610169,86.9855191 L194.748886,86.9094464 L194.858521,86.7975842 L194.959198,86.6901928 L195.055329,86.5716168 L195.13147,86.4440838 L195.220963,86.3288647 L195.288086,86.193504 L195.337235,86.032417 L195.399872,85.8948209 L195.440216,85.7415693 L195.478256,85.5771253 L195.511811,85.427223 L195.534119,85.2392881 L195.561035,84.8801954 L195.594589,84.4316099 L195.603546,83.9326856 L195.616974,83.3700025 L195.603546,82.8229749 L195.561035,82.3374786 Z M193.824799,83.01091 L193.824799,83.2335205 L193.824799,83.8499069 L193.824799,84.1385193 L193.824799,84.4226608 L193.811371,84.6866684 L193.782288,84.9327698 L193.739777,85.1766434 L193.6884,85.3847122 L193.614487,85.5771255 L193.538422,85.7415695 L193.478012,85.7986145 L193.408661,85.8657379 L193.355026,85.9071274 L193.287918,85.9653015 L193.214005,86.0022125 L193.131302,86.0324173 L193.055237,86.0615006 L192.976852,86.0726929 L192.791229,86.1028977 L192.596573,86.1297455 L192.386276,86.145401 L192.153519,86.145401 L191.934265,86.145401 L191.761993,86.145401 L191.598724,86.1297455 L191.451065,86.1174393 L191.296616,86.086113 L191.186996,86.0503159 L191.079605,86.0022126 L190.949905,85.947403 L190.880478,85.8948212 L190.797775,85.8176346 L190.730652,85.7561112 L190.667999,85.6912232 L190.623184,85.6039734 L190.576202,85.5223084 L190.535934,85.4272233 L190.511398,85.3298951 L190.477829,85.2336961 L190.455383,85.0043641 L190.4263,84.7291794 L190.412872,84.4025269 L190.412872,84.0288926 L190.412872,83.4986497 L190.412872,83.1283723 L190.4263,82.7972489 L190.455383,82.4896165 L190.477829,82.2356797 L190.511398,82.1294022 L190.535934,82.0119477 L190.576202,81.9023133 L190.623184,81.8072282 L190.667999,81.7087861 L190.744079,81.632721 L190.797775,81.5264435 L190.893906,81.4459 L190.978989,81.3798981 L191.079605,81.3094254 L191.186996,81.2568436 L191.296616,81.2154541 L191.415207,81.1874924 L191.574127,81.1561661 L191.72171,81.142746 L191.902939,81.1248474 L192.375015,81.1248474 L192.580841,81.142746 L192.775497,81.1695938 L192.938828,81.2154541 L193.099915,81.2702713 L193.240936,81.3496933 L193.355026,81.4459 L193.464661,81.5600052 L193.547379,81.6819382 L193.614487,81.8407898 L193.670502,81.991806 L193.733139,82.1719131 L193.766632,82.3542556 L193.795715,82.5589675 L193.824799,82.767044 L193.824799,83.01091 Z" id="Shape"></path>
                <polygon id="Path" points="181.018356 84.5747986 181.018356 84.5076828 179.541779 84.5076828 179.541779 84.8801956 179.528366 85.1766434 179.496963 85.4272232 179.488022 85.5357285 179.461243 85.6498337 179.414261 85.7326202 179.385178 85.8120422 179.331482 85.8814011 179.27771 85.9362106 179.210587 85.9966202 179.127884 86.0324173 179.029373 86.0726929 178.915268 86.086113 178.792282 86.1028976 178.669235 86.1174393 178.54834 86.1174393 178.420883 86.1028976 178.324677 86.0726929 178.239655 86.0615005 178.170227 86.0201111 178.103119 85.9776077 178.035996 85.9362106 178.020401 85.8814011 177.980057 85.8120422 177.966705 85.7415695 177.924194 85.6498337 177.924194 85.5435638 177.899582 85.329895 177.899582 85.0435181 177.899582 81.1953201 180.729797 81.1953201 180.729797 79.837265 177.899582 79.837265 177.899582 78.1648636 176.116364 78.1648636 176.116364 79.837265 175.145447 79.837265 175.145447 81.1953201 176.116364 81.1953201 176.116364 85.27285 176.116364 85.4809189 176.129868 85.6912231 176.14328 85.8814011 176.167892 86.0615005 176.208099 86.2248306 176.259552 86.3870316 176.308777 86.5167999 176.364716 86.6476822 176.438538 86.7718582 176.514618 86.8680573 176.595154 86.9821625 176.695831 87.0694199 176.803299 87.1421356 176.917404 87.2114868 177.03598 87.2741318 177.163437 87.3233566 177.304459 87.3636246 177.454285 87.3971863 177.622086 87.4430542 177.801071 87.4553604 178.188126 87.490036 178.599808 87.5034637 178.83696 87.490036 179.05397 87.4743729 179.24646 87.4620667 179.447754 87.4430542 179.622253 87.3971863 179.787826 87.3546753 179.944427 87.2987442 180.080978 87.2260284 180.201797 87.1611481 180.315903 87.0761337 180.43895 86.9855194 180.535156 86.8803635 180.599976 86.7819214 180.696182 86.6644592 180.758896 86.53582 180.812592 86.3903885 180.877396 86.2539139 180.919907 86.1028976 180.962418 85.9362106 180.980316 85.7561111 181.018356 85.5558701 181.018356 85.3511505 181.031845 85.1408463 181.031845 84.9159927 181.031845 84.7817535 181.018356 84.6721268"></polygon>
                <polygon id="Path" points="187.712433 81.3250885 187.674469 81.1695938 187.638596 81.020813 187.605041 80.8809738 187.562531 80.7500916 187.508896 80.630394 187.423813 80.5241241 187.37236 80.406662 187.287338 80.3082199 187.191132 80.2142563 187.094925 80.1292343 186.98761 80.0453339 186.862244 79.9748611 186.741425 79.9234009 186.584808 79.8618774 186.432678 79.8260803 186.269348 79.7958755 186.101547 79.7701416 185.90921 79.7500076 185.714569 79.7500076 185.560196 79.7500076 185.412521 79.7701416 185.253601 79.7835693 185.114899 79.8260803 184.969543 79.8540421 184.828522 79.9077377 184.721191 79.9659119 184.595901 80.0341492 184.468368 80.1001511 184.345245 80.18293 184.253586 80.2668304 184.137177 80.3652725 184.056702 80.4737854 183.958191 80.5845337 183.886597 80.7087021 183.806061 80.8451767 183.754593 80.8451767 183.779205 79.837265 182.056473 79.837265 182.056473 87.4039001 183.848572 87.4039001 183.848572 82.8990402 183.848572 82.685379 183.864227 82.4896164 183.886597 82.2960815 183.931351 82.1294022 183.973862 81.9604874 184.027557 81.8240128 184.096909 81.6976013 184.177521 81.5745468 184.260239 81.4761047 184.358749 81.3798981 184.468368 81.3094254 184.58017 81.2378311 184.721191 81.1953201 184.84642 81.1561661 184.985123 81.142746 185.146286 81.1248474 185.383438 81.142746 185.551239 81.1695938 185.627304 81.1953201 185.701065 81.2154541 185.772659 81.2568436 185.824188 81.2736282 185.918167 81.3642349 186.003113 81.4626846 186.061356 81.5600052 186.101547 81.6819382 186.110565 81.8072281 186.144135 81.9727936 186.159729 82.1719131 186.159729 82.3878174 186.159729 82.7491455 187.772842 82.7491455 187.772842 82.2356796 187.772842 81.8486176 187.734802 81.4872894"></polygon>
                <polygon id="Path" points="220.930801 73.5811462 220.765243 73.5307999 220.622055 73.4916458 220.485642 73.4502563 220.369232 73.3965607 220.250717 73.3395081 220.145569 73.2813416 220.065033 73.2108688 219.993439 73.1571732 219.874847 73.0900497 219.798782 73.0039139 219.702576 72.9099426 219.498917 72.688446 219.286438 72.3975983 219.076065 72.1526108 218.917206 71.9232864 218.76059 71.7409439 218.6353 71.5865631 212.918945 64.12397 218.315369 57.4086342 218.595108 57.0831032 218.800934 56.826931 218.95755 56.6266899 219.051453 56.4991608 219.232666 56.2385139 219.425156 56.0136642 219.604065 55.8436241 219.780823 55.7127419 219.85025 55.6635208 219.950928 55.6221313 220.065033 55.574028 220.167877 55.5393486 220.30658 55.5091476 220.449783 55.4979591 220.588486 55.4867706 220.747406 55.4733467 220.747406 55.0135765 213.377655 55.0135765 213.377655 55.4733467 213.608108 55.5091476 213.80722 55.5695534 213.952576 55.6355553 214.106964 55.7228088 214.151779 55.7619629 214.207642 55.8167763 214.254623 55.8749466 214.272522 55.9241714 214.301605 55.9968834 214.326218 56.0505791 214.326218 56.1288834 214.344116 56.2049522 214.326218 56.3011589 214.301605 56.4298058 214.254623 56.5562134 214.174072 56.6938095 214.077866 56.8582535 213.952576 57.040596 213.813873 57.215107 213.664032 57.4276543 210.665955 61.270256 207.721695 57.4276543 207.591873 57.254261 207.462097 57.0663261 207.365891 56.9130669 207.285355 56.764286 207.216064 56.6266899 207.171249 56.4991608 207.151108 56.389534 207.131043 56.2910919 207.131043 56.2049522 207.151108 56.1400719 207.162293 56.0673599 207.184677 55.9968834 207.216064 55.9409485 207.258575 55.8749466 207.296539 55.8167763 207.341354 55.7619629 207.462097 55.679184 207.605286 55.5952835 207.766373 55.5259247 207.96109 55.4733467 207.96109 55.0135765 200.376556 55.0135765 200.376556 55.4733467 200.615951 55.4867706 200.823959 55.5259247 201.027557 55.574028 201.219971 55.6601639 201.403488 55.7317581 201.564575 55.8436241 201.723434 55.9532547 201.866623 56.0930862 202.11943 56.4174995 202.354294 56.7486229 202.59816 57.0831032 202.850967 57.4276543 208.06842 64.3298035 202.376724 71.5865631 202.132858 71.9232864 201.888992 72.2476959 201.622757 72.5631561 201.345322 72.8685532 201.211014 73.0206909 201.070068 73.1571732 200.904495 73.2679138 200.734528 73.365242 200.571136 73.4502563 200.394394 73.5173798 200.204285 73.5811462 200.009644 73.6068726 200.009644 74.0476227 207.240677 74.0476227 207.240677 73.6068726 207.021423 73.5811462 206.824539 73.5307999 206.746155 73.4916458 206.663452 73.4625626 206.591858 73.4189377 206.538162 73.365242 206.482224 73.3115463 206.428528 73.2623215 206.386017 73.1996765 206.356934 73.1314392 206.32785 73.0620804 206.314423 72.9916077 206.303162 72.9099426 206.303162 72.8115005 206.303162 72.730957 206.32785 72.632515 206.370285 72.5184097 206.439636 72.3975983 206.52243 72.2521744 206.625412 72.1011505 206.73056 71.9322357 206.864731 71.754364 210.323715 67.2114792 213.952576 71.9232864 214.174072 72.2264404 214.31279 72.4949188 214.366562 72.6079025 214.409073 72.6973953 214.440323 72.7991943 214.449264 72.8685532 214.440323 72.9390335 214.440323 72.9916077 214.409073 73.0464249 214.391174 73.1157761 214.326218 73.2108688 214.234482 73.3115463 214.122696 73.3965607 213.968246 73.4826965 213.813873 73.5431061 213.608108 73.6068726 213.608108 74.0476227 221.098602 74.0476227 221.098602 73.6068726"></polygon>
                <path d="M182.726639,73.6068726 L182.509552,73.5307999 L182.317215,73.4502564 L182.160522,73.3652421 L182.03978,73.2623216 L181.965881,73.1996766 L181.914429,73.1504594 L181.88765,73.0900499 L181.847305,73.0329973 L181.827164,72.9614031 L181.804794,72.9099428 L181.804794,72.8372347 L181.804794,72.7701113 L181.804794,72.6739046 L181.804794,72.5877687 L181.827164,72.494919 L181.871918,72.3852922 L181.956925,72.1335908 L182.053131,71.8662339 L183.335129,69.1691361 L191.913025,69.1691361 L193.159226,71.8662339 L193.300247,72.1526109 L193.365051,72.3673936 L193.42099,72.5777055 L193.427765,72.7399064 L193.427765,72.8249284 L193.42099,72.8965226 L193.42099,72.97818 L193.380783,73.0464249 L193.365051,73.1157761 L193.309189,73.1739502 L193.266678,73.2444229 L193.226334,73.305954 L193.159226,73.3540573 L193.098877,73.3965607 L193.018341,73.4357148 L192.948914,73.4826966 L192.772156,73.5431061 L192.561859,73.6068726 L192.561859,74.0476227 L199.468476,74.0476229 L199.468476,73.6068726 L199.345429,73.5811463 L199.235794,73.5431061 L199.108338,73.4916458 L198.996399,73.4357147 L198.891251,73.365242 L198.781616,73.2813415 L198.667511,73.1996765 L198.542221,73.0900497 L198.446015,72.9781799 L198.34758,72.8517761 L198.24025,72.7152939 L198.137268,72.5631561 L198.03212,72.4110183 L197.933747,72.2476959 L197.837464,72.0575256 L197.743576,71.8662338 L190.575104,57.1781921 L190.440933,56.9130668 L190.364868,56.6792678 L190.32901,56.5662803 L190.311173,56.4600105 L190.299912,56.3649215 L190.299912,56.2575301 L190.299912,56.185936 L190.311173,56.1031571 L190.311173,56.0505791 L190.35138,55.9912911 L190.378296,55.9241715 L190.407379,55.8659974 L190.465485,55.8167764 L190.505753,55.761963 L190.615387,55.6635209 L190.751862,55.5952836 L190.933075,55.5259248 L191.125488,55.4733468 L191.125488,55.0135766 L184.465042,55.0135766 L184.465042,55.4733468 L184.646271,55.5393487 L184.787155,55.6221314 L184.939285,55.7127419 L185.053391,55.8167763 L185.120514,55.9241715 L185.20105,56.06736 L185.216721,56.2049523 L185.227966,56.3649216 L185.227966,56.4857369 L185.216721,56.5998421 L185.20105,56.7228966 L185.14743,56.8582535 L185.053391,57.1569367 L184.912506,57.4880601 L178.005814,72.1145783 L177.844803,72.4188538 L177.672516,72.6973954 L177.59198,72.8249284 L177.493469,72.9390336 L177.406281,73.046425 L177.312241,73.1504594 L177.22052,73.227646 L177.115357,73.3115465 L177.023697,73.3764269 L176.92749,73.4357149 L176.817871,73.491646 L176.714874,73.5431063 L176.596298,73.5811465 L176.486664,73.6068728 L176.486664,74.0476229 L182.726639,74.0476229 L182.726639,73.6068726 L182.726639,73.6068726 Z M187.630783,59.8752899 L187.684479,59.8752899 L190.673614,66.5537033 L184.581314,66.5537033 L187.630783,59.8752899 Z" id="Shape"></path>
                <path d="M161.089401,73.6068726 L160.88356,73.5307999 L160.691223,73.4357148 L160.617325,73.3965607 L160.539017,73.3395081 L160.485382,73.2813416 L160.411484,73.2108689 L160.353317,73.1571732 L160.317581,73.0900498 L160.275086,73.020691 L160.245987,72.9390336 L160.2146,72.8685533 L160.201172,72.783539 L160.190064,72.6884462 L160.190064,72.6079027 L160.190064,66.2908174 L165.215088,66.2908174 L169.045319,71.866234 L169.331711,72.3013918 L169.524109,72.6470568 L169.593475,72.7991946 L169.649475,72.9099429 L169.678559,73.0039142 L169.689682,73.0900501 L169.678559,73.1840214 L169.649475,73.2679142 L169.593475,73.3540577 L169.510758,73.4189381 L169.41449,73.482697 L169.287033,73.5308003 L169.152786,73.5811467 L168.984924,73.606873 L168.984924,74.0476231 L175.820023,74.0476231 L175.820023,73.606873 L175.611878,73.5923314 L175.421707,73.5308003 L175.211395,73.462563 L175.019058,73.3764271 L174.844467,73.2679142 L174.661087,73.1504597 L174.479859,72.9916081 L174.316529,72.811501 L174.220261,72.6884465 L174.012253,72.4110188 L173.725876,71.9613194 L173.280579,71.3784947 L169.636048,66.1274952 L169.951447,66.072678 L170.255783,66.0122685 L170.548813,65.9429173 L170.837494,65.8634877 L171.11261,65.7829442 L171.374375,65.6845021 L171.636154,65.58606 L171.884491,65.4820256 L172.123886,65.3679204 L172.340973,65.2381597 L172.560227,65.1206975 L172.772705,64.9719167 L172.962876,64.836556 L173.155289,64.6821828 L173.320862,64.5188527 L173.475235,64.3521733 L173.63855,64.1799016 L173.777344,64.0087438 L173.929413,63.8062673 L174.043518,63.6127401 L174.162094,63.4057851 L174.267242,63.2010732 L174.361282,62.9672704 L174.459717,62.7513662 L174.524536,62.515328 L174.591659,62.2658697 L174.640884,62.030953 L174.687866,61.7658239 L174.728195,61.5007024 L174.74379,61.2243962 L174.772873,60.9480824 L174.772873,60.6751332 L174.772873,60.3328175 L174.74379,60.0016941 L174.72142,59.6985401 L174.687866,59.3853153 L174.638641,59.0989383 L174.580536,58.8092006 L174.499924,58.5228236 L174.417221,58.2677691 L174.350098,58.0708849 L174.267242,57.8807108 L174.162094,57.6804697 L174.086014,57.5003664 L173.945145,57.3292086 L173.819778,57.1625292 L173.690018,57.0036776 L173.537872,56.8504221 L173.394684,56.6938097 L173.238144,56.5562136 L173.079224,56.4174998 L172.880173,56.2776683 L172.690002,56.1434291 L172.481857,56.0461047 L172.27385,55.9241717 L172.052292,55.8167765 L171.812897,55.7228091 L171.569092,55.6355555 L171.320755,55.5393488 L171.058914,55.4733469 L170.783722,55.390568 L170.490631,55.3301585 L170.213272,55.2552111 L169.91124,55.2059901 L169.593475,55.1578868 L169.273529,55.1254466 L168.944641,55.0862925 L168.600174,55.0527308 L167.893173,55.0292399 L167.13472,55.0135768 L155.245575,55.0135768 L155.245575,55.473347 L155.45134,55.5393489 L155.621445,55.6221316 L155.699677,55.6791842 L155.7668,55.7228091 L155.838394,55.7753871 L155.894394,55.8436244 L155.9525,55.9017985 L155.988358,55.9745104 L156.024094,56.0505793 L156.042053,56.1288836 L156.073319,56.2049525 L156.097916,56.2910922 L156.097916,56.3895343 L156.115815,56.4723132 L156.115815,72.6079028 L156.097916,72.6884463 L156.097916,72.7701113 L156.073319,72.8517763 L156.042053,72.9244844 L156.024094,73.003914 L155.988358,73.0743867 L155.9525,73.1504594 L155.894394,73.1996766 L155.7668,73.3238526 L155.621445,73.4357148 L155.45134,73.5173798 L155.245575,73.6068726 L155.245575,74.0476231 L161.089401,74.0476227 L161.089401,73.6068726 Z M160.190063,58.1357651 L166.543991,58.1357651 L167.011597,58.1357651 L167.452347,58.1514282 L167.852829,58.178276 L168.2108,58.2196655 L168.544159,58.2677688 L168.837326,58.3158721 L169.096787,58.3852271 L169.316116,58.461296 L169.468246,58.5228233 L169.636047,58.615673 L169.772461,58.7129974 L169.902298,58.8092003 L170.018555,58.90205 L170.130432,59.0273437 L170.224396,59.1515121 L170.327377,59.2779235 L170.394501,59.4322967 L170.477219,59.5721282 L170.530914,59.7332152 L170.577896,59.9066084 L170.595795,60.0833586 L170.640533,60.2645796 L170.640533,60.4569929 L170.640533,60.6751325 L170.640533,60.857475 L170.640533,61.0431668 L170.595795,61.2243954 L170.577896,61.4044949 L170.530914,61.5566327 L170.445969,61.7199628 L170.394501,61.8620298 L170.327377,62.0018613 L170.224396,62.1271512 L170.119247,62.2546842 L170.009613,62.3665464 L169.879852,62.4739378 L169.759109,62.5779722 L169.606964,62.6529234 L169.454758,62.7379454 L169.287033,62.8140105 L169.054275,62.8956755 L168.78804,62.9650343 L168.501663,63.0120161 L168.168289,63.061241 L167.812622,63.0802535 L167.436691,63.1194076 L166.998169,63.1238861 L166.543991,63.1417847 L160.190063,63.1417847 L160.190063,58.1357651 Z" id="Shape"></path>
                <path d="M149.710358,71.6648712 L150.014633,71.3527679 L150.303253,71.0182876 L150.562851,70.6703796 L150.808884,70.3112945 L151.050522,69.9354171 L151.251877,69.5326995 L151.448761,69.1165618 L151.614319,68.6690978 L151.764298,68.2137984 L151.905182,67.741722 L152.01033,67.2528685 L152.099899,66.7394026 L152.167008,66.1957319 L152.220642,65.6565321 L152.249726,65.0837782 L152.258667,64.5031965 L152.249726,63.9192503 L152.220642,63.3520887 L152.167008,62.8140104 L152.099899,62.2837675 L152.01033,61.7658232 L151.905182,61.2769697 L151.764298,60.8015364 L151.614319,60.3473585 L151.448761,59.9122007 L151.251877,59.4859922 L151.050522,59.0989378 L150.808884,58.7129972 L150.562851,58.3539045 L150.303253,58.0149496 L150.014633,57.6804693 L149.710358,57.3728369 L149.379303,57.1032408 L149.019028,56.8269308 L148.643219,56.5662802 L148.256165,56.3481444 L147.844437,56.1288832 L147.412689,55.9241713 L146.971878,55.7619627 L146.502029,55.5952833 L146.021011,55.4610441 L145.506424,55.3469389 L144.980652,55.2417868 L144.42804,55.1500548 L143.864227,55.0918845 L143.269165,55.0370711 L142.662857,55.0135764 L142.02745,55.0135764 L137.056045,55.0135764 L131.57019,55.0135764 L131.494125,55.0135764 L131.494125,55.4733466 L131.69548,55.5393485 L131.874405,55.6221312 L131.959412,55.6791838 L132.024368,55.7228087 L132.098129,55.7753867 L132.158615,55.843624 L132.203293,55.9017981 L132.245788,55.97451 L132.292786,56.0505789 L132.317383,56.1288832 L132.346481,56.2049521 L132.359894,56.2910918 L132.373398,56.3895339 L132.373398,56.4723128 L132.373398,67.741722 L122.003319,56.8358802 L121.902641,56.7228965 L121.831047,56.6266898 L121.763924,56.52713 L121.714775,56.4298056 L121.674431,56.3481444 L121.640869,56.2463454 L121.627449,56.1434287 L121.627449,56.0673598 L121.627449,55.9532546 L121.654297,55.843624 L121.714775,55.7496566 L121.781891,55.6791839 L121.862434,55.6120643 L121.960808,55.5393485 L122.099525,55.497959 L122.247185,55.4733466 L122.247185,55.0135764 L121.124054,55.0135764 L115.841728,55.0135764 L115.562126,55.0135764 L115.562126,55.4733466 L115.783554,55.5393485 L115.969254,55.6221312 L116.036369,55.6791838 L116.114677,55.7228087 L116.188507,55.7753867 L116.224304,55.843624 L116.282547,55.9017981 L116.340721,55.97451 L116.378754,56.0505789 L116.412315,56.1288832 L116.421265,56.2049521 L116.448044,56.2910918 L116.459297,56.3895339 L116.459297,56.4723128 L116.459297,65.9350814 L116.459297,66.3064803 L116.448044,66.6666869 L116.421265,67.0201873 L116.378754,67.336769 L116.351837,67.6578216 L116.282547,67.9509124 L116.224304,68.2261047 L116.170608,68.4878692 L116.074409,68.7373351 L116.007286,68.9700164 L115.911156,69.2004623 L115.812637,69.392868 L115.691894,69.5830383 L115.575485,69.7597885 L115.436767,69.9275894 L115.302528,70.0618286 L115.15039,70.18824 L114.980423,70.3112945 L114.790184,70.4153289 L114.595535,70.5339049 L114.392006,70.62899 L114.15702,70.710655 L113.922096,70.7923124 L113.671592,70.8650282 L113.398567,70.9276732 L113.103309,70.9724196 L112.801201,71.0361861 L112.485733,71.0551986 L112.154686,71.0954742 L111.80783,71.1144943 L111.449852,71.1312713 L111.089714,71.1312713 L110.71154,71.1312713 L110.355873,71.1144943 L110.009018,71.0954742 L109.68013,71.0551986 L109.371452,71.0361861 L109.071647,70.9724196 L108.776252,70.9276732 L108.52343,70.8650282 L108.259498,70.790077 L108.037933,70.710655 L107.80085,70.6133268 L107.597183,70.5171278 L107.3824,70.4153288 L107.203415,70.3001021 L107.046867,70.1736983 L106.874595,70.0484084 L106.742592,69.9108123 L106.597099,69.7396545 L106.480758,69.5718536 L106.373436,69.3794479 L106.24807,69.169136 L106.158653,68.967781 L106.064682,68.7261428 L105.990783,68.4744491 L105.930443,68.2137985 L105.861015,67.9374923 L105.818504,67.6444015 L105.776001,67.3266983 L105.72908,67.0045242 L105.702232,66.666687 L105.691047,66.3064804 L105.691047,65.9350815 L105.691047,56.4723129 L105.691047,56.389534 L105.702232,56.2910919 L105.717827,56.2049522 L105.74691,56.1288833 L105.780472,56.050579 L105.818504,55.9745101 L105.874443,55.9017982 L105.930443,55.8436241 L105.979591,55.7753868 L106.051185,55.7228088 L106.131805,55.6791839 L106.216819,55.6221313 L106.395736,55.5393486 L106.608352,55.4733467 L106.608352,55.0135765 L100.688316,55.0135764 L100.688316,55.4733467 L100.898628,55.5393486 L101.070968,55.6221313 L101.160392,55.6791839 L101.227516,55.7228088 L101.292396,55.7753868 L101.36399,55.8436241 L101.40657,55.9017982 L101.460197,55.9745101 L101.487114,56.050579 L101.527313,56.1288833 L101.538574,56.2049522 L101.569824,56.2910919 L101.569824,56.389534 L101.581009,56.4723129 L101.581009,67.1286926 L101.581009,67.6578216 L101.62352,68.1567459 L101.681762,68.640007 L101.748878,69.1031341 L101.85173,69.5326995 L101.956886,69.9667434 L102.024002,70.1569137 L102.104545,70.3515624 L102.180618,70.5473327 L102.258919,70.7430953 L102.334991,70.9276732 L102.426788,71.0977095 L102.531944,71.2744597 L102.641571,71.4377821 L102.751205,71.6022261 L102.860832,71.7543639 L102.986122,71.9087447 L103.106865,72.0575255 L103.236633,72.2063063 L103.373108,72.3439024 L103.502876,72.4781416 L103.655014,72.6079023 L103.809387,72.7309568 L103.959358,72.8372343 L104.118141,72.950218 L104.292717,73.0620802 L104.570152,73.2276457 L104.863167,73.3652418 L105.167519,73.5039518 L105.507515,73.6348417 L105.861015,73.7500608 L106.225769,73.8529737 L106.608353,73.9491804 L107.011001,74.0476225 L107.4384,74.1181028 L107.88356,74.187454 L108.331093,74.2411497 L108.816521,74.2825468 L109.315445,74.3217009 L109.832268,74.3586119 L110.369293,74.3731535 L110.912964,74.3731535 L111.474464,74.3731535 L112.029388,74.3586119 L112.555161,74.3217009 L113.062965,74.2825468 L113.561958,74.2411497 L114.018303,74.187454 L114.461296,74.1292875 L114.902046,74.0610502 L115.302528,73.9771497 L115.691895,73.8898923 L115.841728,73.8476636 L115.841728,74.0476224 L121.347855,74.0476224 L121.347855,73.6068723 L121.148659,73.5307996 L120.965271,73.4357145 L120.884727,73.3965604 L120.8153,73.3395081 L120.74601,73.2813416 L120.672111,73.2108689 L120.6296,73.1571732 L120.575905,73.0900498 L120.553535,73.020691 L120.508789,72.9390336 L120.493194,72.8685533 L120.468582,72.783539 L120.468582,72.688446 L120.457329,72.6079025 L120.457329,60.987236 L130.977234,72.0519333 L131.299484,72.3852921 L131.516434,72.6470566 L131.60144,72.756691 L131.652908,72.8517761 L131.69548,72.9244842 L131.69548,72.9916076 L131.69548,73.1101836 L131.670868,73.2108687 L131.614868,73.3115462 L131.558929,73.3764266 L131.47168,73.4625625 L131.364288,73.5173797 L131.236831,73.5811462 L131.102585,73.6202926 L131.102585,74.0476226 L131.57019,74.0476226 L137.056045,74.0476226 L142.02745,74.0476226 L142.662857,74.0420303 L143.269165,74.0062332 L143.864227,73.9648437 L144.42804,73.8988418 L144.980652,73.8115844 L145.506424,73.6997222 L146.021011,73.5923308 L146.502029,73.4502562 L146.971878,73.2813414 L147.412689,73.1157759 L147.844437,72.9099425 L148.256165,72.6973952 L148.643219,72.466957 L149.019028,72.2107772 L149.379303,71.9512481 L149.710358,71.6648712 Z M148.048019,64.5031967 L148.048019,64.9036789 L148.03244,65.2896118 L147.992096,65.6845016 L147.967484,66.0458297 L147.909378,66.397087 L147.844437,66.7394027 L147.759415,67.0593414 L147.690048,67.377037 L147.569305,67.6723632 L147.468628,67.9509124 L147.345581,68.2261047 L147.206863,68.4744491 L147.052414,68.7261428 L146.889084,68.9476394 L146.712341,69.169136 L146.528946,69.3581924 L146.32312,69.5427703 L146.114975,69.7262344 L145.893554,69.8895568 L145.645141,70.0484084 L145.394562,70.1882399 L145.137268,70.3112944 L144.859833,70.4153288 L144.557861,70.5339048 L144.253525,70.6133268 L143.935821,70.6994703 L143.591278,70.7665861 L143.242248,70.8314665 L142.886581,70.8650282 L142.497223,70.8941115 L142.123657,70.9064177 L141.725342,70.9064177 L136.516846,70.9064177 L136.516846,58.1357651 L141.725342,58.1357651 L142.123657,58.1357651 L142.497223,58.1514282 L142.886581,58.1928177 L143.242248,58.244278 L143.591278,58.2711258 L143.935821,58.3539047 L144.253525,58.4277382 L144.557861,58.517231 L144.859833,58.6156731 L145.137268,58.7241822 L145.394562,58.8617783 L145.645141,58.9937821 L145.893554,59.1380845 L146.114975,59.3014146 L146.32312,59.4759217 L146.528946,59.6482011 L146.712341,59.8495561 L146.889084,60.0643388 L147.052414,60.2925492 L147.206863,60.526352 L147.345581,60.7814027 L147.468628,61.0554734 L147.569305,61.3284302 L147.690048,61.6271134 L147.759415,61.9347458 L147.844437,62.2658692 L147.909378,62.6003495 L147.967484,62.9516068 L147.992096,63.3241272 L148.03244,63.69664 L148.048019,64.0825806 L148.048019,64.5031967 Z" id="Shape"></path>
            </g>
        </g>
    </g>
</svg>