<?xml version="1.0" encoding="UTF-8"?>
<svg width="52px" height="52px" viewBox="0 0 52 52" version="1.1" xmlns="http://www.w3.org/2000/svg" xmlns:xlink="http://www.w3.org/1999/xlink">
    <!-- Generator: Sketch 52.4 (67378) - http://www.bohemiancoding.com/sketch -->
    <title>logo</title>
    <desc>Created with Sketch.</desc>
    <g id="Page-1" stroke="none" stroke-width="1" fill="none" fill-rule="evenodd">
        <g id="LogoMain-01" fill="#000000">
            <g id="logo">
                <polygon id="Shape" points="41.8813057 34.8032341 41.8698845 34.8190651 17.0665054 9.7420559 17.1280307 9.7095833 17.2378616 9.6441899 17.36874 9.5844613 17.4952106 9.5115109 17.6155662 9.4587994 17.7376289 9.3929558 17.8632907 9.3323288 17.9862537 9.2677441 18.1180324 9.2101746 18.2374877 9.160162 18.3630599 9.1021443 18.4983462 9.0398083 18.6213988 8.9831391 18.7460707 8.9339352 18.8743418 8.882124 19.0078295 8.8320218 19.1351984 8.7710343 19.2661684 8.7301064 19.3952482 8.677845 19.5235174 8.6287308 19.6605127 8.5856457 19.7922914 8.5421982 19.9214609 8.4885884 20.0575579 8.4455014 20.1963518 8.4099713 20.3211134 8.359417 20.4581087 8.3229885 20.5951956 8.279541 20.7348898 8.2434711 20.8613604 8.1974163 20.999256 8.1701603 21.136341 8.1267147 21.2750453 8.0972099 21.4138392 8.0607795 21.5509261 8.0327148 21.6862124 7.9926872 21.8232077 7.9672317 21.9690188 7.9399757 22.1061038 7.9075031 22.2404899 7.8820476 22.3854007 7.8499355 22.5215873 7.8284359 22.6664981 7.7990227 22.8096999 7.7766247 22.9449862 7.763403 23.088188 7.7357865 23.23571 7.7142888 23.3763007 7.6984578 23.5115889 7.6817265 23.6556014 7.6623879 23.7979049 7.6492539 23.9420051 7.6312638 24.098339 7.6273061 24.2371329 7.6128236 24.3777274 7.5987016 24.5261458 7.5877286 24.6667403 7.5772039 24.8221778 7.566229 24.967987 7.5618211 25.105072 7.5618211 25.2605095 7.5530969 25.4028092 7.5530969 25.5548287 7.5482389 25.7058564 7.5530969 25.8200951 7.5482389 25.9412575 7.5482389 26.0581055 7.5530969 26.1802559 7.5530969 26.2926979 7.5618211 26.4086418 7.5618211 26.5245895 7.566229 26.6440467 7.5772039 26.7599906 7.5811616 26.8733291 7.5877286 26.9901771 7.5987016 27.1043243 7.6026593 27.220272 7.6198407 27.3397254 7.6198407 27.4504546 7.6312638 27.5716208 7.6492539 27.688465 7.6549206 27.7929915 7.6703034 27.9160422 7.6817265 28.0231742 7.6984578 28.1461372 7.7142888 28.2568664 7.7287713 28.3675079 7.7489205 28.4817466 7.763403 28.5888786 7.7766247 28.7101326 7.7990227 28.8190613 7.822321 28.9279938 7.8464261 29.0439415 7.8565923 29.1633949 7.8820478 29.2679176 7.9000379 29.385662 7.9242345 29.4918975 7.9457322 29.6043357 7.9760457 29.7097587 7.9926873 29.8239936 8.0265084 29.9381446 8.0537644 30.044464 8.074812 30.1524962 8.1042271 30.2666434 8.1267147 30.3755759 8.158287 30.4809989 8.1903991 30.5952338 8.2193641 30.6971511 8.2509364 30.8060798 8.2795409 30.9132118 8.3159713 31.027359 8.3528518 31.1275673 8.3814563 31.2391052 8.4099712 31.3357124 8.4455013 31.4543571 8.4815712 31.5535736 8.5202503 31.6580963 8.5575809 31.7618103 8.5935611 31.8706512 8.6343974 31.9760742 8.6726283 32.0814972 8.7073478 32.1834107 8.7512454 32.285328 8.7855166 32.3959657 8.8320216 32.4961702 8.8653926 32.6042024 8.9150447 32.7113344 8.9549846 32.8079416 8.9985198 32.9054491 9.0398082 33.0126726 9.0881118 33.1127855 9.1307487 33.2164118 9.1807613 33.3069 9.2229481 33.4132232 9.2677441 33.5116309 9.3230629 33.6082381 9.368309 33.7171668 9.4135551 33.8172835 9.4715728 33.9094847 9.5115108 34.0043829 9.5646724 34.2020033 9.6766605 34.404125 9.7767772 34.4980314 9.8356952 34.5938299 9.8844489 34.6860311 9.9353598 34.7835386 9.9929293 34.8793371 10.0504073 34.9733351 10.1096858 35.0716513 10.1602382 35.1577338 10.2186164 35.3510398 10.3394202 35.5337295 10.4602259 35.71912 10.5740126 35.9053192 10.6995848 35.9887924 10.7637194 36.0765838 10.8287543 36.171482 10.885784 36.2575645 10.9547766 36.44907 11.083046 36.626545 11.2156334 36.7073212 11.2850761 36.7934037 11.3527202 36.8847962 11.4173049 36.9655724 11.4826983 37.0569611 11.55385 37.1421433 11.6219423 37.2273293 11.6926439 37.3054963 11.7581289 37.3933793 11.8323381 37.475052 11.9012411 37.558529 11.9768007 37.6472207 12.0528085 37.7262879 12.1200025 37.8106614 12.1955602 37.8897286 12.2684209 37.9687043 12.3400228 38.0504723 12.4195383 38.1373635 12.49069 38.2129212 12.573715 38.2919884 12.6488245 38.3745652 12.7274416 38.4536324 12.7946356 38.5291901 12.8754118 38.6003418 12.9567278 40.5100021 11.0268267 40.4196014 10.9337271 40.3361282 10.8418883 40.2368202 10.7579631 40.157753 10.6671123 40.0594368 10.5810298 39.9715538 10.4949454 39.8784561 10.4084128 39.7818489 10.3188227 39.6887512 10.2410143 39.5973587 10.1544817 39.5007515 10.0710962 39.4040527 9.9858225 39.3144645 9.9068468 39.2178573 9.8154562 39.1291656 9.7372873 39.0263481 9.6586702 38.9227257 9.584461 38.831337 9.501436 38.73032 9.418411 38.636322 9.3379953 38.52919 9.2598283 38.4360923 9.1807611 38.335884 9.1061018 38.228752 9.0270346 38.0284308 8.8821238 37.8326071 8.7301062 37.7262877 8.6607531 37.6226614 8.5856455 37.5154417 8.5144938 37.4100187 8.4372252 37.2009733 8.3014887 36.9902189 8.1582869 36.7740629 8.0190428 36.568527 7.8860052 36.4507787 7.8223207 36.3427503 7.7568357 36.2365186 7.6887434 36.1266858 7.6273058 36.0203664 7.5662287 35.9053189 7.5047034 35.7963864 7.4370593 35.6883542 7.3756236 35.4608685 7.2539195 35.2386013 7.1423797 35.1235538 7.080944 35.0102153 7.0238246 34.892467 6.9737214 34.7835383 6.9161528 34.6623721 6.8551663 34.5551524 6.8050631 34.4410052 6.747135 34.321548 6.6909149 34.202003 6.6447704 34.0913653 6.585942 33.9728083 6.5433051 33.8524546 6.4861867 33.7303004 6.4348247 33.6170497 6.3856218 33.5010142 6.3426244 33.3789515 6.2881143 33.263904 6.2494352 33.140941 6.1954649 33.021396 6.152828 32.8949235 6.1089323 32.7842858 6.0553215 32.6595223 6.0219496 32.5347588 5.9749945 32.4206116 5.9372156 32.2905419 5.8963774 32.1790047 5.85464 32.051632 5.8168611 31.9277726 5.7711658 31.805706 5.728529 31.6756363 5.7004643 31.5535736 5.6635848 31.4376259 5.6195985 31.3067475 5.591983 31.1837845 5.5559131 31.0572243 5.5177738 30.9263459 5.4918682 30.8060799 5.4553482 30.6743012 5.4245846 30.5548478 5.3877051 30.4256783 5.3662064 30.3027153 5.3372424 30.1753426 5.3011716 30.0514832 5.2796739 29.9206009 5.2507089 29.788826 5.2217449 29.6579437 5.2006067 29.5340843 5.1795582 29.4041023 5.1470856 29.2758331 5.1254973 29.1457634 5.1035494 29.0122757 5.0934748 28.8840065 5.0640606 28.7470093 5.04643 28.6248589 5.0258316 28.4922715 5.0104498 28.365799 4.996417 28.2322197 4.9748287 28.1022415 4.9607963 27.9669571 4.9458646 27.8369751 4.9274244 27.7069054 4.9177999 27.571621 4.9111433 27.4434395 4.8945026 27.3107605 4.8782215 27.1702576 4.8734541 27.0393792 4.8681469 26.912819 4.8597813 26.7758218 4.8483582 26.6405374 4.8457489 26.5087587 4.8343258 26.375271 4.8343258 26.2364771 4.8282089 26.1028978 4.8282089 25.9694139 4.8224516 25.8367349 4.8224516 25.7058565 4.8136368 25.5327913 4.8224516 25.3650324 4.8282089 25.194664 4.8282089 25.0268135 4.8343258 24.8573456 4.8343258 24.6939049 4.8457489 24.526146 4.8483582 24.3618966 4.8681469 24.1862222 4.8734541 24.0262872 4.8883858 23.8559228 4.9028683 23.6907731 4.9178 23.5274201 4.9383984 23.3604699 4.9528809 23.2032357 4.9670029 23.0406953 4.9964171 22.8729364 5.0104495 22.7086851 5.031498 22.5444357 5.0534459 22.385401 5.0934745 22.2202513 5.1101152 22.0639174 5.1431276 21.8970568 5.1725418 21.7424319 5.2006065 21.5719741 5.2295705 21.4138396 5.2665406 21.2539981 5.2932559 21.096762 5.3372422 20.9386294 5.3662062 20.7796843 5.4092923 20.6259596 5.443924 20.472233 5.4918681 20.3131983 5.5287476 20.1568644 5.5779505 19.99963 5.6130314 19.8423939 5.6635847 19.6903782 5.706131 19.5314331 5.7601919 19.381216 5.80058 19.2239818 5.85464 19.0807781 5.9046535 18.9226455 5.9534063 18.7715263 6.0056686 18.6213989 6.062787 18.4711799 6.1124401 18.3200626 6.1743269 18.1742515 6.230546 18.0249328 6.2881146 17.8738155 6.3461333 17.7226982 6.4137765 17.5803947 6.4743138 17.4240608 6.5344906 17.2870655 6.6043825 17.1394558 6.6658192 16.9953537 6.7339125 16.8451347 6.8050633 16.7020225 6.8736058 16.5632286 6.9342328 16.4244347 7.0058347 16.2786236 7.0809442 16.1345215 7.149397 15.9975262 7.2289125 15.8552227 7.3075296 15.7172394 7.3756239 15.5811424 7.4581987 15.4318237 7.5333082 15.2982464 7.6128237 15.1638603 7.6887438 15.0276737 7.770508 14.8923874 7.8499357 14.7606983 7.9399759 14.625412 8.019043 14.4848194 8.1042271 14.3618564 8.1903992 14.219553 8.279541 14.0895748 8.3660736 13.9630127 8.4643917 13.8242188 8.5478649 13.7056637 8.6409645 13.5765839 8.7301063 13.4483128 8.8259048 13.3156357 8.9150447 13.1952801 9.0134524 13.0662003 9.1061019 12.9370308 9.1992015 12.8105602 9.305973 12.6928138 9.397274 12.5707492 9.5014362 12.4477862 9.5945358 12.3239249 9.7051754 12.2035693 9.8049316 12.0928401 9.906847 11.9672679 10.0095711 11.8530311 10.1096859 11.7370834 10.2186165 11.6159191 10.3188229 11.499073 10.4294625 11.3857345 10.5374928 11.2697887 10.6486722 11.1626567 10.7579633 11.0414027 10.872202 10.9342707 10.9837399 10.8261488 11.0900631 10.7093924 11.2086182 10.6004618 11.3250142 10.4932402 11.4343949 10.3887175 11.5472832 10.2797869 11.6649399 10.1778715 11.7861939 10.0681322 11.9012414 9.9636076 12.0269032 9.8607939 12.1463585 9.7571696 12.2609558 9.6622714 12.3822098 9.5515422 12.5082321 9.4584426 12.6290359 9.3583278 12.7449817 9.2564124 12.8754119 9.1562976 13.0010737 9.0640983 13.1262854 8.9682998 13.254465 8.8787078 13.3801268 8.7821006 13.5092066 8.6942195 13.6392763 8.6020183 13.7648466 8.5089187 13.8926676 8.4184284 14.030113 8.1987686 14.3709371 10.1542148 16.3276441 10.1770629 16.2951715 35.3352088 41.7296445 35.2666663 41.7801091 35.1463088 41.8521611 35.0225371 41.9286191 34.9082984 41.9887959 34.7835387 42.0643536 34.6728972 42.1266896 34.5411185 42.2009007 34.4198645 42.268993 34.2969015 42.3300701 34.1756475 42.398521 34.0544851 42.4626575 33.9253156 42.5202251 33.7997434 42.591827 33.6828954 42.6529041 33.5502164 42.7094837 33.4220388 42.7723575 33.2954786 42.8246189 33.1708028 42.8869549 33.0416333 42.9466854 32.9124638 42.9972378 32.7842862 43.0512081 32.6498982 43.1074253 32.5251347 43.1614872 32.38895 43.2123981 32.2580716 43.2594448 32.1315991 43.3094555 31.9989201 43.3626171 31.8601262 43.4061542 31.7336575 43.4491497 31.5939633 43.5040203 31.4586751 43.5418011 31.3242871 43.5901028 31.1872937 43.6313931 31.057224 43.6758267 30.9193303 43.7188222 30.7779271 43.7544438 30.6409299 43.7899739 30.5047452 43.8299138 30.3668515 43.8655354 30.224548 43.9028622 30.0857541 43.9380337 29.9504659 43.9665486 29.8098714 44.0060383 29.6623532 44.0302349 29.5261685 44.0609966 29.3856618 44.0886112 29.2406613 44.1167675 29.0931431 44.1492382 28.9578549 44.171188 28.8128544 44.1993443 28.6679455 44.2208401 28.5230328 44.2392803 28.3745228 44.2647358 28.2322193 44.286327 28.0926166 44.2999073 27.9450069 44.3183475 27.7929912 44.3372379 27.6489787 44.3512684 27.5031657 44.3693501 27.3564563 44.370609 27.2062373 44.38644 27.0569186 44.4018209 26.9128184 44.4074895 26.7599902 44.4224202 26.6080623 44.4338452 26.4578472 44.4365422 26.3102375 44.4365422 26.1574093 44.4479672 26.0062901 44.4510266 25.8569714 44.4510266 25.705856 44.4479672 25.5749776 44.4510266 25.4581296 44.4510266 25.3421819 44.4479672 25.214813 44.4479672 25.0997655 44.4365422 24.9777028 44.4365422 24.8625638 44.4338452 24.7440068 44.4224202 24.6254536 44.4193646 24.5042 44.4074898 24.3926583 44.4018212 24.2669984 44.3969651 24.1545602 44.3785249 24.0315972 44.3706094 23.9138489 44.3693505 23.797905 44.3512688 23.685463 44.3372383 23.5660096 44.3223076 23.4553681 44.3113327 23.3332177 44.2999077 23.2164613 44.2784081 23.1110383 44.2647362 22.9862748 44.2494469 22.8729363 44.2278557 22.7569886 44.2138252 22.6445504 44.1935844 22.5400277 44.1711883 22.4152661 44.1536483 22.3081341 44.1316985 22.191288 44.1027335 22.0762405 44.0886115 21.9690189 44.0609969 21.8495636 44.0377005 21.7424316 44.0171011 21.6246852 43.989395 21.5157546 43.9586333 21.3980979 43.9380339 21.2891673 43.908531 21.1749305 43.8774069 21.0677985 43.8484419 20.9605769 43.818939 20.8464278 43.789974 20.7410067 43.7619093 20.6259592 43.7267416 20.5152281 43.6982267 20.4107054 43.66872 20.3052824 43.6313932 20.1963518 43.5963094 20.0777967 43.5571821 19.9784906 43.5251577 19.8625429 43.4855802 19.7624281 43.4491498 19.6482809 43.4139783 19.5454653 43.3784482 19.439144 43.3345525 19.332012 43.2989309 19.2239817 43.2567442 19.1220663 43.2168081 19.0175436 43.1738088 18.9121206 43.1302755 18.8066976 43.0942953 18.7065828 43.0428427 18.6072767 42.997238 18.4983461 42.9576567 18.3903139 42.9111517 18.2831819 42.8671682 18.1812684 42.8176038 18.079353 42.7723577 17.9827458 42.7173994 17.8808323 42.6744039 17.7763077 42.6251981 17.6770016 42.5804021 17.5698696 42.5202253 17.4793793 42.4758794 17.3766552 42.4266774 17.2799583 42.3739659 17.1781345 42.318195 17.0832344 42.268993 16.9848286 42.2158314 16.8794056 42.1507984 16.7810894 42.0998836 16.6861912 42.0494228 16.5886837 41.9887958 16.4920765 41.9321247 16.394569 41.8745571 16.2978725 41.81744 16.2082824 41.7590599 16.1046581 41.6971741 16.0115585 41.6444626 15.9184589 41.5838356 15.8235607 41.519249 15.7304611 41.4534073 15.640871 41.396286 15.5406646 41.331253 15.4589881 41.270626 15.3658904 41.2061309 15.2718905 41.1437034 15.1778925 41.0739021 15.094507 41.0088691 14.9996088 40.9442825 14.9065094 40.8806 14.8116112 40.8138542 14.7290364 40.7387466 14.6411534 40.6764106 14.5550709 40.6104736 14.4619713 40.535366 14.3802967 40.4734802 14.2853966 40.3992691 14.202013 40.3267708 14.1176395 40.2621842 14.0368633 40.1902238 13.9419651 40.1159249 13.8549824 40.0364991 13.7759152 39.9719125 13.6872235 39.8897859 13.605547 39.8221437 13.5238724 39.7447855 13.4483128 39.6626589 13.3587208 39.595917 13.2813645 39.5163996 13.1952801 39.4400332 13.1162129 39.3614161 13.0371457 39.2823489 12.9563714 39.2028315 12.8755952 39.1286204 12.7991353 39.0464976 12.72007 38.9700358 12.6419011 38.8914187 10.7093926 40.7919047 10.795475 40.8806 10.886776 40.9803543 10.9825745 41.0668869 11.0782814 41.1639442 11.1626568 41.2521858 11.2557564 41.3396187 11.3488541 41.4257012 11.4419537 41.5113335 11.5350533 41.5983162 11.6281529 41.6839523 11.7300683 41.7748909 11.823166 41.8609734 11.9163571 41.9496651 12.0094548 42.0252266 12.1077729 42.1218338 12.211485 42.1925354 12.2957707 42.2799683 12.4029923 42.3625412 12.49609 42.4420586 12.5997143 42.5263443 12.6998291 42.6058578 12.7991352 42.684925 12.9001503 42.7723579 13.0055733 42.8461189 13.0986729 42.9172706 13.2067051 42.9972381 13.3086186 43.0801734 13.4114323 43.1517715 13.5176659 43.2303886 13.6239872 43.3064003 13.7311192 43.3784485 13.8242188 43.4491501 13.9323388 43.5251579 14.04208 43.5963096 14.1466027 43.6687202 14.2476178 43.7398719 14.3627549 43.8128242 14.4733945 43.877407 14.5779191 43.9520683 14.6886483 44.0171013 14.7940713 44.0886116 14.9065095 44.1536484 15.021557 44.2208405 15.1304876 44.2928925 15.2420274 44.3512688 15.350958 44.419365 15.4669057 44.4834977 15.5811425 44.5436745 15.6865655 44.6052018 15.8033219 44.6696969 15.918459 44.7312242 16.0246907 44.7896005 16.1363202 44.8524782 16.2627927 44.9104044 16.3787385 44.9688761 16.492077 45.024193 16.6071245 45.082123 16.7230722 45.1436503 16.8364107 45.2012179 16.9637815 45.2507823 17.0744211 45.3022349 17.2009813 45.3514369 17.3098222 45.4137729 17.4240609 45.463425 17.542616 45.5129894 17.6752931 45.5639919 17.7938501 45.6144527 17.9089872 45.6641048 18.0336591 45.7181667 18.1531144 45.760712 18.276167 45.8117145 18.3903142 45.8467983 18.5124684 45.8978008 18.6371403 45.9434932 18.7637024 45.9834331 18.8857651 46.0374034 19.0078297 46.0716746 19.131691 46.1164706 19.2599621 46.1520922 19.3812161 46.1955378 19.4997712 46.2293589 19.6324483 46.2724459 19.7536126 46.3102267 19.8836823 46.3559191 20.0119534 46.3861429 20.1340161 46.4213144 20.2630959 46.4546854 20.3922654 46.4876101 20.5152284 46.5218813 20.6461068 46.5605585 20.7743779 46.5899736 20.902649 46.6181261 21.0335274 46.6475412 21.1538811 46.6720964 21.2891674 46.7059213 21.4138393 46.7340738 21.5509262 46.7581827 21.6721802 46.7915537 21.8109741 46.8126909 21.9400539 46.8381464 22.072731 46.8662111 22.2027111 46.8881609 22.3361988 46.9057924 22.4662666 46.9307977 22.6006546 46.9527437 22.7306328 46.9664194 22.8580036 46.9844095 22.9967995 47.0023996 23.1241684 47.0247957 23.2620659 47.0383798 23.4008598 47.0525018 23.52742 47.0682412 23.6662139 47.0744477 23.7979049 47.088482 23.9287833 47.1025125 24.0667685 47.121853 24.2055624 47.1244623 24.3408468 47.1306688 24.477844 47.139393 24.6131284 47.1495592 24.7484166 47.153515 24.8863103 47.1617929 25.01548 47.1617929 25.1621017 47.1715051 25.2903709 47.1715051 25.4247589 47.1745645 25.5635528 47.1745645 25.7058563 47.1864397 25.8701057 47.1745645 26.0423622 47.1715051 26.2153396 47.1715051 26.3884048 47.1617929 26.5605697 47.1617929 26.7248191 47.153515 26.8952788 47.1495592 27.0692443 47.1306688 27.2343024 47.1244623 27.4056624 47.1099779 27.5787276 47.0963976 27.7455863 47.0814669 27.9160422 47.0682413 28.0811919 47.0458452 28.2515601 47.0318109 28.4185103 47.0103151 28.5835684 46.9844095 28.7470091 46.9664194 28.9191778 46.9457285 29.0860365 46.9057924 29.2494772 46.8881609 29.4128302 46.8552401 29.5797766 46.8267252 29.7343138 46.7981188 29.901264 46.7687037 30.0655134 46.7340739 30.2245481 46.6971057 30.382591 46.6620219 30.5460317 46.6219943 30.7128904 46.5899737 30.8693159 46.5544436 31.0273588 46.5078471 31.1872938 46.4639514 31.348934 46.42923 31.512287 46.3778689 31.6580962 46.3343318 31.8162307 46.2878268 31.9760741 46.2386248 32.1333083 46.1955378 32.2853278 46.1367075 32.4460677 46.0884058 32.5944899 46.0374033 32.7526205 45.983433 32.9054487 45.9263155 33.0574644 45.8762095 33.2164114 45.8187335 33.3658178 45.7510875 33.50893 45.7005351 33.6609495 45.6386493 33.8093679 45.5701068 33.9595869 45.5129893 34.1124113 45.4440844 34.2547148 45.3843577 34.404125 45.3179743 34.5551527 45.2507822 34.6922377 45.1800806 34.8450621 45.1049692 34.9873656 45.031212 35.1296691 44.968876 35.2736816 44.8954736 35.4142761 44.8199159 35.55307 44.7412988 35.6971702 44.6696969 35.8464889 44.5902711 35.9782676 44.511654 36.1205711 44.4338456 36.2575645 44.3512688 36.3963584 44.2713929 36.5404624 44.1935845 36.6686439 44.1027337 36.8039283 44.0232202 36.9427222 43.9380342 37.0806197 43.8484422 37.2079886 43.7544442 37.3459738 43.6687203 37.4750517 43.5809289 37.605934 43.4855805 37.7351035 43.3990479 37.8685912 43.3064003 37.9985694 43.2123985 38.1268386 43.1153412 38.2542113 43.0152283 38.3859862 42.9172707 38.51165 42.8246193 38.6363219 42.7236061 38.7592849 42.6251984 38.8840484 42.5202256 39.0017928 42.4169617 39.1291655 42.3181954 39.2530249 42.2079163 39.3733824 42.1038437 39.4910353 42.0063362 39.6096838 41.8956947 39.7326468 41.7875747 39.8424757 41.6764869 39.9619291 41.5689048 40.0786855 41.4569129 40.187618 41.3496932 40.3132779 41.2359961 40.4196011 41.1231078 40.5337483 41.0009536 40.6487958 40.8947219 40.759525 40.7756232 40.862251 40.6605757 40.9694707 40.5459784 41.0880277 40.4203185 41.1943509 40.3043708 41.2944638 40.183567 41.402496 40.0645637 41.5114285 39.9323348 41.6124417 39.8221435 41.7134587 39.6885681 41.8144719 39.5656051 41.9216954 39.4400329 42.0121838 39.3187789 42.1132008 39.1852912 42.2150265 39.0561217 42.31694 38.9291991 42.4083287 38.7952613 42.5049359 38.6740073 42.5963284 38.5317038 42.6920353 38.4003752 42.7913395 38.2739065 42.8756252 38.1346624 42.9687267 38.0011747 43.0548092 37.8645399 43.1497074 37.736717 43.8014904 36.7151449"></polygon>
                <path d="M26.0003357,51.0462532 C12.1893997,51.0462532 0.9537468,39.8106003 0.9537468,26 C0.9537468,12.1893997 12.1893997,0.9537468 26.0003357,0.9537468 C39.8106003,0.9537468 51.0462532,12.1893997 51.0462532,26 C51.0462532,39.8106003 39.8106003,51.0462532 26.0003357,51.0462532 Z M26.0003357,2.3286648 C12.9480209,2.3286648 2.3286648,12.9476853 2.3286648,26 C2.3286648,39.0523147 12.948021,49.6713371 26.0003357,49.6713371 C39.0526504,49.6713371 49.6713371,39.0523148 49.6713371,26 C49.6713371,12.9476852 39.0526505,2.3286648 26.0003357,2.3286648 Z" id="Shape" fill-rule="nonzero"></path>
            </g>
        </g>
    </g>
</svg>