<?xml version="1.0" encoding="UTF-8"?>
<svg width="28px" height="28px" viewBox="0 0 28 28" version="1.1" xmlns="http://www.w3.org/2000/svg" xmlns:xlink="http://www.w3.org/1999/xlink">
    <!-- Generator: Sketch 52.4 (67378) - http://www.bohemiancoding.com/sketch -->
    <title>maint</title>
    <desc>Created with Sketch.</desc>
    <g id="Page-1" stroke="none" stroke-width="1" fill="none" fill-rule="evenodd">
        <g id="Maint_off" fill="#FFFFFF" fill-rule="nonzero">
            <path d="M24.3114014,10.2630005 C24.5963745,10.3300171 24.8903809,10.1890259 25.0164185,9.9240112 L27.2373658,5.2440185 C27.3504029,5.0050048 27.3013917,4.7219848 27.1154176,4.5360107 L25.8864137,3.3070068 C25.7003785,3.1210327 25.4183961,3.0720214 25.1784059,3.1849975 L20.4984132,5.4060058 C20.2333986,5.5319824 20.0924073,5.8250121 20.1593629,6.1110229 L20.4603883,7.3969726 L15.5014039,12.355957 L12.062378,8.9169922 C12.3443604,8.2189942 12.4863892,7.486023 12.4863892,6.7340088 C12.4863892,3.4849854 9.8433838,0.84198 6.5943604,0.84198 C6.2503663,0.84198 5.9713746,1.1209717 5.9713746,1.4650269 L5.9713746,4.3319703 C5.9713746,4.6760255 6.2503663,4.9550172 6.5943604,4.9550172 C7.5753785,4.9550172 8.3734131,5.7529908 8.3734131,6.7340089 C8.3734131,7.715027 7.5753784,8.5130006 6.5943604,8.5130006 C5.6134034,8.5130006 4.8153687,7.715027 4.8153687,6.7340089 C4.8153687,6.3900148 4.536377,6.1110231 4.1923829,6.1110231 L1.3253785,6.1110231 C0.9813844,6.1110231 0.7023927,6.3900148 0.7023927,6.7340089 C0.7023927,9.9829713 3.3453981,12.6259767 6.5943605,12.6259767 C7.3474123,12.6259767 8.0794069,12.4840089 8.7774049,12.2030031 L11.9324342,15.3580324 C11.810608,15.3825075 11.6981813,15.4382326 11.6104127,15.5260012 L3.9443971,23.1920168 C3.0383912,24.0969851 3.0383912,25.5709841 3.9443971,26.4769899 C4.3833619,26.9160158 4.9663698,27.1580202 5.5874025,27.1580202 C6.2083742,27.1580202 6.791382,26.9160158 7.2304079,26.4769899 L14.8963625,18.8109743 C14.9846804,18.723694 15.0406496,18.6097414 15.0641481,18.4878542 L23.0523683,26.4769899 C23.4913942,26.9160158 24.074402,27.1580202 24.6953737,27.1580202 C25.3153688,27.1580202 25.8994142,26.9160158 26.3393556,26.4749758 C27.2453615,25.5700075 27.2453615,24.0960085 26.3393556,23.1900027 L18.0673829,14.91803 L23.0244142,9.9609987 L24.3114014,10.2630005 Z M8.6403809,10.9000244 C7.9923706,11.2189941 7.3043824,11.3800049 6.5943604,11.3800049 C4.2443848,11.3800049 2.2954102,9.625 1.9903565,7.3569946 L3.6343995,7.3569946 C3.9213868,8.7269897 5.1394044,9.7589721 6.5943604,9.7589721 C8.2623902,9.7589721 9.6193848,8.4019775 9.6193848,6.7340087 C9.6193848,5.2800292 8.5874024,4.0620116 7.2174073,3.7739867 L7.2174073,2.1300048 C9.4854127,2.4349975 11.2403565,4.3839721 11.2403565,6.7340087 C11.2403565,7.4440307 11.0794068,8.132019 10.760376,8.7789916 C10.642395,9.0189818 10.6903687,9.3070067 10.878357,9.494995 L14.6203614,13.2369994 L13.0969239,14.7604369 L9.3554078,11.0189818 C9.1673584,10.8300171 8.8793945,10.78302 8.6403809,10.9000244 Z M4.826416,25.5960083 C4.4063721,25.1760254 4.4063721,24.4920044 4.826416,24.0720215 L4.895935,24.0025025 L6.4199218,25.5264893 L6.3504028,25.5960083 C5.9433594,26.0029907 5.2333984,26.0029907 4.826416,25.5960083 Z M13.8713989,18.0750122 L7.0609131,24.885498 L5.5369263,23.3615112 L12.3474121,16.5510254 L12.9963989,16.4519653 C13.0200195,16.4481811 13.0408325,16.4365234 13.0636596,16.4302368 L13.9916992,17.3582764 C13.9855957,17.3809204 13.973938,17.4016724 13.9703979,17.4249878 L13.8713989,18.0750122 Z M25.458374,24.0709839 C25.8783569,24.4910278 25.8783569,25.1749878 25.458374,25.5949707 C25.0513916,26.0020142 24.3424072,26.0020142 23.9343872,25.5949707 L15.6619263,17.3234863 L17.1864014,15.7990112 L25.458374,24.0709839 Z M22.3883667,8.835022 L14.5698853,16.65448 L13.7673951,15.8519898 L21.5863648,8.0319825 C21.7384034,7.8789674 21.8013917,7.6589967 21.7523804,7.4489747 L21.4863892,6.3150025 L25.3153687,4.4979859 L25.9234009,5.1060181 L24.1063843,8.9349976 L22.9713745,8.6690064 C22.7614136,8.6199951 22.5404053,8.6829834 22.3883667,8.835022 Z" id="maint"></path>
        </g>
    </g>
</svg>