<?xml version="1.0" encoding="UTF-8"?>
<svg width="22px" height="38px" viewBox="0 0 22 38" version="1.1" xmlns="http://www.w3.org/2000/svg" xmlns:xlink="http://www.w3.org/1999/xlink">
    <!-- Generator: Sketch 52.4 (67378) - http://www.bohemiancoding.com/sketch -->
    <title>req</title>
    <desc>Created with Sketch.</desc>
    <g id="Page-1" stroke="none" stroke-width="1" fill="none" fill-rule="evenodd">
        <g id="Req_off" fill="#FFFFFF">
            <g id="req">
                <path d="M9.4080029,30.0994415 L2.3570023,30.0994415 C1.1460019,30.0994415 0.1600018,29.1144409 0.1600018,27.9024429 L0.1600018,2.3974428 C0.1600018,1.1864424 1.1450024,0.2004423 2.3570023,0.2004423 L19.6429978,0.2004423 C20.8539963,0.2004423 21.8399964,1.1854429 21.8399964,2.3974428 L21.8399964,19.9934435 C21.8399964,20.3504419 21.5499955,20.6404429 21.1930009,20.6404429 C20.8359986,20.6404429 20.5459977,20.350442 20.5459977,19.9934435 L20.5459977,2.3974428 C20.5459977,1.8994436 20.1409989,1.4944429 19.6429978,1.4944429 L2.3570023,1.4944429 C1.8590031,1.4944429 1.4540024,1.8994436 1.4540024,2.3974428 L1.4540024,27.9024439 C1.4540024,28.400445 1.8590031,28.8054438 2.3570023,28.8054438 L9.4080029,28.8054438 C9.7650013,28.8054438 10.0550023,29.0954447 10.0550023,29.4524432 C10.0550023,29.8094417 9.7650013,30.0994415 9.4080029,30.0994415 Z" id="Path"></path>
                <path d="M18.0190048,5.5484438 L3.9810028,5.5484438 C3.7190037,5.5484438 3.5070019,5.3364439 3.5070019,5.0744429 C3.5070019,4.8124438 3.7190018,4.600442 3.9810028,4.600442 L18.0180054,4.600442 C18.2800064,4.600442 18.4920044,4.8124419 18.4920044,5.0744429 C18.4930038,5.3364439 18.2799988,5.5484438 18.0190048,5.5484438 Z" id="Path"></path>
                <path d="M18.0190048,9.8604441 L3.9810028,9.8604441 C3.7190037,9.8604441 3.5070019,9.6484442 3.5070019,9.3864432 C3.5070019,9.1244441 3.7190018,8.9124423 3.9810028,8.9124423 L18.0180054,8.9124423 C18.2800064,8.9124423 18.4920044,9.1244422 18.4920044,9.3864432 C18.4930038,9.6484442 18.2799988,9.8604441 18.0190048,9.8604441 Z" id="Path"></path>
                <path d="M18.0190048,14.1734447 L3.9810028,14.1734447 C3.7190037,14.1734447 3.5070019,13.9614448 3.5070019,13.6994438 C3.5070019,13.4374447 3.7190018,13.2254429 3.9810028,13.2254429 L18.0180054,13.2254429 C18.2800064,13.2254429 18.4920044,13.4374428 18.4920044,13.6994438 C18.4930038,13.9614449 18.2799988,14.1734447 18.0190048,14.1734447 Z" id="Path"></path>
                <path d="M13.491003,18.485445 L3.9820041,18.485445 C3.720005,18.485445 3.5080032,18.2734432 3.5080032,18.011446 C3.5080032,17.7494488 3.7200031,17.537447 3.9820041,17.537447 L13.491003,17.537447 C13.753004,17.537447 13.965002,17.7494488 13.965002,18.011446 C13.965002,18.2734432 13.7520008,18.485445 13.491003,18.485445 Z" id="Path"></path>
                <path d="M8.6540012,22.7974453 L3.9820003,22.7974453 C3.7200012,22.7974453 3.5079994,22.5854435 3.5079994,22.3234463 C3.5079994,22.0614491 3.7199993,21.8494473 3.9820003,21.8494473 L8.6540012,21.8494473 C8.9160022,21.8494473 9.1280002,22.0614491 9.1280002,22.3234463 C9.1280002,22.5854435 8.9160023,22.7974453 8.6540012,22.7974453 Z" id="Path"></path>
                <path d="M16.1620007,31.3674431 C13.1260014,31.3674431 10.6569996,28.8984413 10.6569996,25.8624439 C10.6569996,22.8264465 13.1270008,20.3574428 16.1620007,20.3574428 C19.1970006,20.3574428 21.6669999,22.8264446 21.6669999,25.8624439 C21.6669999,28.8984432 19.1969986,31.3674431 16.1620007,31.3674431 Z M16.1620007,21.3054447 C13.6499997,21.3054447 11.6050015,23.3494434 11.6050015,25.8614445 C11.6050015,28.3734456 13.6490002,30.4174423 16.1620007,30.4174423 C18.6750012,30.4174423 20.7180024,28.3734436 20.7180024,25.8614445 C20.7180024,23.3494454 18.6740036,21.3054447 16.1620007,21.3054447 Z" id="Shape" fill-rule="nonzero"></path>
                <path d="M13.491003,37.7994423 C13.4210033,37.7994423 13.3520031,37.7844429 13.2860012,37.7534409 C13.1210003,37.6744423 13.0160007,37.508442 13.0160007,37.3254395 L13.0160007,30.586441 C13.0160007,30.32444 13.2280025,30.112442 13.4899997,30.112442 C13.7520007,30.112442 13.9639987,30.3244438 13.9639987,30.586441 L13.9639987,36.3344421 L15.862997,34.8054428 C16.0369968,34.6654434 16.2839984,34.6654434 16.4579982,34.8054428 L18.3569946,36.3344421 L18.3569946,30.586441 C18.3569946,30.32444 18.5690002,30.112442 18.8309936,30.112442 C19.0929946,30.112442 19.3049926,30.3244438 19.3049926,30.586441 L19.3049926,37.3254394 C19.3049926,37.5084381 19.1999969,37.6744384 19.034996,37.7534408 C18.8699951,37.8314399 18.6749954,37.8094406 18.5329971,37.6954421 L16.1589946,35.7844428 L13.7849941,37.6954421 C13.7020016,37.7644424 13.597002,37.7994423 13.491003,37.7994423 Z" id="Path"></path>
            </g>
        </g>
    </g>
</svg>