<!-- Generator: Adobe Illustrator 21.1.0, SVG Export Plug-In  -->
<svg version="1.1"
	 xmlns="http://www.w3.org/2000/svg" xmlns:xlink="http://www.w3.org/1999/xlink" xmlns:a="http://ns.adobe.com/AdobeSVGViewerExtensions/3.0/"
	 x="0px" y="0px" width="8.7px" height="11.6px" viewBox="0 0 8.7 11.6" style="enable-background:new 0 0 8.7 11.6;"
	 xml:space="preserve">
<style type="text/css">
	.st0{fill:#FFFFFF;}
</style>
<defs>
</defs>
<g>
	<g>
		<path class="st0" d="M0.6,11.6c-0.1,0-0.2,0-0.3-0.1c-0.3-0.2-0.4-0.6-0.2-0.9l2.3-3.9c0.2-0.3,0.6-0.4,0.9-0.2
			c0.3,0.2,0.4,0.6,0.2,0.9l-2.3,3.9C1.1,11.5,0.9,11.6,0.6,11.6z"/>
		<path class="st0" d="M4.7,8.1c-2.2,0-4.1-1.8-4.1-4.1C0.6,1.8,2.4,0,4.7,0s4.1,1.8,4.1,4.1C8.7,6.3,6.9,8.1,4.7,8.1z M4.7,1.3
			c-1.5,0-2.8,1.3-2.8,2.8c0,1.5,1.3,2.8,2.8,2.8c1.5,0,2.8-1.3,2.8-2.8C7.5,2.5,6.2,1.3,4.7,1.3z"/>
	</g>
</g>
</svg>
