<?xml version="1.0" encoding="UTF-8"?>
<svg width="36px" height="36px" viewBox="0 0 36 36" version="1.1" xmlns="http://www.w3.org/2000/svg" xmlns:xlink="http://www.w3.org/1999/xlink">
    <!-- Generator: Sketch 52.4 (67378) - http://www.bohemiancoding.com/sketch -->
    <title>social-rss</title>
    <desc>Created with Sketch.</desc>
    <g id="Page-1" stroke="none" stroke-width="1" fill="none" fill-rule="evenodd">
        <g id="rsssoc_off" fill="#FFFFFF" fill-rule="nonzero">
            <path d="M35.5093727,15.8110447 C35.5013733,15.7540455 35.4643745,15.498045 35.4283714,15.2420445 C35.3913727,14.986044 35.314373,14.5750447 35.2613716,14.3270436 C35.2043724,14.0830441 35.151371,13.8270436 35.13937,13.7580434 C35.0983696,13.547043 34.7693711,12.4730436 34.6023713,12.0090429 C33.5003701,8.9470426 31.4593697,6.1250431 28.8813706,4.1160433 C28.6823693,3.962043 28.4623719,3.7950432 28.3973694,3.7540438 C28.3323708,3.7090437 28.2303696,3.6360438 28.1693688,3.5910437 C27.6123696,3.1760437 26.3113671,2.4040434 25.7293702,2.1350434 C24.5993729,1.6190436 24.4363728,1.5540431 23.5133725,1.2490437 C22.9523717,1.0620434 21.8383733,0.7610443 21.500372,0.7040441 C20.7403718,0.574044 20.1213723,0.4840443 19.8333722,0.4600441 C19.6423722,0.4440443 19.4513722,0.4230439 19.4063722,0.4110443 C19.3003713,0.3910443 17.1693727,0.3500444 17.1453725,0.3700444 C17.1373731,0.3820445 16.9253732,0.3980443 16.6733724,0.4150445 C16.4253732,0.4310443 16.1893731,0.4480445 16.1443731,0.4560444 C16.1033727,0.4640443 15.9453737,0.4840443 15.7863733,0.5010445 C15.6313726,0.5170443 15.3103735,0.5620444 15.0743734,0.6070444 C14.8383733,0.6480443 14.5943739,0.6920444 14.5253736,0.7050444 C13.7283727,0.8430444 12.0613729,1.3520442 11.2723733,1.6930438 C11.0733739,1.7820435 10.8043729,1.8960439 10.6823731,1.9490434 C9.8653737,2.3030435 8.6333733,3.0190431 7.7053729,3.6810438 C7.3473731,3.9370434 6.7703725,4.3850443 6.717373,4.441044 C6.6973725,4.4650442 6.5673734,4.5750438 6.4323732,4.6890441 C6.1153728,4.9490443 4.9443733,6.1200439 4.6833736,6.4380437 C4.5693733,6.5720435 4.4593736,6.6980439 4.4353735,6.7230435 C4.4113733,6.743044 4.3013737,6.8820439 4.1913731,7.0280438 C4.0813734,7.1740437 3.9803727,7.3000441 3.9673731,7.3130436 C3.922373,7.354044 3.6093733,7.7970438 3.3693735,8.1510439 C2.8973734,8.8630438 2.3483736,9.8020439 2.1293737,10.2820435 C2.0723735,10.4040432 1.9703733,10.6320439 1.8973733,10.7900429 C1.4133731,11.8510437 0.8933731,13.4700432 0.697373,14.5310421 C0.6853729,14.5960426 0.6483732,14.7990417 0.612373,14.9780426 C0.4493729,15.8560429 0.3723732,16.8450432 0.3723732,18.0080433 C0.3723732,19.1710434 0.4493733,20.1590443 0.612373,21.0370426 C0.6493732,21.2160435 0.685373,21.4150429 0.697373,21.4840431 C0.8923732,22.5450439 1.4133731,24.1640434 1.8973733,25.2250442 C1.9703733,25.3790435 2.0723735,25.6110458 2.1293737,25.7330436 C2.401374,26.3270454 3.0563737,27.4160423 3.6503736,28.2750434 C3.8333732,28.5390433 4.3663732,29.2270431 4.4353734,29.2920417 C4.4593736,29.3120422 4.5693732,29.4420432 4.6833735,29.5770415 C4.9883738,29.9470404 6.0093737,30.972042 6.3623734,31.2690428 C6.5333729,31.4110411 6.6953736,31.550041 6.7163735,31.5740431 C6.7813731,31.6430433 7.4603739,32.1680449 7.7333737,32.3590429 C9.453373,33.5670431 11.0803738,34.3600424 13.019373,34.937042 C13.3573723,35.0390432 13.6863728,35.1320417 13.7513734,35.1440427 C13.8203736,35.1560437 14.0763742,35.2090413 14.3203736,35.2660443 C14.5683728,35.3190457 14.979374,35.3960454 15.2353745,35.4330441 C15.491375,35.4700428 15.7473736,35.506046 15.8043747,35.5140454 C16.833374,35.6730458 19.2443752,35.6770436 20.1963749,35.518047 C20.2533741,35.506046 20.3913746,35.4890477 20.5013752,35.4730488 C20.826376,35.4360501 21.2003746,35.3670498 21.6803761,35.2620503 C21.9283753,35.2090489 22.1723767,35.1560513 22.2293759,35.1440503 C22.6563759,35.0590512 24.5223752,34.4530484 24.649376,34.3590505 C24.6733762,34.3430517 24.8123761,34.2820508 24.958376,34.22105 C25.7753754,33.9000509 27.2963753,33.0620496 27.9923745,32.5500486 C28.0863763,32.4810484 28.2283746,32.3790472 28.3093758,32.322048 C29.2403756,31.6750486 30.529377,30.5000494 31.359375,29.5410498 C31.5623741,29.3050497 31.8353767,28.9550513 32.3063736,28.3370512 C32.4733734,28.11705 33.0463753,27.2390516 33.2623749,26.8730505 C33.7623749,26.011051 34.2623749,24.9410494 34.6003762,24.006048 C34.767376,23.5420473 35.0963746,22.4690473 35.1373749,22.2570475 C35.1493759,22.1880473 35.2023735,21.9320467 35.2593765,21.6880473 C35.3123779,21.4400481 35.3893776,21.0290469 35.4263763,20.7730464 C35.463375,20.5170459 35.4993782,20.2610473 35.5073776,20.2040462 C35.6673737,19.288044 35.6673737,16.7260437 35.5093727,15.8110447 Z M14.3833752,26.1810455 C13.8183747,26.8560447 13.0823746,27.206047 12.2123757,27.206047 C11.5003758,27.206047 10.9763756,27.0270461 10.4433766,26.6040458 C9.9793759,26.2340469 9.6623765,25.7780456 9.4953766,25.2460441 C9.3613758,24.8110427 9.3613758,24.0950412 9.4953766,23.6600418 C9.7883759,22.7210426 10.5893765,21.9560413 11.5163765,21.724041 C11.8493767,21.6430416 12.569376,21.6550408 12.9393768,21.7480412 C13.4643764,21.882042 13.9883766,22.2280407 14.3663768,22.6870404 C15.201376,23.7040443 15.2053757,25.189045 14.3833752,26.1810455 Z M22.2323761,27.2380447 L20.7763767,27.2380447 L19.3163776,27.2380447 L19.2923774,26.6360435 C19.2353782,25.3060417 18.942377,24.1600418 18.3493766,22.9400424 C17.8733768,21.972042 17.3323764,21.2120418 16.5193767,20.3700427 C15.0923767,18.8940429 13.3803768,17.9300422 11.4973773,17.5440425 C11.0333766,17.4500426 10.6023768,17.3980426 9.7003764,17.3330421 L9.383377,17.3090419 L9.383377,15.8490428 L9.383377,14.3850421 L9.9043769,14.4090423 C10.1893767,14.4210414 10.6773776,14.4620418 10.9903773,14.4940414 C13.3203772,14.7420406 15.487377,15.637041 17.3743762,17.1290416 C17.8993758,17.5440425 19.074377,18.7190418 19.5133761,19.2680415 C20.5823763,20.6020411 21.4203757,22.2490405 21.8273753,23.8020419 C22.0753745,24.7700423 22.2343749,25.9000434 22.2343749,26.7580451 L22.2343749,27.2380447 L22.2323761,27.2380446 Z M26.583374,27.2380447 L25.1193733,27.2380447 L25.1033745,27.1440429 C25.0913735,27.0950431 25.0753746,26.741043 25.0623741,26.3630447 C24.9933758,24.1310424 24.371376,21.8250427 23.3013763,19.8610439 C21.6793766,16.8800449 18.9343757,14.2860431 15.9733753,12.9440441 C14.1723747,12.123045 12.4273758,11.7040443 10.3373756,11.5820446 C9.9593753,11.5620441 9.5853748,11.5410442 9.5163765,11.5410442 L9.3823757,11.5410442 L9.3823757,10.057045 L9.3823757,8.5730448 L9.7243748,8.5730448 C9.9153748,8.5730448 10.3463745,8.5930453 10.6923752,8.6140452 C14.9663754,8.9030448 18.6623745,10.4560452 21.7573757,13.2700444 C24.3763752,15.6490441 26.1283722,18.2800446 27.1373749,21.3380452 C27.6133766,22.7820454 27.9343758,24.571045 27.9873734,26.0590478 C27.9993744,26.3840486 28.0203743,26.7830468 28.0283738,26.9410478 L28.0483743,27.2380487 C28.0483743,27.2380487 26.583374,27.2380486 26.583374,27.2380447 Z" id="social-rss"></path>
        </g>
    </g>
</svg>