<?xml version="1.0" encoding="UTF-8"?>
<svg width="40px" height="46px" viewBox="0 0 40 46" version="1.1" xmlns="http://www.w3.org/2000/svg" xmlns:xlink="http://www.w3.org/1999/xlink">
    <!-- Generator: Sketch 52.4 (67378) - http://www.bohemiancoding.com/sketch -->
    <title>social-share</title>
    <desc>Created with Sketch.</desc>
    <g id="Page-1" stroke="none" stroke-width="1" fill="none" fill-rule="evenodd">
        <g id="Share_off" fill="#C64721">
            <path d="M35.7028198,31.152832 C34.416687,30.3120117 32.9274292,29.8676757 31.3961792,29.8676757 C29.2225952,29.8676757 27.1947021,30.7612304 25.7228394,32.2915038 L15.9184571,25.9370116 C16.2877198,25.0253905 16.4957886,24.0317382 16.4957886,22.9887694 C16.4957886,21.9467772 16.2877198,20.9531249 15.9185181,20.0415038 L25.7102051,13.6948241 C27.1831055,15.2338866 29.2163086,16.1323241 31.3961792,16.1323241 C32.9274292,16.1323241 34.416687,15.6879882 35.7033081,14.8471678 C39.34198,12.4687498 40.3678589,7.5737303 37.9899292,3.9350584 C36.5285034,1.698242 34.0592651,0.3627928 31.3844604,0.3627928 C29.8532104,0.3627928 28.3639526,0.8071287 27.0778198,1.6479491 C25.3146362,2.7998046 24.1056518,4.5693358 23.6740112,6.630371 C23.3497314,8.177246 23.4922485,9.7490233 24.0703735,11.1826171 L14.2832031,17.5258788 C12.8482055,16.036621 10.8384399,15.1049804 8.6119995,15.1049804 C4.2648315,15.1049804 0.72821,18.6420898 0.72821,22.9887695 C0.72821,27.3364258 4.2648316,30.8730468 8.6119995,30.8730468 C10.8383789,30.8730468 12.8480224,29.9414062 14.28302,28.4521484 L24.0779419,34.8007812 C23.4941406,36.2387695 23.3484497,37.8164062 23.6740112,39.3696289 C24.1056518,41.4306641 25.3146362,43.2001953 27.0773315,44.3520508 C28.3634643,45.1923828 29.8527221,45.6367188 31.3839721,45.6372071 C31.3844604,45.6372071 31.3844604,45.6372071 31.3844604,45.6372071 C34.0592651,45.6372071 36.5285034,44.3012696 37.9899292,42.0649415 C40.3678589,38.4262695 39.34198,33.5307617 35.7028198,31.152832 Z" id="social-share"></path>
        </g>
    </g>
</svg>