<?xml version="1.0" encoding="UTF-8"?>
<svg width="36px" height="36px" viewBox="0 0 36 36" version="1.1" xmlns="http://www.w3.org/2000/svg" xmlns:xlink="http://www.w3.org/1999/xlink">
    <!-- Generator: Sketch 52.4 (67378) - http://www.bohemiancoding.com/sketch -->
    <title>social-vk</title>
    <desc>Created with Sketch.</desc>
    <g id="Page-1" stroke="none" stroke-width="1" fill="none" fill-rule="evenodd">
        <g id="vksoc_off" fill="#000000" fill-rule="nonzero">
            <path d="M18,0.1599998 C8.1470003,0.1599998 0.1599998,8.1470003 0.1599998,18 C0.1599998,27.8529997 8.1469994,35.8400002 18,35.8400002 C27.8530006,35.8400002 35.8400002,27.8530006 35.8400002,18 C35.8400002,8.1469994 27.8530006,0.1599998 18,0.1599998 Z M28.2210007,25.8250008 L25.0930023,25.8689995 C25.0930023,25.8689995 24.4210014,26.0019989 23.5360031,25.3950005 C22.366003,24.592001 21.2620029,22.5039998 20.4030037,22.776001 C19.531004,23.0530014 19.5580044,24.9310017 19.5580044,24.9310017 C19.5580044,24.9310017 19.5640049,25.3320008 19.366005,25.5460015 C19.1500054,25.7790032 18.7270051,25.8250008 18.7270051,25.8250008 L17.3270055,25.8250008 C17.3270055,25.8250008 14.2370053,26.0110016 11.517006,23.1790009 C8.550006,20.0890007 5.9290067,13.9589997 5.9290067,13.9589997 C5.9290067,13.9589997 5.7780067,13.5569993 5.9420062,13.362999 C6.1260062,13.1449986 6.6290065,13.1309986 6.6290065,13.1309986 L9.9760057,13.1089992 C9.9760057,13.1089992 10.2910062,13.1619987 10.5170061,13.3269996 C10.7030069,13.4639987 10.807007,13.7189998 10.807007,13.7189998 C10.807007,13.7189998 11.3480074,15.0869998 12.064007,16.3250007 C13.4620077,18.7410011 14.1140062,19.2700004 14.5880072,19.0110015 C15.2800066,18.6330012 15.0720065,15.5950011 15.0720065,15.5950011 C15.0720065,15.5950011 15.085007,14.4920005 14.7240069,14.0010012 C14.4440062,13.6200007 13.9170077,13.5090006 13.684006,13.4780005 C13.4960063,13.4530009 13.8050063,13.0160006 14.2060054,12.8190001 C14.8080047,12.524 15.8720058,12.5069998 17.1290057,12.5200003 C18.1080058,12.5300005 18.3900054,12.5909994 18.7730067,12.6830004 C19.927006,12.9619997 19.5350058,14.0379999 19.5350058,16.6190012 C19.5350058,17.4450014 19.3860056,18.6080015 19.9830058,18.9940012 C20.2390063,19.1590021 20.8660052,19.0190008 22.4350055,16.3550013 C23.179005,15.0930022 23.7360061,13.609001 23.7360061,13.609001 C23.7360061,13.609001 23.8580058,13.3440016 24.0470069,13.2310007 C24.2410071,13.1150015 24.5020068,13.1510008 24.5020068,13.1510008 L28.0240062,13.1290014 C28.0240062,13.1290014 29.0820049,13.0030019 29.2540057,13.4800012 C29.434006,13.982002 28.8580058,15.1530015 27.4190066,17.0700014 C25.0560076,20.2190016 24.7930071,19.9250009 26.7550051,21.746002 C28.6290056,23.4850023 29.0170061,24.3320024 29.0810053,24.437002 C29.8569984,25.723999 28.2210007,25.8250008 28.2210007,25.8250008 Z" id="social-vk"></path>
        </g>
    </g>
</svg>