<?xml version="1.0" encoding="UTF-8"?>
<svg width="36px" height="36px" viewBox="0 0 36 36" version="1.1" xmlns="http://www.w3.org/2000/svg" xmlns:xlink="http://www.w3.org/1999/xlink">
    <!-- Generator: Sketch 52.4 (67378) - http://www.bohemiancoding.com/sketch -->
    <title>social-facebook</title>
    <desc>Created with Sketch.</desc>
    <g id="Page-1" stroke="none" stroke-width="1" fill="none" fill-rule="evenodd">
        <g id="fbsoc_off" fill="#FFFFFF" fill-rule="nonzero">
            <path d="M18,0.2190008 C8.1800013,0.2190008 0.2190008,8.1800013 0.2190008,18 C0.2190008,27.8209991 8.1800012,35.7809982 17.999999,35.7809982 C27.8199968,35.7809982 35.7809982,27.8199997 35.7809982,18 C35.7809982,8.1800003 27.8199997,0.2190008 18,0.2190008 Z M23.2120018,10.3549995 C23.2120018,10.512001 23.0849991,10.6389999 22.9280014,10.6389999 L20.6679993,10.6389999 C20.1139984,10.6389999 19.6640015,11.0880012 19.6640015,11.6430015 L19.6640015,14.0089988 L22.8780022,14.0089988 C23.0440026,14.0089988 23.1750031,14.1510009 23.1609993,14.3170013 L22.8790016,17.6520004 C22.8670006,17.7989998 22.7439995,17.9120025 22.5960007,17.9120025 L19.6640015,17.9120025 L19.6640015,28.9799995 C19.6640015,29.137001 19.5370026,29.2639999 19.3800011,29.2639999 L15.3360024,29.2639999 C15.1790009,29.2639999 15.052002,29.137001 15.052002,28.9799995 L15.052002,18.0890007 L15.052002,17.9120026 L13.0300026,17.9120026 C12.8730011,17.9120026 12.7460022,17.7849999 12.7460022,17.6280022 L12.7460022,14.2929993 C12.7460022,14.1360016 12.8730011,14.0089989 13.0300026,14.0089989 L15.052002,14.0089989 L15.052002,10.7939987 C15.052002,8.5529995 16.8680001,6.7369995 19.1090012,6.7369995 L22.927002,6.7369995 C23.0840035,6.7369995 23.2110024,6.8639994 23.2110024,7.0209999 L23.2110024,10.3549995 L23.2120018,10.3549995 Z" id="social-facebook"></path>
        </g>
    </g>
</svg>