<?xml version="1.0" encoding="UTF-8"?>
<svg width="34px" height="36px" viewBox="0 0 34 36" version="1.1" xmlns="http://www.w3.org/2000/svg" xmlns:xlink="http://www.w3.org/1999/xlink">
    <!-- Generator: Sketch 52.4 (67378) - http://www.bohemiancoding.com/sketch -->
    <title>social-whatup</title>
    <desc>Created with Sketch.</desc>
    <g id="Page-1" stroke="none" stroke-width="1" fill="none" fill-rule="evenodd">
        <g id="wtssoc_off" fill="#FFFFFF" fill-rule="nonzero">
            <path d="M15.6580009,18.9319992 C14.8050003,18.1429996 13.8570003,17.0349998 13.4470005,16.0559997 C13.3830013,15.9300002 13.257,15.6129989 13.4470005,15.361 C13.8260002,14.8549995 13.8900013,14.8239993 14.3000011,14.3500003 C14.5840015,14.0020007 14.8050003,13.6870002 14.7100009,13.4010009 L13.288,9.7040004 C13.1609992,9.4510001 12.7830008,9.42 12.34,9.387001 C11.9610003,9.387001 11.5510004,9.387001 11.2660006,9.4510002 C10.6350001,9.6730003 9.3390006,11.3789997 9.182001,12.6119995 C8.8340014,15.2980003 11.2660006,18.8689995 13.6990012,21.0820007 C16.1320018,23.3269996 19.8910006,25.4440002 22.5430011,24.8430004 C23.7750015,24.559 25.3549995,23.137001 25.4810027,22.4729996 C25.5450019,22.1889992 25.5120009,21.7779999 25.4500045,21.3979988 C25.4190063,20.9559994 25.324005,20.6399994 25.0700034,20.513998 L21.8490027,19.0279979 C21.5640029,18.869997 21.2800025,18.9969978 20.9960021,19.3449973 C20.649002,19.8189982 20.4900016,20.0079974 20.0790023,20.5149974 C19.8580016,20.7989978 19.7000026,20.9889983 19.4480018,21.0199966 C19.163002,21.0839958 18.7850017,20.9249973 18.7210025,20.9249973 C17.7099991,20.5760002 16.5419998,19.7229996 15.6580009,18.9319992 Z M5.0450001,30.2770004 L6.8769999,25.6310005 C4.856,23.2930012 3.6230002,20.2270012 3.6230002,16.8770008 C3.6230002,9.4820003 9.6240006,3.5090008 17.0159989,3.5090008 C24.4069977,3.5090008 30.376999,9.4820004 30.376999,16.8770008 C30.376999,24.2730007 24.4069978,30.2770004 17.0159989,30.2770004 C14.046999,30.2770004 11.3289986,29.3279991 9.119999,27.6860008 L5.0450001,30.2770004 Z M2.802,25.7270012 L0.2749996,35.8400002 L9.309,31.730999 C11.6149998,32.9319992 14.236,33.6279984 17.0170002,33.6279984 C26.237999,33.6279984 33.7249985,26.1369973 33.7249985,16.8779984 C33.7249985,7.6499987 26.237999,0.159998 17.0159989,0.159998 C7.7609988,0.159998 0.2749997,7.6509982 0.2749997,16.8769971 C0.2749996,20.1329994 1.2229996,23.1669998 2.802,25.7270012 Z" id="social-whatup"></path>
        </g>
    </g>
</svg>