<?xml version="1.0" encoding="UTF-8"?>
<svg width="48px" height="60px" viewBox="0 0 48 60" version="1.1" xmlns="http://www.w3.org/2000/svg" xmlns:xlink="http://www.w3.org/1999/xlink">
    <!-- Generator: Sketch 52.4 (67378) - http://www.bohemiancoding.com/sketch -->
    <title>stage</title>
    <desc>Created with Sketch.</desc>
    <g id="Page-1" stroke="none" stroke-width="1" fill="none" fill-rule="evenodd">
        <g id="Stage_off" fill="#222222">
            <g id="stage">
                <path d="M38.9521179,6.290473 L34.4001159,10.9844723 C33.8311157,11.5534725 33.8311157,12.4064732 34.4001159,12.9754715 C34.9691161,13.5444698 35.8221168,13.5444717 36.391117,12.9754715 L40.9431151,8.2814713 C41.5121153,7.7124711 41.5121153,6.8594714 40.9431151,6.2904711 C40.3741188,5.7224731 39.3791161,5.7224731 38.9521179,6.290473 Z" id="Path"></path>
                <path d="M14.6291199,19.6614723 L28.4261208,33.0324707 C28.7101212,33.3164711 28.995121,33.4594688 29.4221192,33.4594688 C29.4221192,33.4594688 29.5641175,33.4594688 29.7061196,33.4594688 L41.7961198,30.7564697 C42.2231179,30.6144714 42.6491204,30.3294716 42.7921182,29.7604713 C42.9341203,29.1914711 42.7921182,28.7644729 42.3651201,28.3384704 L18.7531204,5.580471 C18.3261223,5.2964706 17.9001198,5.153471 17.3311195,5.2964706 C16.7621154,5.4384708 16.4781189,5.8654708 16.3351211,6.4344711 L14.0591201,18.5244713 C14.0601196,18.9504738 14.2021179,19.5194721 14.6291199,19.6614723 Z" id="Path"></path>
                <path d="M39.3791161,18.3814735 C38.6681176,18.6654739 38.3831177,19.519474 38.6681176,20.2304725 C38.952118,20.9414729 39.8061181,21.2264728 40.5171166,20.9414729 L46.3491173,18.3814734 C47.0601158,18.097473 47.3451157,17.2434729 47.0601158,16.5324744 C46.7761154,15.821474 45.9221153,15.5364741 45.2111168,15.821474 L39.3791161,18.3814735 Z" id="Path"></path>
                <path d="M31.1291199,2.5924735 C31.4131203,1.8814735 30.9871216,1.0274734 30.2761193,0.7434735 C29.5651208,0.4594736 28.7111207,0.8854737 28.4271203,1.5964737 L26.009121,7.4284725 C25.7251206,8.1394729 26.1511193,8.993473 26.8621216,9.2774725 C27.5731201,9.5614729 28.4271202,9.1354723 28.7111206,8.4244728 L31.1291199,2.5924735 Z" id="Path"></path>
                <path d="M12.0691147,47.113472 L12.0691147,50.9534722 L8.3711167,50.9534722 C6.3801194,50.9534722 4.8151169,52.3754731 4.8151169,54.3674737 L4.8151169,57.9234735 C4.8151169,58.634472 5.5261154,59.3454744 6.2371216,59.3454744 L20.745121,59.3454744 C21.5981216,59.3454744 22.1671219,58.6344759 22.1671219,57.9234735 L22.1671219,54.3674737 C22.1671219,52.5184747 20.6021233,50.9534722 18.7531204,50.9534722 L14.9131164,50.9534722 L14.9131164,47.2554703 C16.1931152,46.9714699 17.3311195,46.4024697 18.3271217,45.4064713 L27.4301223,36.0184708 C27.0031242,35.7344704 26.5771217,35.4494706 26.2921218,35.1654702 L12.637123,21.7944699 C12.3531188,21.5104695 12.0681228,21.0834695 11.7841185,20.6564694 L2.6811217,30.044468 C0.1211165,32.6044694 0.2631148,36.7294694 2.82312,39.2904664 L9.224121,45.5494653 C10.0771179,46.4024734 11.0731201,46.9714737 12.0691147,47.113472 Z M13.775116,31.4674721 L9.0811158,36.3034706 C8.5121156,36.8724708 7.6591187,36.8724708 7.0901185,36.3034706 C6.5211183,35.7344704 6.5211183,34.8814697 7.0901185,34.3124695 L11.7841187,29.476471 C12.3531189,28.9074708 13.2061158,28.9074708 13.775116,29.476471 C14.3441162,29.9024734 14.3441162,30.8984718 13.775116,31.4674721 Z M11.9261169,40.8554726 C11.3571167,40.2864724 11.3571167,39.4334717 11.9261169,38.8644715 L16.6201171,34.028473 C17.1891173,33.4594728 18.042118,33.4594728 18.6111182,34.028473 C19.1801184,34.5974732 19.1801184,35.4504739 18.6111182,36.0194741 L13.9171141,40.8554726 C13.3491135,41.4244728 12.4951172,41.4244728 11.9261169,40.8554726 Z" id="Shape" fill-rule="nonzero"></path>
            </g>
        </g>
    </g>
</svg>