<?xml version="1.0" encoding="UTF-8"?>
<svg width="61px" height="62px" viewBox="0 0 61 62" version="1.1" xmlns="http://www.w3.org/2000/svg" xmlns:xlink="http://www.w3.org/1999/xlink">
    <!-- Generator: Sketch 52.4 (67378) - http://www.bohemiancoding.com/sketch -->
    <title>street</title>
    <desc>Created with Sketch.</desc>
    <g id="Page-1" stroke="none" stroke-width="1" fill="none" fill-rule="evenodd">
        <g id="Street_off" fill="#222222">
            <g id="street">
                <path d="M26.8991661,0.7555027 L19.8101654,0.7555027 C18.625164,0.7555027 17.6331673,1.6695023 17.3651657,2.8985023 C9.1421661,4.0685024 2.7981644,11.152502 2.7981644,19.6925029 L1.9131623,44.5085067 L0.4761658,46.2025069 L0.4761658,61.2435073 L6.8901673,61.2435073 L6.8901673,46.2025032 L5.4531708,44.508503 L4.5681687,19.6925011 C4.5681687,12.0845013 10.1881714,5.7655011 17.4941712,4.6655007 C17.8791695,5.6675006 18.7711716,6.3695012 19.8111725,6.3695012 L26.9001732,6.3695012 C28.291172,6.3695012 29.4191742,5.1125012 29.4191742,3.562501 C29.4181633,2.0125027 28.2901649,0.7555027 26.8991661,0.7555027 Z" id="Path"></path>
                <path d="M44.6341629,9.4775019 L38.5671654,9.4775019 C37.552166,9.4775019 36.7041664,10.2595015 36.4741669,11.3115015 C29.4371682,12.3125019 24.0071678,18.3755016 24.0071678,25.6845016 L23.2501678,46.9225044 L22.0201683,48.3715057 L22.0201683,61.2435073 L27.5091667,61.2435073 L27.5091667,48.3715057 L26.2791672,46.9225044 L25.5221672,25.6845016 C25.5221672,19.1735019 30.3311653,13.765501 36.5841675,12.8245029 C36.9131661,13.6815033 37.677166,14.2825031 38.5671692,14.2825031 L44.6341667,14.2825031 C45.8251667,14.2825031 46.7901668,13.2065029 46.7901668,11.8795032 C46.790163,10.5535021 45.8251629,9.4775019 44.6341629,9.4775019 Z" id="Path"></path>
                <path d="M59.0921631,18.8785019 L54.127161,18.8785019 C53.2971611,18.8785019 52.6021614,19.5185013 52.4141617,20.3795014 C46.6551609,21.1985016 42.2111626,26.1605015 42.2111626,32.1425019 L41.5911599,49.5235024 L40.5851594,50.7095032 L40.5851594,61.2444992 L45.07716,61.2444992 L45.07716,50.7085037 L44.0711595,49.5225029 L43.4511606,32.1415024 C43.4511606,26.8125 47.3871595,22.3875008 52.5041601,21.6165009 C52.7741606,22.3185006 53.3981592,22.8105011 54.1271593,22.8105011 L59.0921595,22.8105011 C60.0661604,22.8105011 60.8571608,21.9305019 60.8571608,20.8445015 C60.8571625,19.758503 60.0671635,18.8785019 59.0921631,18.8785019 Z" id="Path"></path>
            </g>
        </g>
    </g>
</svg>