<?xml version="1.0" encoding="UTF-8"?>
<svg width="66px" height="60px" viewBox="0 0 66 60" version="1.1" xmlns="http://www.w3.org/2000/svg" xmlns:xlink="http://www.w3.org/1999/xlink">
    <!-- Generator: Sketch 52.4 (67378) - http://www.bohemiancoding.com/sketch -->
    <title>subs</title>
    <desc>Created with Sketch.</desc>
    <g id="Page-1" stroke="none" stroke-width="1" fill="none" fill-rule="evenodd">
        <g id="SubS_off" fill="#583E3E">
            <g id="subs">
                <path d="M63.1819992,0.8245025 C64.2639999,0.8245025 65.1449965,1.7055026 65.1449965,2.7875028 C65.1449965,3.869503 64.2649992,4.7495022 63.1829985,4.7495022 L61.3719939,4.7495022 L61.3719939,57.2114963 C61.3719939,58.293497 60.4909972,59.175497 59.4089965,59.175497 L6.5899963,59.175497 C5.5079956,59.175497 4.6279907,58.2935008 4.6279907,57.2115001 L4.6279907,4.7505016 L2.8160095,4.7505016 C1.7350006,4.7505016 0.855011,3.8705019 0.855011,2.7885022 C0.855011,1.7065025 1.7350006,0.8245025 2.8160095,0.8245025 L63.1819992,0.8245025 Z M41.0400009,28.508503 C40.701004,28.133503 40.0870056,27.9005013 39.4360046,27.9005013 L34.3909988,27.9005013 L38.0520019,13.4834996 C38.2630004,13.1344987 38.1920013,12.8284989 38.0939941,12.6324998 C37.9299926,12.3045007 37.5659942,12.0315 37.0950012,11.8885003 C36.845993,11.8105012 36.5829925,11.7725011 36.3150024,11.7725011 C35.5489959,11.7725011 34.8679962,12.0805017 34.5800018,12.5585004 L24.8259964,28.6865007 C24.6019974,29.0555002 24.6549988,29.4615022 24.9689941,29.8015024 C25.3130035,30.1745035 25.9079971,30.3985025 26.5630035,30.3985025 L31.598999,30.3985025 L26.4749985,46.4175035 C26.1779938,46.9265024 26.2440033,47.2325021 26.3379975,47.4315034 C26.4929963,47.7595025 26.8499985,48.034504 27.3179932,48.1845018 C28.2599945,48.4955026 29.4479981,48.1825029 29.8499985,47.5415002 L41.1629944,29.6324998 C41.3930054,29.2685051 41.3470001,28.8485031 41.0400009,28.508503 Z" id="Combined-Shape"></path>
            </g>
        </g>
    </g>
</svg>