<?xml version="1.0" encoding="utf-8"?>
<!-- Generator: Adobe Illustrator 17.0.0, SVG Export Plug-In . SVG Version: 6.00 Build 0)  -->
<!DOCTYPE svg PUBLIC "-//W3C//DTD SVG 1.1//EN" "http://www.w3.org/Graphics/SVG/1.1/DTD/svg11.dtd">
<svg version="1.1" id="Слой_1" xmlns="http://www.w3.org/2000/svg" xmlns:xlink="http://www.w3.org/1999/xlink" x="0px" y="0px"
	 width="100px" height="100px" viewBox="103.1666641 -23.5 100 100" enable-background="new 103.1666641 -23.5 100 100"
	 xml:space="preserve">
<g>
	<g>
		<g>
			<path fill="#222222" d="M180.3064728-0.6436881c-9.0093079-9.0093184-23.5302124-9.0093184-32.5395355,0
				c-8.3733673,8.3733664-8.9033203,21.4103813-1.8018646,30.4197025l-2.9677734,2.9677753
				c-1.4838867-1.1659107-2.7557983-1.8018646-3.2857513-1.2719059l-2.543808,2.5438099l8.4793549,8.4793587l2.543808-2.543808
				c0.5299683-0.5299606-0.1059875-1.8018646-1.2718964-3.2857513l2.9677734-2.9677734
				c9.0093079,7.1014633,22.1523132,6.4655075,30.419693-1.8018665
				C189.3157959,22.8865337,189.3157959,8.2596388,180.3064728-0.6436881z M151.6886444,3.2780156
				c6.783493-6.7834873,17.9126434-6.7834873,24.6961365,0c3.073761,3.0737672,4.7696381,7.1014619,5.087616,11.129158h-12.401062
				l-1.3778992-4.2396793c-0.1059875-0.4239674-0.6359558-0.8479347-1.0599213-0.7419443
				c-0.529953,0-0.9539337,0.317975-1.0599213,0.8479347l-2.9677734,12.2950706l-4.2396851-14.4149103
				c-0.1059875-0.4239678-0.529953-0.7419438-0.9539185-0.7419438c-0.4239807-0.1059923-0.8479462,0.1059923-1.0599213,0.5299602
				l-3.7097168,6.4655123h-5.9355621C146.9190063,10.3794775,148.6148834,6.3517828,151.6886444,3.2780156z M176.3847809,27.9741497
				c-6.783493,6.7834873-17.9126434,6.7834873-24.6961365,0c-3.1797638-3.17976-4.8756256-7.2074547-5.087616-11.3411427h6.5715027
				c0.4239807,0,0.7419434-0.2119846,0.9539337-0.5299606l2.8617859-4.8756323l4.6636505,15.898797
				c0.1059875,0.4239693,0.529953,0.7419434,1.0599213,0.7419434l0,0c0.529953,0,0.9539185-0.3179741,1.0599213-0.8479347
				l3.073761-12.5070534l0.4239655,1.2719049c0.1060028,0.4239683,0.5299683,0.7419443,1.0599213,0.7419443h13.1430054
				C181.2604065,20.7666931,179.5645447,24.7943878,176.3847809,27.9741497z"/>
			<path fill="#222222" d="M134.8359222,36.2415237l-15.3688431,15.4748268
				c-0.8479385,0.9539299,1.1659088,3.815712,3.6037292,6.0415459c2.0138474,1.8018646,4.1336899,3.17976,4.8756332,2.4378204
				l15.3688354-15.3688393l-3.7097168-3.7097206L134.8359222,36.2415237z"/>
		</g>
	</g>
</g>
</svg>
